Canarina-Medio.ufo
<glyph name="exclam" format="2">
  <advance width="210"/>
  <unicode hex="0021"/>
  <outline>
    <contour>
      <point x="59" y="166" type="line"/>
      <point x="146" y="176" type="line"/>
      <point x="170" y="700" type="line"/>
      <point x="40" y="700" type="line"/>
    </contour>
    <contour>
      <point x="51" y="0" type="line"/>
      <point x="149" y="0" type="line"/>
      <point x="146" y="104" type="line"/>
      <point x="56" y="94" type="line"/>
    </contour>
  </outline>
</glyph>
<glyph name="quotedbl" format="2">
  <advance width="271"/>
  <unicode hex="0022"/>
  <outline>
    <contour>
      <point x="16" y="448" type="line"/>
      <point x="86" y="448" type="line"/>
      <point x="123" y="573" type="line"/>
      <point x="92" y="700" type="line"/>
      <point x="14" y="680" type="line"/>
      <point x="8" y="665" type="line"/>
      <point x="41" y="550" type="line"/>
    </contour>
    <contour>
      <point x="156" y="448" type="line"/>
      <point x="226" y="448" type="line"/>
      <point x="263" y="573" type="line"/>
      <point x="242" y="700" type="line"/>
      <point x="164" y="680" type="line"/>
      <point x="158" y="665" type="line"/>
      <point x="181" y="550" type="line"/>
    </contour>
  </outline>
</glyph>
<glyph name="numbersign" format="2">
  <advance width="727"/>
  <unicode hex="0023"/>
  <outline>
    <contour>
      <point x="345" y="0" type="line"/>
      <point x="448" y="0" type="line"/>
      <point x="550" y="339" type="line"/>
      <point x="663" y="700" type="line"/>
      <point x="564" y="700" type="line"/>
      <point x="456" y="353" type="line"/>
    </contour>
    <contour>
      <point x="31" y="134" type="line"/>
      <point x="118" y="136"/>
      <point x="241" y="145"/>
      <point x="328" y="145" type="curve" smooth="yes"/>
      <point x="401" y="145"/>
      <point x="527" y="136"/>
      <point x="600" y="134" type="curve"/>
      <point x="632" y="199" type="line"/>
      <point x="623" y="235" type="line"/>
      <point x="542" y="233"/>
      <point x="409" y="228"/>
      <point x="328" y="228" type="curve" smooth="yes"/>
      <point x="253" y="228"/>
      <point x="132" y="234"/>
      <point x="57" y="238" type="curve"/>
      <point x="25" y="181" type="line"/>
    </contour>
    <contour>
      <point x="75" y="0" type="line"/>
      <point x="178" y="0" type="line"/>
      <point x="280" y="339" type="line"/>
      <point x="393" y="700" type="line"/>
      <point x="294" y="700" type="line"/>
      <point x="186" y="353" type="line"/>
    </contour>
    <contour>
      <point x="101" y="434" type="line"/>
      <point x="188" y="436"/>
      <point x="311" y="445"/>
      <point x="398" y="445" type="curve" smooth="yes"/>
      <point x="471" y="445"/>
      <point x="597" y="436"/>
      <point x="670" y="434" type="curve"/>
      <point x="702" y="499" type="line"/>
      <point x="693" y="535" type="line"/>
      <point x="612" y="533"/>
      <point x="479" y="528"/>
      <point x="398" y="528" type="curve" smooth="yes"/>
      <point x="323" y="528"/>
      <point x="202" y="534"/>
      <point x="127" y="538" type="curve"/>
      <point x="95" y="481" type="line"/>
    </contour>
  </outline>
</glyph>
<glyph name="dollar" format="2">
  <advance width="501"/>
  <unicode hex="0024"/>
  <outline>
    <contour>
      <point x="234" y="24" type="curve" smooth="yes"/>
      <point x="277" y="24"/>
      <point x="343" y="31"/>
      <point x="383" y="44" type="curve"/>
      <point x="412" y="76"/>
      <point x="456" y="156"/>
      <point x="466" y="186" type="curve"/>
      <point x="466" y="251"/>
      <point x="459" y="282"/>
      <point x="433" y="325" type="curve"/>
      <point x="398" y="353"/>
      <point x="354" y="374"/>
      <point x="301" y="390" type="curve" smooth="yes"/>
      <point x="256" y="404"/>
      <point x="181" y="421"/>
      <point x="152" y="446" type="curve"/>
      <point x="135" y="460"/>
      <point x="131" y="478"/>
      <point x="131" y="502" type="curve"/>
      <point x="141" y="535"/>
      <point x="158" y="556"/>
      <point x="182" y="584" type="curve"/>
      <point x="197" y="591"/>
      <point x="226" y="597"/>
      <point x="247" y="597" type="curve" smooth="yes"/>
      <point x="271" y="597"/>
      <point x="306" y="588"/>
      <point x="326" y="577" type="curve"/>
      <point x="325" y="497" type="line"/>
      <point x="412" y="527" type="line"/>
      <point x="412" y="653" type="line"/>
      <point x="377" y="663"/>
      <point x="321" y="677"/>
      <point x="270" y="684" type="curve"/>
      <point x="222" y="679"/>
      <point x="136" y="672"/>
      <point x="107" y="653" type="curve"/>
      <point x="67" y="592"/>
      <point x="51" y="554"/>
      <point x="35" y="484" type="curve"/>
      <point x="39" y="435"/>
      <point x="47" y="405"/>
      <point x="70" y="366" type="curve"/>
      <point x="122" y="330"/>
      <point x="201" y="313"/>
      <point x="242" y="298" type="curve" smooth="yes"/>
      <point x="277" y="285"/>
      <point x="321" y="274"/>
      <point x="350" y="253" type="curve"/>
      <point x="359" y="238"/>
      <point x="365" y="224"/>
      <point x="366" y="201" type="curve"/>
      <point x="355" y="178"/>
      <point x="334" y="144"/>
      <point x="317" y="128" type="curve"/>
      <point x="287" y="117"/>
      <point x="259" y="111"/>
      <point x="234" y="111" type="curve" smooth="yes"/>
      <point x="203" y="111"/>
      <point x="160" y="117"/>
      <point x="140" y="128" type="curve"/>
      <point x="145" y="166"/>
      <point x="153" y="195"/>
      <point x="170" y="233" type="curve"/>
      <point x="71" y="268" type="line"/>
      <point x="55" y="219"/>
      <point x="45" y="174"/>
      <point x="45" y="143" type="curve" smooth="yes"/>
      <point x="45" y="112"/>
      <point x="51" y="73"/>
      <point x="71" y="44" type="curve"/>
      <point x="130" y="31"/>
      <point x="187" y="24"/>
    </contour>
    <contour>
      <point x="193" y="-16" type="curve"/>
      <point x="296" y="-16" type="line"/>
      <point x="295" y="20"/>
      <point x="294" y="50"/>
      <point x="292" y="75" type="curve"/>
      <point x="196" y="75" type="line"/>
      <point x="195" y="39"/>
      <point x="194" y="7"/>
    </contour>
    <contour>
      <point x="193" y="635" type="curve"/>
      <point x="297" y="635" type="line"/>
      <point x="298" y="660"/>
      <point x="299" y="686"/>
      <point x="300" y="714" type="curve"/>
      <point x="190" y="714" type="line"/>
      <point x="191" y="687"/>
      <point x="192" y="660"/>
    </contour>
  </outline>
</glyph>
<glyph name="percent" format="2">
  <advance width="656"/>
  <unicode hex="0025"/>
  <outline>
    <contour>
      <point x="83" y="0" type="curve"/>
      <point x="213" y="0" type="line"/>
      <point x="392" y="387" type="line"/>
      <point x="578" y="700" type="line"/>
      <point x="441" y="700" type="line"/>
      <point x="384" y="568"/>
      <point x="347" y="482"/>
      <point x="294" y="384" type="curve" smooth="yes"/>
      <point x="233" y="272"/>
      <point x="173" y="158"/>
    </contour>
    <component base="_part.ya" xOffset="328" yOffset="-1"/>
    <component base="_part.ya" xOffset="10" yOffset="450"/>
  </outline>
</glyph>
<glyph name="ampersand" format="2">
  <advance width="694"/>
  <unicode hex="0026"/>
  <outline>
    <contour>
      <point x="210" y="-20" type="curve" smooth="yes"/>
      <point x="286" y="-20"/>
      <point x="362" y="-4"/>
      <point x="410" y="50" type="curve" smooth="yes"/>
      <point x="471" y="118"/>
      <point x="590" y="251"/>
      <point x="651" y="362" type="curve"/>
      <point x="631" y="379"/>
      <point x="603" y="386"/>
      <point x="577" y="393" type="curve"/>
      <point x="544" y="386" type="line"/>
      <point x="463" y="259"/>
      <point x="413" y="182"/>
      <point x="355" y="123" type="curve" smooth="yes"/>
      <point x="320" y="88"/>
      <point x="276" y="75"/>
      <point x="220" y="75" type="curve" smooth="yes"/>
      <point x="160" y="75"/>
      <point x="129" y="100"/>
      <point x="129" y="167" type="curve" smooth="yes"/>
      <point x="129" y="242"/>
      <point x="203" y="293"/>
      <point x="282" y="339" type="curve" smooth="yes"/>
      <point x="428" y="424"/>
      <point x="486" y="486"/>
      <point x="486" y="561" type="curve" smooth="yes"/>
      <point x="486" y="644"/>
      <point x="428" y="714"/>
      <point x="308" y="714" type="curve"/>
      <point x="308" y="630" type="line"/>
      <point x="364" y="630"/>
      <point x="391" y="590"/>
      <point x="391" y="554" type="curve" smooth="yes"/>
      <point x="391" y="524"/>
      <point x="361" y="490"/>
      <point x="256" y="426" type="curve" smooth="yes"/>
      <point x="208" y="397"/>
      <point x="129" y="354"/>
      <point x="94" y="314" type="curve" smooth="yes"/>
      <point x="53" y="266"/>
      <point x="35" y="225"/>
      <point x="35" y="161" type="curve" smooth="yes"/>
      <point x="35" y="50"/>
      <point x="92" y="-20"/>
    </contour>
    <contour>
      <point x="593" y="-20" type="curve"/>
      <point x="669" y="69" type="line"/>
      <point x="569" y="136"/>
      <point x="501" y="188"/>
      <point x="410" y="283" type="curve" smooth="yes"/>
      <point x="334" y="363"/>
      <point x="213" y="475"/>
      <point x="213" y="554" type="curve" smooth="yes"/>
      <point x="213" y="602"/>
      <point x="253" y="630"/>
      <point x="308" y="630" type="curve"/>
      <point x="308" y="714" type="line"/>
      <point x="193" y="714"/>
      <point x="119" y="658"/>
      <point x="119" y="554" type="curve" smooth="yes"/>
      <point x="119" y="457"/>
      <point x="208" y="356"/>
      <point x="328" y="230" type="curve" smooth="yes"/>
      <point x="453" y="99"/>
      <point x="522" y="34"/>
    </contour>
  </outline>
</glyph>
<glyph name="parenleft" format="2">
  <advance width="266"/>
  <unicode hex="0028"/>
  <outline>
    <contour>
      <point x="153" y="-37" type="curve"/>
      <point x="225" y="-8" type="line"/>
      <point x="168" y="138"/>
      <point x="149" y="237"/>
      <point x="149" y="340" type="curve" smooth="yes"/>
      <point x="149" y="445"/>
      <point x="168" y="584"/>
      <point x="246" y="707" type="curve"/>
      <point x="169" y="737" type="line"/>
      <point x="97" y="626"/>
      <point x="45" y="477"/>
      <point x="45" y="340" type="curve" smooth="yes"/>
      <point x="45" y="191"/>
      <point x="97" y="68"/>
    </contour>
  </outline>
</glyph>
<glyph name="parenright" format="2">
  <advance width="266"/>
  <unicode hex="0029"/>
  <outline>
    <contour>
      <point x="41" y="-8" type="curve"/>
      <point x="113" y="-37" type="line"/>
      <point x="169" y="68"/>
      <point x="221" y="191"/>
      <point x="221" y="340" type="curve" smooth="yes"/>
      <point x="221" y="477"/>
      <point x="169" y="626"/>
      <point x="97" y="737" type="curve"/>
      <point x="20" y="707" type="line"/>
      <point x="98" y="584"/>
      <point x="117" y="445"/>
      <point x="117" y="340" type="curve" smooth="yes"/>
      <point x="117" y="237"/>
      <point x="98" y="138"/>
    </contour>
  </outline>
</glyph>
<glyph name="asterisk" format="2">
  <advance width="273"/>
  <unicode hex="002A"/>
  <outline>
    <contour>
      <point x="92" y="381" type="line"/>
      <point x="180" y="381" type="line"/>
      <point x="167" y="556" type="line"/>
      <point x="180" y="700" type="line"/>
      <point x="92" y="700" type="line"/>
      <point x="103" y="556" type="line"/>
    </contour>
    <contour>
      <point x="-25" y="478" type="curve"/>
      <point x="28" y="409" type="line"/>
      <point x="61" y="452"/>
      <point x="106" y="483"/>
      <point x="155" y="510" type="curve"/>
      <point x="127" y="561" type="line"/>
      <point x="101" y="561" type="line"/>
      <point x="53" y="536"/>
      <point x="28" y="521"/>
    </contour>
    <contour>
      <point x="101" y="509" type="curve"/>
      <point x="127" y="509" type="line"/>
      <point x="155" y="560" type="line"/>
      <point x="106" y="587"/>
      <point x="71" y="618"/>
      <point x="28" y="661" type="curve"/>
      <point x="-25" y="592" type="line"/>
      <point x="28" y="549"/>
      <point x="53" y="534"/>
    </contour>
    <contour>
      <point x="245" y="409" type="curve"/>
      <point x="298" y="478" type="line"/>
      <point x="245" y="521"/>
      <point x="220" y="536"/>
      <point x="172" y="561" type="curve"/>
      <point x="146" y="561" type="line"/>
      <point x="118" y="510" type="line"/>
      <point x="167" y="483"/>
      <point x="202" y="452"/>
    </contour>
    <contour>
      <point x="118" y="560" type="curve"/>
      <point x="146" y="509" type="line"/>
      <point x="172" y="509" type="line"/>
      <point x="220" y="534"/>
      <point x="245" y="549"/>
      <point x="298" y="592" type="curve"/>
      <point x="245" y="661" type="line"/>
      <point x="202" y="618"/>
      <point x="167" y="587"/>
    </contour>
  </outline>
</glyph>
<glyph name="plus" format="2">
  <advance width="474"/>
  <unicode hex="002B"/>
  <outline>
    <contour>
      <point x="186" y="61" type="line"/>
      <point x="284" y="61" type="line"/>
      <point x="271" y="276" type="line"/>
      <point x="284" y="490" type="line"/>
      <point x="186" y="490" type="line"/>
      <point x="197" y="276" type="line"/>
    </contour>
    <contour>
      <point x="35" y="224" type="curve"/>
      <point x="237" y="234" type="line"/>
      <point x="237" y="313" type="line"/>
      <point x="63" y="323" type="line"/>
      <point x="25" y="264" type="line"/>
      <point x="25" y="248"/>
      <point x="30" y="236"/>
    </contour>
    <contour>
      <point x="379" y="224" type="line"/>
      <point x="411" y="224" type="line"/>
      <point x="449" y="283" type="line"/>
      <point x="449" y="299"/>
      <point x="444" y="311"/>
      <point x="439" y="323" type="curve"/>
      <point x="237" y="313" type="line"/>
      <point x="237" y="234" type="line"/>
    </contour>
  </outline>
</glyph>
<glyph name="comma" format="2">
  <advance width="192"/>
  <unicode hex="002C"/>
  <outline>
    <contour>
      <point x="105" y="-84" type="line"/>
      <point x="162" y="23" type="line"/>
      <point x="144" y="108" type="line"/>
      <point x="125" y="108" type="line"/>
      <point x="51" y="85" type="line"/>
      <point x="77" y="-1" type="line"/>
      <point x="30" y="-78" type="line"/>
    </contour>
  </outline>
</glyph>
<glyph name="hyphen" format="2">
  <advance width="354"/>
  <unicode hex="002D"/>
  <outline>
    <contour>
      <point x="26" y="198" type="curve"/>
      <point x="176" y="203" type="line"/>
      <point x="296" y="198" type="line"/>
      <point x="309" y="222"/>
      <point x="321" y="246"/>
      <point x="329" y="274" type="curve"/>
      <point x="321" y="290" type="line"/>
      <point x="68" y="287" type="line"/>
      <point x="53" y="275"/>
      <point x="34" y="250"/>
      <point x="27" y="234" type="curve"/>
      <point x="24" y="222"/>
      <point x="25" y="209"/>
    </contour>
  </outline>
</glyph>
<glyph name="period" format="2">
  <advance width="185"/>
  <unicode hex="002E"/>
  <outline>
    <contour>
      <point x="45" y="0" type="line"/>
      <point x="140" y="0" type="line"/>
      <point x="138" y="105" type="line"/>
      <point x="45" y="95" type="line"/>
    </contour>
  </outline>
</glyph>
<glyph name="slash" format="2">
  <advance width="431"/>
  <unicode hex="002F"/>
  <outline>
    <contour>
      <point x="35" y="0" type="curve"/>
      <point x="158" y="0" type="line"/>
      <point x="189" y="122"/>
      <point x="218" y="232"/>
      <point x="256" y="346" type="curve" smooth="yes"/>
      <point x="293" y="455"/>
      <point x="337" y="568"/>
      <point x="396" y="700" type="curve"/>
      <point x="277" y="700" type="line"/>
      <point x="239" y="570"/>
      <point x="208" y="471"/>
      <point x="176" y="375" type="curve" smooth="yes"/>
      <point x="137" y="260"/>
      <point x="95" y="150"/>
    </contour>
  </outline>
</glyph>
<glyph name="zero" format="2">
  <advance width="492"/>
  <unicode hex="0030"/>
  <outline>
    <contour>
      <point x="251" y="-5" type="curve" smooth="yes"/>
      <point x="306" y="-5"/>
      <point x="325" y="-1"/>
      <point x="346" y="5" type="curve"/>
      <point x="383" y="102" type="line"/>
      <point x="325" y="87"/>
      <point x="283" y="85"/>
      <point x="251" y="85" type="curve" smooth="yes"/>
      <point x="209" y="85"/>
      <point x="166" y="93"/>
      <point x="129" y="119" type="curve"/>
      <point x="208" y="48" type="line"/>
      <point x="162" y="116"/>
      <point x="132" y="210"/>
      <point x="118" y="298" type="curve"/>
      <point x="134" y="418"/>
      <point x="158" y="549"/>
      <point x="193" y="611" type="curve"/>
      <point x="208" y="618"/>
      <point x="232" y="623"/>
      <point x="251" y="623" type="curve" smooth="yes"/>
      <point x="266" y="623"/>
      <point x="289" y="618"/>
      <point x="310" y="611" type="curve"/>
      <point x="374" y="683" type="line"/>
      <point x="321" y="700"/>
      <point x="289" y="710"/>
      <point x="251" y="710" type="curve" smooth="yes"/>
      <point x="193" y="710"/>
      <point x="170" y="703"/>
      <point x="132" y="683" type="curve"/>
      <point x="68" y="594"/>
      <point x="31" y="434"/>
      <point x="24" y="298" type="curve"/>
      <point x="36" y="184"/>
      <point x="72" y="73"/>
      <point x="129" y="5" type="curve"/>
      <point x="157" y="-1"/>
      <point x="211" y="-5"/>
    </contour>
    <contour>
      <point x="261" y="-5" type="line"/>
      <point x="287" y="-5"/>
      <point x="329" y="-1"/>
      <point x="365" y="5" type="curve"/>
      <point x="418" y="76"/>
      <point x="456" y="187"/>
      <point x="468" y="298" type="curve"/>
      <point x="459" y="422"/>
      <point x="425" y="582"/>
      <point x="374" y="683" type="curve"/>
      <point x="320" y="683" type="line"/>
      <point x="300" y="611" type="line"/>
      <point x="331" y="546"/>
      <point x="357" y="414"/>
      <point x="372" y="298" type="curve"/>
      <point x="362" y="208"/>
      <point x="337" y="126"/>
      <point x="303" y="79" type="curve"/>
      <point x="289" y="79" type="line"/>
    </contour>
  </outline>
</glyph>
<glyph name="one" format="2">
  <advance width="354"/>
  <unicode hex="0031"/>
  <outline>
    <contour>
      <point x="102" y="460" type="line"/>
      <point x="260" y="651" type="line"/>
      <point x="202" y="700" type="line"/>
      <point x="25" y="538" type="line"/>
    </contour>
    <component base="_part.barra" xOffset="142"/>
  </outline>
</glyph>
<glyph name="two" format="2">
  <advance width="508"/>
  <unicode hex="0032"/>
  <outline>
    <contour>
      <point x="45" y="53" type="curve"/>
      <point x="53" y="0" type="line"/>
      <point x="127" y="0" type="line"/>
      <point x="267" y="145"/>
      <point x="424" y="363"/>
      <point x="442" y="437" type="curve"/>
      <point x="444" y="457"/>
      <point x="446" y="500"/>
      <point x="446" y="525" type="curve" smooth="yes"/>
      <point x="446" y="563"/>
      <point x="441" y="605"/>
      <point x="424" y="653" type="curve"/>
      <point x="392" y="695"/>
      <point x="298" y="713"/>
      <point x="245" y="713" type="curve" smooth="yes"/>
      <point x="173" y="713"/>
      <point x="111" y="680"/>
      <point x="55" y="633" type="curve"/>
      <point x="129" y="588" type="line"/>
      <point x="156" y="606"/>
      <point x="204" y="629"/>
      <point x="245" y="629" type="curve" smooth="yes"/>
      <point x="293" y="629"/>
      <point x="331" y="607"/>
      <point x="365" y="581" type="curve"/>
      <point x="333" y="627" type="line"/>
      <point x="348" y="581"/>
      <point x="354" y="526"/>
      <point x="349" y="482" type="curve"/>
      <point x="329" y="404"/>
      <point x="230" y="258"/>
    </contour>
    <contour>
      <point x="276" y="0" type="line"/>
      <point x="422" y="0" type="line"/>
      <point x="441" y="31"/>
      <point x="454" y="60"/>
      <point x="463" y="101" type="curve"/>
      <point x="463" y="201" type="line"/>
      <point x="365" y="176" type="line"/>
      <point x="365" y="79" type="line"/>
      <point x="276" y="79" type="line"/>
    </contour>
    <contour>
      <point x="83" y="0" type="line"/>
      <point x="414" y="0" type="line"/>
      <point x="424" y="17"/>
      <point x="432" y="38"/>
      <point x="436" y="65" type="curve"/>
      <point x="422" y="92" type="line"/>
      <point x="83" y="77" type="line"/>
    </contour>
    <contour>
      <point x="142" y="477" type="line"/>
      <point x="140" y="633" type="line"/>
      <point x="55" y="633" type="line"/>
      <point x="45" y="507" type="line"/>
    </contour>
  </outline>
</glyph>
<glyph name="three" format="2">
  <advance width="510"/>
  <unicode hex="0033"/>
  <outline>
    <contour>
      <point x="251" y="-10" type="curve"/>
      <point x="367" y="0"/>
      <point x="460" y="91"/>
      <point x="470" y="223" type="curve"/>
      <point x="460" y="330"/>
      <point x="397" y="420"/>
      <point x="251" y="430" type="curve"/>
      <point x="202" y="357" type="line"/>
      <point x="317" y="352"/>
      <point x="359" y="310"/>
      <point x="369" y="223" type="curve"/>
      <point x="359" y="139"/>
      <point x="304" y="87"/>
      <point x="251" y="87" type="curve"/>
      <point x="219" y="87"/>
      <point x="172" y="103"/>
      <point x="136" y="144" type="curve"/>
      <point x="139" y="245" type="line"/>
      <point x="45" y="209" type="line"/>
      <point x="51" y="93" type="line"/>
      <point x="105" y="29"/>
      <point x="152" y="0"/>
    </contour>
    <contour>
      <point x="183" y="411" type="curve"/>
      <point x="183" y="357" type="line"/>
      <point x="260" y="357" type="line"/>
      <point x="317" y="454"/>
      <point x="369" y="539"/>
      <point x="465" y="661" type="curve"/>
      <point x="464" y="683" type="line"/>
      <point x="373" y="700" type="line"/>
      <point x="326" y="649" type="line"/>
      <point x="275" y="562"/>
      <point x="228" y="486"/>
    </contour>
    <contour>
      <point x="75" y="608" type="curve"/>
      <point x="373" y="618" type="line"/>
      <point x="373" y="700" type="line"/>
      <point x="83" y="700" type="line"/>
      <point x="73" y="683"/>
      <point x="65" y="662"/>
      <point x="61" y="635" type="curve"/>
      <point x="64" y="625"/>
      <point x="69" y="616"/>
    </contour>
  </outline>
</glyph>
<glyph name="four" format="2">
  <advance width="544"/>
  <unicode hex="0034"/>
  <outline>
    <contour>
      <point x="114" y="133" type="curve"/>
      <point x="475" y="130" type="line"/>
      <point x="485" y="148"/>
      <point x="493" y="176"/>
      <point x="499" y="194" type="curve"/>
      <point x="499" y="207"/>
      <point x="496" y="219"/>
      <point x="490" y="232" type="curve"/>
      <point x="445" y="227"/>
      <point x="409" y="224"/>
      <point x="344" y="224" type="curve" smooth="yes"/>
      <point x="273" y="224"/>
      <point x="233" y="227"/>
      <point x="145" y="237" type="curve"/>
      <point x="128" y="251" type="line"/>
      <point x="143" y="380"/>
      <point x="196" y="573"/>
      <point x="248" y="700" type="curve"/>
      <point x="141" y="700" type="line"/>
      <point x="98" y="626"/>
      <point x="46" y="446"/>
      <point x="15" y="229" type="curve"/>
      <point x="37" y="197"/>
      <point x="69" y="154"/>
    </contour>
    <component base="_part.barra" xOffset="245"/>
  </outline>
</glyph>
<glyph name="five" format="2">
  <advance width="486"/>
  <unicode hex="0035"/>
  <outline>
    <contour>
      <point x="251" y="-10" type="curve"/>
      <point x="372" y="13"/>
      <point x="443" y="89"/>
      <point x="461" y="213" type="curve"/>
      <point x="453" y="359"/>
      <point x="405" y="428"/>
      <point x="281" y="470" type="curve"/>
      <point x="214" y="470"/>
      <point x="118" y="439"/>
      <point x="86" y="412" type="curve"/>
      <point x="51" y="362" type="line"/>
      <point x="105" y="344" type="line"/>
      <point x="145" y="364"/>
      <point x="208" y="379"/>
      <point x="261" y="379" type="curve"/>
      <point x="316" y="349"/>
      <point x="364" y="293"/>
      <point x="365" y="213" type="curve"/>
      <point x="345" y="149"/>
      <point x="307" y="106"/>
      <point x="253" y="87" type="curve"/>
      <point x="206" y="97"/>
      <point x="172" y="113"/>
      <point x="136" y="144" type="curve"/>
      <point x="139" y="245" type="line"/>
      <point x="48" y="209" type="line"/>
      <point x="48" y="93" type="line"/>
      <point x="112" y="19"/>
      <point x="157" y="0"/>
    </contour>
    <contour>
      <point x="51" y="362" type="curve"/>
      <point x="140" y="399" type="line"/>
      <point x="144" y="513"/>
      <point x="167" y="633"/>
      <point x="196" y="700" type="curve"/>
      <point x="89" y="683" type="line"/>
      <point x="58" y="595"/>
      <point x="43" y="466"/>
    </contour>
    <contour>
      <point x="410" y="608" type="line"/>
      <point x="420" y="625"/>
      <point x="428" y="646"/>
      <point x="432" y="673" type="curve"/>
      <point x="429" y="683"/>
      <point x="424" y="692"/>
      <point x="418" y="700" type="curve"/>
      <point x="196" y="700" type="line"/>
      <point x="79" y="618" type="line"/>
    </contour>
  </outline>
</glyph>
<glyph name="six" format="2">
  <advance width="524"/>
  <unicode hex="0036"/>
  <outline>
    <contour>
      <point x="258" y="-10" type="curve"/>
      <point x="324" y="-7"/>
      <point x="362" y="10"/>
      <point x="388" y="25" type="curve"/>
      <point x="457" y="101"/>
      <point x="484" y="174"/>
      <point x="494" y="261" type="curve"/>
      <point x="494" y="386"/>
      <point x="387" y="460"/>
      <point x="293" y="470" type="curve"/>
      <point x="199" y="460"/>
      <point x="75" y="377"/>
      <point x="47" y="355" type="curve"/>
      <point x="106" y="271" type="line"/>
      <point x="134" y="302"/>
      <point x="221" y="366"/>
      <point x="288" y="376" type="curve"/>
      <point x="344" y="366"/>
      <point x="395" y="316"/>
      <point x="395" y="255" type="curve" smooth="yes"/>
      <point x="395" y="228"/>
      <point x="382" y="160"/>
      <point x="344" y="112" type="curve"/>
      <point x="322" y="99"/>
      <point x="307" y="92"/>
      <point x="262" y="87" type="curve"/>
      <point x="237" y="92"/>
      <point x="213" y="106"/>
      <point x="187" y="120" type="curve"/>
      <point x="173" y="162"/>
      <point x="137" y="224"/>
      <point x="137" y="310" type="curve" smooth="yes"/>
      <point x="137" y="482"/>
      <point x="173" y="533"/>
      <point x="208" y="605" type="curve"/>
      <point x="231" y="617"/>
      <point x="255" y="623"/>
      <point x="279" y="623" type="curve" smooth="yes"/>
      <point x="303" y="623"/>
      <point x="327" y="614"/>
      <point x="357" y="584" type="curve"/>
      <point x="357" y="497" type="line"/>
      <point x="454" y="513" type="line"/>
      <point x="455" y="529"/>
      <point x="457" y="542"/>
      <point x="457" y="564" type="curve" smooth="yes"/>
      <point x="457" y="594"/>
      <point x="455" y="606"/>
      <point x="444" y="638" type="curve"/>
      <point x="390" y="686"/>
      <point x="352" y="709"/>
      <point x="291" y="709" type="curve" smooth="yes"/>
      <point x="236" y="709"/>
      <point x="179" y="695"/>
      <point x="125" y="669" type="curve"/>
      <point x="79" y="612"/>
      <point x="30" y="386"/>
      <point x="30" y="309" type="curve" smooth="yes"/>
      <point x="30" y="242"/>
      <point x="62" y="146"/>
      <point x="100" y="56" type="curve"/>
      <point x="146" y="19"/>
      <point x="189" y="0"/>
    </contour>
  </outline>
</glyph>
<glyph name="seven" format="2">
  <advance width="503"/>
  <unicode hex="0037"/>
  <outline>
    <contour>
      <point x="124" y="0" type="curve"/>
      <point x="253" y="0" type="line"/>
      <point x="319" y="247"/>
      <point x="370" y="414"/>
      <point x="473" y="671" type="curve"/>
      <point x="472" y="693" type="line"/>
      <point x="386" y="700" type="line"/>
      <point x="349" y="647" type="line"/>
      <point x="286" y="414"/>
      <point x="214" y="247"/>
    </contour>
    <contour>
      <point x="96" y="302" type="curve"/>
      <point x="273" y="311" type="line"/>
      <point x="326" y="311" type="line"/>
      <point x="419" y="302" type="line"/>
      <point x="432" y="305"/>
      <point x="441" y="311"/>
      <point x="449" y="319" type="curve"/>
      <point x="455" y="337"/>
      <point x="455" y="371"/>
      <point x="449" y="390" type="curve"/>
      <point x="102" y="390" type="line"/>
      <point x="94" y="372"/>
      <point x="87" y="349"/>
      <point x="84" y="329" type="curve"/>
      <point x="87" y="321"/>
      <point x="91" y="313"/>
    </contour>
    <contour>
      <point x="39" y="608" type="curve"/>
      <point x="348" y="618" type="line"/>
      <point x="386" y="700" type="line"/>
      <point x="47" y="700" type="line"/>
      <point x="37" y="683"/>
      <point x="29" y="662"/>
      <point x="25" y="635" type="curve"/>
      <point x="28" y="625"/>
      <point x="33" y="616"/>
    </contour>
  </outline>
</glyph>
<glyph name="eight" format="2">
  <advance width="546"/>
  <unicode hex="0038"/>
  <outline>
    <contour>
      <point x="274" y="-10" type="curve" smooth="yes"/>
      <point x="300" y="-10"/>
      <point x="327" y="-7"/>
      <point x="353" y="0" type="curve"/>
      <point x="408" y="17"/>
      <point x="473" y="61"/>
      <point x="491" y="120" type="curve"/>
      <point x="502" y="155"/>
      <point x="507" y="208"/>
      <point x="491" y="251" type="curve"/>
      <point x="443" y="307"/>
      <point x="406" y="344"/>
      <point x="326" y="383" type="curve" smooth="yes"/>
      <point x="221" y="434" type="line" smooth="yes"/>
      <point x="197" y="446"/>
      <point x="177" y="462"/>
      <point x="167" y="476" type="curve"/>
      <point x="162" y="490"/>
      <point x="166" y="558"/>
      <point x="176" y="570" type="curve"/>
      <point x="205" y="601"/>
      <point x="237" y="615"/>
      <point x="282" y="615" type="curve" smooth="yes"/>
      <point x="330" y="615"/>
      <point x="368" y="608"/>
      <point x="401" y="570" type="curve"/>
      <point x="406" y="550"/>
      <point x="406" y="508"/>
      <point x="402" y="486" type="curve"/>
      <point x="356" y="424"/>
      <point x="304" y="392"/>
      <point x="241" y="349" type="curve"/>
      <point x="322" y="308" type="line"/>
      <point x="346" y="324"/>
      <point x="456" y="406"/>
      <point x="477" y="431" type="curve"/>
      <point x="506" y="501"/>
      <point x="506" y="556"/>
      <point x="473" y="636" type="curve"/>
      <point x="457" y="655"/>
      <point x="403" y="685"/>
      <point x="351" y="700" type="curve"/>
      <point x="329" y="706"/>
      <point x="307" y="710"/>
      <point x="284" y="710" type="curve" smooth="yes"/>
      <point x="263" y="710"/>
      <point x="242" y="706"/>
      <point x="221" y="700" type="curve"/>
      <point x="159" y="685"/>
      <point x="114" y="650"/>
      <point x="87" y="591" type="curve"/>
      <point x="70" y="556"/>
      <point x="61" y="501"/>
      <point x="77" y="446" type="curve"/>
      <point x="98" y="410"/>
      <point x="115" y="398"/>
      <point x="136" y="382" type="curve"/>
      <point x="166" y="363"/>
      <point x="200" y="336"/>
      <point x="272" y="309" type="curve"/>
      <point x="333" y="276"/>
      <point x="364" y="256"/>
      <point x="396" y="223" type="curve"/>
      <point x="402" y="194"/>
      <point x="402" y="176"/>
      <point x="399" y="149" type="curve"/>
      <point x="384" y="125"/>
      <point x="361" y="105"/>
      <point x="339" y="95" type="curve"/>
      <point x="318" y="88"/>
      <point x="307" y="85"/>
      <point x="277" y="85" type="curve" smooth="yes"/>
      <point x="254" y="85"/>
      <point x="228" y="89"/>
      <point x="202" y="99" type="curve"/>
      <point x="180" y="117"/>
      <point x="172" y="125"/>
      <point x="158" y="149" type="curve"/>
      <point x="152" y="168"/>
      <point x="152" y="185"/>
      <point x="158" y="203" type="curve"/>
      <point x="181" y="245"/>
      <point x="257" y="313"/>
      <point x="318" y="341" type="curve"/>
      <point x="221" y="381" type="line"/>
      <point x="150" y="343"/>
      <point x="83" y="286"/>
      <point x="54" y="241" type="curve"/>
      <point x="44" y="208"/>
      <point x="40" y="158"/>
      <point x="54" y="120" type="curve"/>
      <point x="60" y="84"/>
      <point x="111" y="29"/>
      <point x="188" y="0" type="curve"/>
      <point x="217" y="-7"/>
      <point x="245" y="-10"/>
    </contour>
  </outline>
</glyph>
<glyph name="nine" format="2">
  <advance width="524"/>
  <unicode hex="0039"/>
  <outline>
    <contour>
      <point x="233" y="-9" type="curve" smooth="yes"/>
      <point x="288" y="-9"/>
      <point x="345" y="5"/>
      <point x="399" y="31" type="curve"/>
      <point x="445" y="88"/>
      <point x="494" y="314"/>
      <point x="494" y="391" type="curve"/>
      <point x="494" y="458"/>
      <point x="462" y="554"/>
      <point x="424" y="644" type="curve"/>
      <point x="378" y="681"/>
      <point x="335" y="700"/>
      <point x="266" y="710" type="curve"/>
      <point x="200" y="707"/>
      <point x="152" y="690"/>
      <point x="126" y="675" type="curve"/>
      <point x="57" y="599"/>
      <point x="40" y="526"/>
      <point x="30" y="439" type="curve"/>
      <point x="30" y="314"/>
      <point x="137" y="240"/>
      <point x="231" y="230" type="curve"/>
      <point x="325" y="240"/>
      <point x="449" y="323"/>
      <point x="477" y="345" type="curve"/>
      <point x="418" y="429" type="line"/>
      <point x="390" y="398"/>
      <point x="303" y="334"/>
      <point x="236" y="324" type="curve"/>
      <point x="180" y="334"/>
      <point x="129" y="384"/>
      <point x="129" y="445" type="curve" smooth="yes"/>
      <point x="129" y="472"/>
      <point x="138" y="540"/>
      <point x="176" y="588" type="curve"/>
      <point x="198" y="601"/>
      <point x="217" y="608"/>
      <point x="262" y="613" type="curve"/>
      <point x="287" y="608"/>
      <point x="311" y="594"/>
      <point x="337" y="580" type="curve"/>
      <point x="351" y="538"/>
      <point x="387" y="476"/>
      <point x="387" y="390" type="curve"/>
      <point x="367" y="218"/>
      <point x="361" y="167"/>
      <point x="326" y="95" type="curve"/>
      <point x="303" y="83"/>
      <point x="269" y="77"/>
      <point x="245" y="77" type="curve" smooth="yes"/>
      <point x="221" y="77"/>
      <point x="197" y="86"/>
      <point x="167" y="116" type="curve"/>
      <point x="167" y="203" type="line"/>
      <point x="70" y="187" type="line"/>
      <point x="69" y="171"/>
      <point x="67" y="158"/>
      <point x="67" y="136" type="curve" smooth="yes"/>
      <point x="67" y="106"/>
      <point x="69" y="94"/>
      <point x="80" y="62" type="curve"/>
      <point x="134" y="14"/>
      <point x="172" y="-9"/>
    </contour>
  </outline>
</glyph>
<glyph name="less" format="2">
  <advance width="397"/>
  <unicode hex="003C"/>
  <outline>
    <contour>
      <point x="372" y="419" type="curve"/>
      <point x="303" y="523" type="line"/>
      <point x="202" y="439"/>
      <point x="121" y="374"/>
      <point x="25" y="304" type="curve"/>
      <point x="25" y="209" type="line"/>
      <point x="88" y="233" type="line"/>
      <point x="167" y="310"/>
      <point x="276" y="374"/>
    </contour>
    <contour>
      <point x="303" y="-10" type="curve"/>
      <point x="372" y="94" type="line"/>
      <point x="276" y="139"/>
      <point x="167" y="203"/>
      <point x="88" y="280" type="curve"/>
      <point x="25" y="304" type="line"/>
      <point x="25" y="209" type="line"/>
      <point x="121" y="139"/>
      <point x="202" y="74"/>
    </contour>
  </outline>
</glyph>
<glyph name="equal" format="2">
  <advance width="422"/>
  <unicode hex="003D"/>
  <outline>
    <contour>
      <point x="45" y="299" type="curve"/>
      <point x="59" y="285" type="line"/>
      <point x="184" y="291" type="line"/>
      <point x="328" y="285" type="line"/>
      <point x="351" y="307"/>
      <point x="363" y="323"/>
      <point x="377" y="352" type="curve"/>
      <point x="362" y="371" type="line"/>
      <point x="88" y="371" type="line"/>
      <point x="66" y="350"/>
      <point x="55" y="325"/>
    </contour>
    <contour>
      <point x="45" y="139" type="curve"/>
      <point x="59" y="125" type="line"/>
      <point x="184" y="131" type="line"/>
      <point x="328" y="125" type="line"/>
      <point x="351" y="147"/>
      <point x="363" y="163"/>
      <point x="377" y="192" type="curve"/>
      <point x="362" y="211" type="line"/>
      <point x="88" y="211" type="line"/>
      <point x="66" y="190"/>
      <point x="55" y="165"/>
    </contour>
  </outline>
</glyph>
<glyph name="greater" format="2">
  <advance width="397"/>
  <unicode hex="003E"/>
  <outline>
    <contour>
      <point x="94" y="523" type="curve"/>
      <point x="25" y="419" type="line"/>
      <point x="121" y="374"/>
      <point x="230" y="310"/>
      <point x="309" y="233" type="curve"/>
      <point x="372" y="209" type="line"/>
      <point x="372" y="304" type="line"/>
      <point x="276" y="374"/>
      <point x="195" y="439"/>
    </contour>
    <contour>
      <point x="25" y="94" type="curve"/>
      <point x="94" y="-10" type="line"/>
      <point x="195" y="74"/>
      <point x="276" y="139"/>
      <point x="372" y="209" type="curve"/>
      <point x="372" y="304" type="line"/>
      <point x="309" y="280" type="line"/>
      <point x="230" y="203"/>
      <point x="121" y="139"/>
    </contour>
  </outline>
</glyph>
<glyph name="question" format="2">
  <advance width="416"/>
  <unicode hex="003F"/>
  <outline>
    <contour>
      <point x="157" y="322" type="curve"/>
      <point x="153" y="162" type="line"/>
      <point x="234" y="162" type="line"/>
      <point x="224" y="265" type="line"/>
      <point x="268" y="292"/>
      <point x="306" y="324"/>
      <point x="350" y="369" type="curve"/>
      <point x="367" y="412"/>
      <point x="381" y="463"/>
      <point x="381" y="538" type="curve"/>
      <point x="374" y="605"/>
      <point x="367" y="633"/>
      <point x="348" y="680" type="curve"/>
      <point x="308" y="693"/>
      <point x="252" y="710"/>
      <point x="209" y="710" type="curve" smooth="yes"/>
      <point x="163" y="710"/>
      <point x="95" y="699"/>
      <point x="20" y="643" type="curve"/>
      <point x="105" y="606" type="line"/>
      <point x="125" y="617"/>
      <point x="178" y="623"/>
      <point x="209" y="623" type="curve" smooth="yes"/>
      <point x="234" y="623"/>
      <point x="252" y="617"/>
      <point x="282" y="606" type="curve"/>
      <point x="294" y="548"/>
      <point x="287" y="466"/>
      <point x="277" y="421" type="curve"/>
      <point x="239" y="381"/>
      <point x="215" y="358"/>
    </contour>
    <contour>
      <point x="148" y="0" type="line"/>
      <point x="241" y="0" type="line"/>
      <point x="239" y="104" type="line"/>
      <point x="148" y="94" type="line"/>
    </contour>
    <contour>
      <point x="107" y="477" type="line"/>
      <point x="105" y="633" type="line"/>
      <point x="20" y="643" type="line"/>
      <point x="10" y="507" type="line"/>
    </contour>
  </outline>
</glyph>
<glyph name="at" format="2">
  <advance width="715"/>
  <unicode hex="0040"/>
  <outline>
    <contour>
      <point x="227" y="0" type="curve"/>
      <point x="553" y="0" type="line"/>
      <point x="681" y="100" type="line"/>
      <point x="600" y="155" type="line"/>
      <point x="538" y="95" type="line"/>
      <point x="457" y="81"/>
      <point x="348" y="81"/>
      <point x="260" y="95" type="curve"/>
      <point x="176" y="192"/>
      <point x="136" y="260"/>
      <point x="132" y="377" type="curve"/>
      <point x="179" y="496"/>
      <point x="248" y="591"/>
      <point x="311" y="660" type="curve"/>
      <point x="416" y="655"/>
      <point x="522" y="630"/>
      <point x="607" y="585" type="curve"/>
      <point x="603" y="469"/>
      <point x="588" y="354"/>
      <point x="544" y="238" type="curve"/>
      <point x="454" y="223" type="line"/>
      <point x="452" y="173" type="line"/>
      <point x="556" y="173" type="line"/>
      <point x="627" y="219" type="line"/>
      <point x="674" y="360"/>
      <point x="692" y="502"/>
      <point x="699" y="643" type="curve"/>
      <point x="590" y="694"/>
      <point x="460" y="726"/>
      <point x="331" y="737" type="curve"/>
      <point x="217" y="694" type="line"/>
      <point x="147" y="615"/>
      <point x="80" y="511"/>
      <point x="26" y="382" type="curve"/>
      <point x="43" y="245"/>
      <point x="120" y="107"/>
    </contour>
    <contour>
      <point x="310" y="173" type="curve"/>
      <point x="371" y="173" type="line"/>
      <point x="393" y="199"/>
      <point x="418" y="243"/>
      <point x="436" y="296" type="curve"/>
      <point x="462" y="386" type="line"/>
      <point x="436" y="386" type="line"/>
      <point x="401" y="317"/>
      <point x="364" y="260"/>
      <point x="320" y="223" type="curve"/>
      <point x="362" y="214" type="line"/>
      <point x="292" y="270" type="line"/>
      <point x="300" y="330"/>
      <point x="323" y="428"/>
      <point x="354" y="472" type="curve"/>
      <point x="382" y="480"/>
      <point x="435" y="480"/>
      <point x="464" y="472" type="curve"/>
      <point x="498" y="540" type="line"/>
      <point x="468" y="542"/>
      <point x="432" y="543"/>
      <point x="412" y="543" type="curve" smooth="yes"/>
      <point x="387" y="543"/>
      <point x="361" y="541"/>
      <point x="339" y="538" type="curve"/>
      <point x="291" y="502" type="line"/>
      <point x="260" y="437"/>
      <point x="235" y="352"/>
      <point x="219" y="253" type="curve"/>
      <point x="243" y="223"/>
      <point x="280" y="191"/>
    </contour>
    <contour>
      <point x="422" y="173" type="curve"/>
      <point x="502" y="173" type="line"/>
      <point x="496" y="259"/>
      <point x="495" y="311"/>
      <point x="495" y="353" type="curve" smooth="yes"/>
      <point x="495" y="394"/>
      <point x="496" y="468"/>
      <point x="498" y="540" type="curve"/>
      <point x="425" y="540" type="line"/>
      <point x="428" y="468"/>
      <point x="429" y="394"/>
      <point x="429" y="353" type="curve" smooth="yes"/>
      <point x="429" y="311"/>
      <point x="428" y="259"/>
    </contour>
  </outline>
</glyph>
<glyph name="A" format="2">
  <advance width="563"/>
  <unicode hex="0041"/>
  <guideline x="261" y="700" angle="0"/>
  <guideline x="538" y="0" angle="0"/>
  <guideline x="282" y="649" angle="90"/>
  <anchor x="282" y="0" name="bottom"/>
  <anchor x="475" y="0" name="ogonek"/>
  <anchor x="282" y="700" name="top"/>
  <outline>
    <contour>
      <point x="416" y="185" type="line"/>
      <point x="415" y="273" type="line"/>
      <point x="147" y="273" type="line"/>
      <point x="147" y="192" type="line"/>
    </contour>
    <component base="V" xScale="-1" yScale="-1" xOffset="558" yOffset="700"/>
  </outline>
</glyph>
<glyph name="B" format="2">
  <advance width="488"/>
  <unicode hex="0042"/>
  <anchor x="265" y="0" name="bottom"/>
  <anchor x="265" y="700" name="top"/>
  <outline>
    <contour>
      <point x="75" y="343" type="line"/>
      <point x="267" y="349" type="line"/>
      <point x="338" y="382"/>
      <point x="386" y="470"/>
      <point x="396" y="519" type="curve"/>
      <point x="396" y="566"/>
      <point x="364" y="638"/>
      <point x="315" y="698" type="curve"/>
      <point x="228" y="717"/>
      <point x="137" y="713"/>
      <point x="45" y="700" type="curve"/>
      <point x="60" y="606" type="line"/>
      <point x="158" y="628"/>
      <point x="222" y="634"/>
      <point x="262" y="625" type="curve"/>
      <point x="283" y="595"/>
      <point x="297" y="568"/>
      <point x="304" y="529" type="curve"/>
      <point x="294" y="481"/>
      <point x="278" y="441"/>
      <point x="267" y="427" type="curve"/>
      <point x="67" y="435" type="line"/>
    </contour>
    <contour>
      <point x="124" y="98" type="curve"/>
      <point x="123" y="0" type="line"/>
      <point x="246" y="0" type="line" smooth="yes"/>
      <point x="289" y="0"/>
      <point x="335" y="8"/>
      <point x="361" y="19" type="curve"/>
      <point x="391" y="44"/>
      <point x="406" y="65"/>
      <point x="420" y="91" type="curve" smooth="yes"/>
      <point x="435" y="117"/>
      <point x="453" y="180"/>
      <point x="453" y="264" type="curve"/>
      <point x="442" y="287"/>
      <point x="424" y="317"/>
      <point x="387" y="344" type="curve" smooth="yes"/>
      <point x="348" y="372"/>
      <point x="313" y="398"/>
      <point x="241" y="396" type="curve"/>
      <point x="218" y="348" type="line"/>
      <point x="255" y="348"/>
      <point x="323" y="303"/>
      <point x="355" y="251" type="curve"/>
      <point x="355" y="203"/>
      <point x="340" y="140"/>
      <point x="332" y="122" type="curve" smooth="yes"/>
      <point x="322" y="99"/>
      <point x="310" y="86"/>
      <point x="299" y="79" type="curve"/>
      <point x="223" y="76"/>
      <point x="153" y="83"/>
    </contour>
    <component base="_part.barra" xOffset="-15"/>
  </outline>
</glyph>
<glyph name="C" format="2">
  <advance width="466"/>
  <unicode hex="0043"/>
  <guideline x="71" y="288" angle="0"/>
  <anchor x="243" y="0" name="bottom"/>
  <anchor x="255" y="700" name="top"/>
  <outline>
    <contour>
      <point x="266" y="-10" type="curve" smooth="yes"/>
      <point x="321" y="-10"/>
      <point x="340" y="-6"/>
      <point x="361" y="0" type="curve"/>
      <point x="398" y="97" type="line"/>
      <point x="340" y="82"/>
      <point x="298" y="80"/>
      <point x="266" y="80" type="curve" smooth="yes"/>
      <point x="224" y="80"/>
      <point x="181" y="88"/>
      <point x="144" y="114" type="curve"/>
      <point x="223" y="43" type="line"/>
      <point x="177" y="111"/>
      <point x="132" y="200"/>
      <point x="118" y="288" type="curve"/>
      <point x="134" y="408"/>
      <point x="183" y="551"/>
      <point x="218" y="613" type="curve"/>
      <point x="238" y="620"/>
      <point x="255" y="623"/>
      <point x="276" y="623" type="curve" smooth="yes"/>
      <point x="297" y="623"/>
      <point x="314" y="620"/>
      <point x="335" y="613" type="curve"/>
      <point x="399" y="683" type="line"/>
      <point x="356" y="700"/>
      <point x="321" y="710"/>
      <point x="276" y="710" type="curve" smooth="yes"/>
      <point x="238" y="710"/>
      <point x="195" y="703"/>
      <point x="157" y="683" type="curve"/>
      <point x="93" y="594"/>
      <point x="31" y="424"/>
      <point x="24" y="288" type="curve"/>
      <point x="36" y="174"/>
      <point x="87" y="68"/>
      <point x="144" y="0" type="curve"/>
      <point x="172" y="-6"/>
      <point x="226" y="-10"/>
    </contour>
    <contour>
      <point x="333" y="72" type="curve"/>
      <point x="361" y="0" type="line"/>
      <point x="407" y="45"/>
      <point x="441" y="102"/>
      <point x="446" y="135" type="curve"/>
      <point x="445" y="169"/>
      <point x="442" y="205"/>
      <point x="439" y="226" type="curve"/>
      <point x="338" y="200" type="line"/>
      <point x="350" y="161"/>
      <point x="348" y="110"/>
    </contour>
    <contour>
      <point x="322" y="523" type="line"/>
      <point x="419" y="553" type="line"/>
      <point x="399" y="683" type="line"/>
      <point x="324" y="679" type="line"/>
    </contour>
  </outline>
</glyph>
<glyph name="D" format="2">
  <advance width="482"/>
  <unicode hex="0044"/>
  <anchor x="238" y="0" name="bottom"/>
  <anchor x="161" y="350" name="center"/>
  <anchor x="185" y="700" name="top"/>
  <outline>
    <contour>
      <point x="98" y="98" type="curve"/>
      <point x="95" y="0" type="line"/>
      <point x="266" y="0" type="line"/>
      <point x="304" y="10"/>
      <point x="330" y="26"/>
      <point x="358" y="56" type="curve"/>
      <point x="398" y="120"/>
      <point x="457" y="288"/>
      <point x="457" y="392" type="curve" smooth="yes"/>
      <point x="457" y="442"/>
      <point x="412" y="598"/>
      <point x="296" y="689" type="curve"/>
      <point x="240" y="704"/>
      <point x="189" y="710"/>
      <point x="151" y="710" type="curve" smooth="yes"/>
      <point x="110" y="710"/>
      <point x="92" y="708"/>
      <point x="45" y="700" type="curve"/>
      <point x="69" y="604" type="line"/>
      <point x="121" y="627"/>
      <point x="211" y="627"/>
      <point x="295" y="604" type="curve"/>
      <point x="211" y="629" type="line"/>
      <point x="287" y="601"/>
      <point x="323" y="534"/>
      <point x="361" y="412" type="curve"/>
      <point x="361" y="306"/>
      <point x="328" y="173"/>
      <point x="254" y="40" type="curve"/>
      <point x="321" y="88" type="line"/>
      <point x="241" y="88"/>
      <point x="152" y="92"/>
    </contour>
    <component base="_part.barra" xOffset="-15"/>
  </outline>
</glyph>
<glyph name="E" format="2">
  <advance width="480"/>
  <unicode hex="0045"/>
  <anchor x="240" y="0" name="bottom"/>
  <anchor x="365" y="0" name="ogonek"/>
  <anchor x="240" y="700" name="top"/>
  <anchor x="20" y="700" name="topleft"/>
  <outline>
    <contour>
      <point x="423" y="608" type="line"/>
      <point x="433" y="625"/>
      <point x="441" y="646"/>
      <point x="445" y="673" type="curve"/>
      <point x="431" y="700" type="line"/>
      <point x="93" y="700" type="line"/>
      <point x="93" y="618" type="line"/>
    </contour>
    <contour>
      <point x="93" y="0" type="line"/>
      <point x="428" y="0" type="line"/>
      <point x="438" y="17"/>
      <point x="446" y="38"/>
      <point x="450" y="65" type="curve"/>
      <point x="447" y="75"/>
      <point x="442" y="84"/>
      <point x="436" y="92" type="curve"/>
      <point x="93" y="82" type="line"/>
    </contour>
    <contour>
      <point x="290" y="294" type="line"/>
      <point x="309" y="319"/>
      <point x="321" y="340"/>
      <point x="328" y="363" type="curve"/>
      <point x="318" y="393" type="line"/>
      <point x="93" y="383" type="line"/>
      <point x="93" y="304" type="line"/>
    </contour>
    <component base="_part.barra" xOffset="-15"/>
  </outline>
</glyph>
<glyph name="F" format="2">
  <advance width="445"/>
  <unicode hex="0046"/>
  <anchor x="269" y="0" name="bottom"/>
  <anchor x="269" y="700" name="top"/>
  <outline>
    <contour>
      <point x="403" y="608" type="line"/>
      <point x="413" y="625"/>
      <point x="421" y="646"/>
      <point x="425" y="673" type="curve"/>
      <point x="411" y="700" type="line"/>
      <point x="93" y="700" type="line"/>
      <point x="93" y="618" type="line"/>
    </contour>
    <contour>
      <point x="280" y="264" type="line"/>
      <point x="299" y="289"/>
      <point x="311" y="310"/>
      <point x="318" y="333" type="curve"/>
      <point x="308" y="363" type="line"/>
      <point x="93" y="353" type="line"/>
      <point x="93" y="274" type="line"/>
    </contour>
    <component base="_part.barra" xOffset="-15"/>
  </outline>
</glyph>
<glyph name="G" format="2">
  <advance width="500"/>
  <unicode hex="0047"/>
  <anchor x="277" y="0" name="bottom"/>
  <anchor x="277" y="700" name="top"/>
  <outline>
    <contour>
      <point x="271" y="-10" type="curve" smooth="yes"/>
      <point x="326" y="-10"/>
      <point x="345" y="-6"/>
      <point x="366" y="0" type="curve"/>
      <point x="403" y="97" type="line"/>
      <point x="345" y="82"/>
      <point x="303" y="80"/>
      <point x="271" y="80" type="curve" smooth="yes"/>
      <point x="246" y="80"/>
      <point x="222" y="83"/>
      <point x="198" y="90" type="curve"/>
      <point x="162" y="150"/>
      <point x="129" y="219"/>
      <point x="118" y="288" type="curve"/>
      <point x="134" y="408"/>
      <point x="178" y="551"/>
      <point x="213" y="613" type="curve"/>
      <point x="233" y="620"/>
      <point x="250" y="623"/>
      <point x="271" y="623" type="curve" smooth="yes"/>
      <point x="292" y="623"/>
      <point x="309" y="620"/>
      <point x="330" y="613" type="curve"/>
      <point x="394" y="683" type="line"/>
      <point x="351" y="700"/>
      <point x="316" y="710"/>
      <point x="271" y="710" type="curve" smooth="yes"/>
      <point x="233" y="710"/>
      <point x="190" y="703"/>
      <point x="152" y="683" type="curve"/>
      <point x="88" y="594"/>
      <point x="31" y="424"/>
      <point x="24" y="288" type="curve"/>
      <point x="36" y="174"/>
      <point x="92" y="68"/>
      <point x="149" y="0" type="curve"/>
      <point x="177" y="-6"/>
      <point x="231" y="-10"/>
    </contour>
    <contour>
      <point x="366" y="0" type="line"/>
      <point x="419" y="41"/>
      <point x="458" y="92"/>
      <point x="464" y="121" type="curve"/>
      <point x="473" y="172"/>
      <point x="471" y="264"/>
      <point x="459" y="350" type="curve"/>
      <point x="254" y="350" type="line"/>
      <point x="249" y="338"/>
      <point x="244" y="326"/>
      <point x="244" y="310" type="curve"/>
      <point x="262" y="261" type="line"/>
      <point x="424" y="270" type="line"/>
      <point x="367" y="281" type="line"/>
      <point x="376" y="203"/>
      <point x="377" y="124"/>
      <point x="370" y="84" type="curve"/>
      <point x="354" y="35" type="line"/>
    </contour>
    <contour>
      <point x="317" y="523" type="line"/>
      <point x="414" y="553" type="line"/>
      <point x="394" y="683" type="line"/>
      <point x="319" y="679" type="line"/>
    </contour>
  </outline>
</glyph>
<glyph name="H" format="2">
  <advance width="529"/>
  <unicode hex="0048"/>
  <anchor x="266" y="0" name="bottom"/>
  <anchor x="266" y="350" name="center"/>
  <anchor x="266" y="700" name="top"/>
  <anchor x="10" y="700" name="topleft"/>
  <outline>
    <contour>
      <point x="74" y="297" type="line"/>
      <point x="266" y="309" type="line"/>
      <point x="458" y="297" type="line"/>
      <point x="464" y="395" type="line"/>
      <point x="266" y="387" type="line"/>
      <point x="66" y="395" type="line"/>
    </contour>
    <component base="_part.barra" xOffset="-15"/>
    <component base="_part.barra" xOffset="317"/>
  </outline>
</glyph>
<glyph name="J" format="2">
  <advance width="539"/>
  <unicode hex="004A"/>
  <anchor x="259" y="0" name="bottom"/>
  <anchor x="359" y="700" name="top"/>
  <outline>
    <contour>
      <point x="263" y="-10" type="curve" smooth="yes"/>
      <point x="316" y="-10"/>
      <point x="334" y="-6"/>
      <point x="381" y="0" type="curve"/>
      <point x="422" y="23"/>
      <point x="441" y="61"/>
      <point x="462" y="97" type="curve"/>
      <point x="472" y="133"/>
      <point x="478" y="173"/>
      <point x="478" y="215" type="curve" smooth="yes"/>
      <point x="478" y="368"/>
      <point x="453" y="548"/>
      <point x="432" y="660" type="curve"/>
      <point x="334" y="660" type="line"/>
      <point x="364" y="528"/>
      <point x="379" y="354"/>
      <point x="379" y="154" type="curve"/>
      <point x="365" y="125"/>
      <point x="354" y="108"/>
      <point x="339" y="94" type="curve"/>
      <point x="318" y="86"/>
      <point x="287" y="78"/>
      <point x="263" y="78" type="curve" smooth="yes"/>
      <point x="240" y="78"/>
      <point x="217" y="80"/>
      <point x="190" y="90" type="curve"/>
      <point x="159" y="111"/>
      <point x="141" y="125"/>
      <point x="123" y="154" type="curve"/>
      <point x="134" y="208"/>
      <point x="153" y="263"/>
      <point x="184" y="329" type="curve"/>
      <point x="93" y="368" type="line"/>
      <point x="58" y="300"/>
      <point x="42" y="229"/>
      <point x="28" y="160" type="curve" smooth="yes"/>
      <point x="27" y="155"/>
      <point x="25" y="136"/>
      <point x="25" y="132" type="curve"/>
      <point x="28" y="124"/>
      <point x="31" y="119"/>
      <point x="36" y="112" type="curve" smooth="yes"/>
      <point x="60" y="79"/>
      <point x="111" y="27"/>
      <point x="149" y="-1" type="curve"/>
      <point x="189" y="-6"/>
      <point x="229" y="-10"/>
    </contour>
    <contour>
      <point x="98" y="608" type="curve"/>
      <point x="492" y="618" type="line"/>
      <point x="503" y="631"/>
      <point x="511" y="652"/>
      <point x="514" y="673" type="curve"/>
      <point x="511" y="683"/>
      <point x="506" y="692"/>
      <point x="500" y="700" type="curve"/>
      <point x="106" y="700" type="line"/>
      <point x="96" y="683"/>
      <point x="88" y="662"/>
      <point x="84" y="635" type="curve"/>
      <point x="87" y="625"/>
      <point x="92" y="616"/>
    </contour>
  </outline>
</glyph>
<glyph name="K" format="2">
  <advance width="480"/>
  <unicode hex="004B"/>
  <anchor x="244" y="0" name="bottom"/>
  <anchor x="274" y="700" name="top"/>
  <outline>
    <contour>
      <point x="104" y="335" type="curve"/>
      <point x="101" y="234" type="line"/>
      <point x="205" y="244"/>
      <point x="258" y="275"/>
      <point x="321" y="321" type="curve"/>
      <point x="390" y="432"/>
      <point x="414" y="576"/>
      <point x="425" y="700" type="curve"/>
      <point x="310" y="700" type="line"/>
      <point x="310" y="591"/>
      <point x="298" y="470"/>
      <point x="256" y="376" type="curve"/>
      <point x="195" y="342"/>
      <point x="175" y="340"/>
    </contour>
    <contour>
      <point x="385" y="-20" type="curve"/>
      <point x="455" y="61" type="line"/>
      <point x="368" y="107"/>
      <point x="287" y="197"/>
      <point x="261" y="309" type="curve"/>
      <point x="206" y="301" type="line"/>
      <point x="207" y="190"/>
      <point x="290" y="27"/>
    </contour>
    <component base="_part.barra" xOffset="-15"/>
  </outline>
</glyph>
<glyph name="L" format="2">
  <advance width="420"/>
  <unicode hex="004C"/>
  <anchor x="217" y="0" name="bottom"/>
  <anchor x="232" y="350" name="center"/>
  <anchor x="102" y="700" name="top"/>
  <anchor x="306" y="540" name="topright"/>
  <outline>
    <contour>
      <point x="78" y="0" type="line"/>
      <point x="373" y="0" type="line"/>
      <point x="383" y="17"/>
      <point x="391" y="38"/>
      <point x="395" y="65" type="curve"/>
      <point x="392" y="75"/>
      <point x="387" y="84"/>
      <point x="381" y="92" type="curve"/>
      <point x="78" y="72" type="line"/>
    </contour>
    <component base="_part.barra" xOffset="-15"/>
  </outline>
</glyph>
<glyph name="M" format="2">
  <advance width="735"/>
  <unicode hex="004D"/>
  <anchor x="367" y="0" name="bottom"/>
  <anchor x="367" y="700" name="top"/>
  <outline>
    <contour>
      <point x="326" y="175" type="curve"/>
      <point x="419" y="206" type="line"/>
      <point x="327" y="448" type="line"/>
      <point x="229" y="700" type="line"/>
      <point x="137" y="676" type="line"/>
      <point x="212" y="509"/>
      <point x="271" y="322"/>
    </contour>
    <contour>
      <point x="35" y="0" type="curve"/>
      <point x="150" y="0" type="line"/>
      <point x="155" y="83"/>
      <point x="165" y="210"/>
      <point x="176" y="328" type="curve" smooth="yes"/>
      <point x="188" y="447"/>
      <point x="199" y="587"/>
      <point x="207" y="631" type="curve"/>
      <point x="229" y="700" type="line"/>
      <point x="124" y="700" type="line"/>
      <point x="113" y="589"/>
      <point x="98" y="461"/>
      <point x="82" y="339" type="curve" smooth="yes"/>
      <point x="65" y="209"/>
      <point x="48" y="87"/>
    </contour>
    <contour>
      <point x="419" y="206" type="line"/>
      <point x="464" y="342"/>
      <point x="548" y="577"/>
      <point x="598" y="676" type="curve"/>
      <point x="506" y="700" type="line"/>
      <point x="408" y="448" type="line"/>
      <point x="331" y="236" type="line"/>
    </contour>
    <contour>
      <point x="585" y="0" type="curve"/>
      <point x="700" y="0" type="line"/>
      <point x="687" y="87"/>
      <point x="670" y="209"/>
      <point x="653" y="339" type="curve" smooth="yes"/>
      <point x="637" y="461"/>
      <point x="622" y="589"/>
      <point x="611" y="700" type="curve"/>
      <point x="506" y="700" type="line"/>
      <point x="528" y="631" type="line"/>
      <point x="536" y="587"/>
      <point x="547" y="447"/>
      <point x="559" y="328" type="curve" smooth="yes"/>
      <point x="571" y="210"/>
      <point x="580" y="83"/>
    </contour>
  </outline>
</glyph>
<glyph name="O" format="2">
  <advance width="532"/>
  <unicode hex="004F"/>
  <guideline x="432" y="288" angle="0"/>
  <anchor x="266" y="0" name="bottom"/>
  <anchor x="266" y="350" name="center"/>
  <anchor x="326" y="10" name="ogonek"/>
  <anchor x="266" y="700" name="top"/>
  <anchor x="29" y="700" name="topleft"/>
  <anchor x="503" y="700" name="topright"/>
  <outline>
    <contour>
      <point x="271" y="-10" type="curve" smooth="yes"/>
      <point x="307" y="-10"/>
      <point x="348" y="-9"/>
      <point x="385" y="0" type="curve"/>
      <point x="438" y="71"/>
      <point x="496" y="177"/>
      <point x="508" y="288" type="curve"/>
      <point x="499" y="412"/>
      <point x="445" y="582"/>
      <point x="394" y="683" type="curve"/>
      <point x="351" y="700"/>
      <point x="316" y="710"/>
      <point x="271" y="710" type="curve" smooth="yes"/>
      <point x="233" y="710"/>
      <point x="190" y="703"/>
      <point x="152" y="683" type="curve"/>
      <point x="88" y="594"/>
      <point x="31" y="424"/>
      <point x="24" y="288" type="curve"/>
      <point x="36" y="174"/>
      <point x="92" y="68"/>
      <point x="149" y="0" type="curve"/>
      <point x="177" y="-6"/>
      <point x="231" y="-10"/>
    </contour>
    <contour>
      <point x="271" y="80" type="curve" smooth="yes"/>
      <point x="246" y="80"/>
      <point x="221" y="83"/>
      <point x="198" y="90" type="curve"/>
      <point x="162" y="150"/>
      <point x="129" y="219"/>
      <point x="118" y="288" type="curve"/>
      <point x="134" y="408"/>
      <point x="178" y="551"/>
      <point x="213" y="613" type="curve"/>
      <point x="233" y="620"/>
      <point x="250" y="623"/>
      <point x="271" y="623" type="curve" smooth="yes"/>
      <point x="288" y="623"/>
      <point x="303" y="621"/>
      <point x="318" y="617" type="curve"/>
      <point x="349" y="550"/>
      <point x="397" y="402"/>
      <point x="412" y="288" type="curve"/>
      <point x="402" y="200"/>
      <point x="359" y="129"/>
      <point x="326" y="83" type="curve"/>
      <point x="305" y="81"/>
      <point x="287" y="80"/>
    </contour>
  </outline>
</glyph>
<glyph name="P" format="2">
  <advance width="461"/>
  <unicode hex="0050"/>
  <outline>
    <contour>
      <point x="116" y="301" type="curve"/>
      <point x="116" y="203" type="line"/>
      <point x="176" y="203"/>
      <point x="269" y="219"/>
      <point x="328" y="240" type="curve"/>
      <point x="350" y="256"/>
      <point x="380" y="295"/>
      <point x="396" y="329" type="curve" smooth="yes"/>
      <point x="418" y="374"/>
      <point x="436" y="443"/>
      <point x="436" y="487" type="curve" smooth="yes"/>
      <point x="436" y="544"/>
      <point x="401" y="628"/>
      <point x="349" y="698" type="curve"/>
      <point x="307" y="707"/>
      <point x="256" y="711"/>
      <point x="204" y="711" type="curve" smooth="yes"/>
      <point x="149" y="711"/>
      <point x="92" y="707"/>
      <point x="45" y="700" type="curve"/>
      <point x="61" y="597" type="line"/>
      <point x="168" y="621"/>
      <point x="266" y="635"/>
      <point x="303" y="622" type="curve"/>
      <point x="276" y="655" type="line"/>
      <point x="305" y="599"/>
      <point x="334" y="537"/>
      <point x="344" y="499" type="curve"/>
      <point x="337" y="437"/>
      <point x="321" y="373"/>
      <point x="305" y="338" type="curve"/>
      <point x="294" y="325"/>
      <point x="283" y="317"/>
      <point x="270" y="309" type="curve"/>
      <point x="220" y="301"/>
      <point x="152" y="298"/>
    </contour>
    <component base="_part.barra" xOffset="-15"/>
  </outline>
</glyph>
<glyph name="Q" format="2">
  <advance width="532"/>
  <unicode hex="0051"/>
  <outline>
    <contour>
      <point x="395" y="-93" type="curve"/>
      <point x="478" y="-18" type="line"/>
      <point x="433" y="7"/>
      <point x="403" y="26"/>
      <point x="378" y="60" type="curve"/>
      <point x="354" y="92"/>
      <point x="348" y="125"/>
      <point x="335" y="196" type="curve"/>
      <point x="241" y="179" type="line"/>
      <point x="248" y="134"/>
      <point x="263" y="94"/>
      <point x="291" y="37" type="curve" smooth="yes"/>
      <point x="317" y="-16"/>
      <point x="345" y="-52"/>
    </contour>
    <component base="O"/>
  </outline>
</glyph>
<glyph name="R" format="2">
  <advance width="500"/>
  <unicode hex="0052"/>
  <anchor x="235" y="0" name="bottom"/>
  <anchor x="235" y="700" name="top"/>
  <outline>
    <contour>
      <point x="135" y="331" type="curve"/>
      <point x="135" y="233" type="line"/>
      <point x="196" y="233"/>
      <point x="300" y="250"/>
      <point x="357" y="270" type="curve"/>
      <point x="386" y="291"/>
      <point x="418" y="344"/>
      <point x="425" y="359" type="curve" smooth="yes"/>
      <point x="436" y="381"/>
      <point x="455" y="482"/>
      <point x="455" y="507" type="curve" smooth="yes"/>
      <point x="455" y="557"/>
      <point x="420" y="634"/>
      <point x="368" y="698" type="curve"/>
      <point x="281" y="717"/>
      <point x="156" y="713"/>
      <point x="64" y="700" type="curve"/>
      <point x="80" y="597" type="line"/>
      <point x="187" y="621"/>
      <point x="284" y="631"/>
      <point x="322" y="622" type="curve"/>
      <point x="295" y="655" type="line"/>
      <point x="324" y="599"/>
      <point x="353" y="557"/>
      <point x="363" y="519" type="curve"/>
      <point x="357" y="459"/>
      <point x="350" y="413"/>
      <point x="334" y="368" type="curve"/>
      <point x="324" y="356"/>
      <point x="310" y="344"/>
      <point x="299" y="339" type="curve"/>
      <point x="253" y="332"/>
      <point x="180" y="327"/>
    </contour>
    <contour>
      <point x="395" y="-20" type="curve"/>
      <point x="485" y="61" type="line"/>
      <point x="398" y="107"/>
      <point x="317" y="197"/>
      <point x="291" y="309" type="curve"/>
      <point x="216" y="301" type="line"/>
      <point x="237" y="190"/>
      <point x="320" y="27"/>
    </contour>
    <component base="_part.barra" xOffset="4"/>
  </outline>
</glyph>
<glyph name="S" format="2">
  <advance width="481"/>
  <unicode hex="0053"/>
  <anchor x="213" y="-10" name="bottom"/>
  <anchor x="233" y="700" name="top"/>
  <outline>
    <contour>
      <point x="214" y="-20" type="curve" smooth="yes"/>
      <point x="257" y="-20"/>
      <point x="323" y="-13"/>
      <point x="363" y="0" type="curve"/>
      <point x="392" y="32"/>
      <point x="436" y="112"/>
      <point x="446" y="142" type="curve"/>
      <point x="446" y="217"/>
      <point x="432" y="298"/>
      <point x="415" y="341" type="curve"/>
      <point x="381" y="368"/>
      <point x="328" y="388"/>
      <point x="279" y="405" type="curve" smooth="yes"/>
      <point x="229" y="421"/>
      <point x="186" y="436"/>
      <point x="156" y="462" type="curve"/>
      <point x="149" y="476"/>
      <point x="145" y="494"/>
      <point x="145" y="518" type="curve"/>
      <point x="155" y="551"/>
      <point x="172" y="592"/>
      <point x="196" y="620" type="curve"/>
      <point x="208" y="624"/>
      <point x="226" y="626"/>
      <point x="241" y="626" type="curve" smooth="yes"/>
      <point x="266" y="626"/>
      <point x="290" y="622"/>
      <point x="306" y="613" type="curve"/>
      <point x="305" y="523" type="line"/>
      <point x="402" y="553" type="line"/>
      <point x="392" y="679" type="line"/>
      <point x="357" y="689"/>
      <point x="307" y="703"/>
      <point x="251" y="710" type="curve"/>
      <point x="193" y="705"/>
      <point x="145" y="698"/>
      <point x="116" y="679" type="curve"/>
      <point x="76" y="618"/>
      <point x="60" y="580"/>
      <point x="44" y="500" type="curve"/>
      <point x="48" y="451"/>
      <point x="56" y="421"/>
      <point x="79" y="382" type="curve"/>
      <point x="131" y="346"/>
      <point x="181" y="329"/>
      <point x="222" y="314" type="curve" smooth="yes"/>
      <point x="257" y="301"/>
      <point x="303" y="290"/>
      <point x="332" y="269" type="curve"/>
      <point x="341" y="230"/>
      <point x="346" y="190"/>
      <point x="346" y="157" type="curve"/>
      <point x="335" y="134"/>
      <point x="314" y="100"/>
      <point x="297" y="84" type="curve"/>
      <point x="267" y="73"/>
      <point x="239" y="67"/>
      <point x="214" y="67" type="curve" smooth="yes"/>
      <point x="183" y="67"/>
      <point x="150" y="73"/>
      <point x="130" y="84" type="curve"/>
      <point x="135" y="122"/>
      <point x="143" y="151"/>
      <point x="160" y="189" type="curve"/>
      <point x="61" y="224" type="line"/>
      <point x="45" y="175"/>
      <point x="35" y="130"/>
      <point x="35" y="99" type="curve" smooth="yes"/>
      <point x="35" y="68"/>
      <point x="41" y="29"/>
      <point x="61" y="0" type="curve"/>
      <point x="120" y="-13"/>
      <point x="167" y="-20"/>
    </contour>
  </outline>
</glyph>
<glyph name="T" format="2">
  <advance width="540"/>
  <unicode hex="0054"/>
  <anchor x="270" y="0" name="bottom"/>
  <anchor x="270" y="350" name="center"/>
  <anchor x="270" y="700" name="top"/>
  <outline>
    <contour>
      <point x="39" y="608" type="curve"/>
      <point x="270" y="618" type="line"/>
      <point x="493" y="608" type="line"/>
      <point x="503" y="625"/>
      <point x="511" y="646"/>
      <point x="515" y="673" type="curve"/>
      <point x="512" y="683"/>
      <point x="507" y="692"/>
      <point x="501" y="700" type="curve"/>
      <point x="47" y="700" type="line"/>
      <point x="37" y="683"/>
      <point x="29" y="662"/>
      <point x="25" y="635" type="curve"/>
      <point x="28" y="625"/>
      <point x="33" y="616"/>
    </contour>
    <component base="_part.barra" xOffset="155"/>
  </outline>
</glyph>
<glyph name="U" format="2">
  <advance width="505"/>
  <unicode hex="0055"/>
  <guideline x="442" y="708" angle="0"/>
  <anchor x="295" y="0" name="bottom"/>
  <anchor x="402" y="0" name="ogonek"/>
  <anchor x="295" y="700" name="top"/>
  <anchor x="485" y="700" name="topright"/>
  <outline>
    <contour>
      <point x="305" y="-5" type="curve" smooth="yes"/>
      <point x="351" y="-5"/>
      <point x="401" y="-3"/>
      <point x="465" y="0" type="curve"/>
      <point x="422" y="100" type="line"/>
      <point x="411" y="95"/>
      <point x="354" y="83"/>
      <point x="305" y="83" type="curve" smooth="yes"/>
      <point x="283" y="83"/>
      <point x="252" y="83"/>
      <point x="215" y="92" type="curve"/>
      <point x="175" y="130"/>
      <point x="147" y="174"/>
      <point x="133" y="238" type="curve"/>
      <point x="147" y="362"/>
      <point x="177" y="530"/>
      <point x="235" y="700" type="curve"/>
      <point x="131" y="700" type="line"/>
      <point x="78" y="526"/>
      <point x="58" y="419"/>
      <point x="40" y="291" type="curve" smooth="yes"/>
      <point x="36" y="265"/>
      <point x="35" y="244"/>
      <point x="35" y="228" type="curve"/>
      <point x="45" y="154"/>
      <point x="102" y="51"/>
      <point x="164" y="0" type="curve"/>
      <point x="211" y="-3"/>
      <point x="267" y="-5"/>
    </contour>
    <contour>
      <point x="416" y="0" type="line"/>
      <point x="465" y="0" type="line"/>
      <point x="465" y="96" type="line"/>
      <point x="355" y="83" type="line"/>
    </contour>
    <component base="_part.barra" xOffset="272"/>
  </outline>
</glyph>
<glyph name="V" format="2">
  <advance width="553"/>
  <unicode hex="0056"/>
  <outline>
    <contour>
      <point x="254" y="0" type="curve"/>
      <point x="349" y="0" type="line"/>
      <point x="379" y="163"/>
      <point x="453" y="443"/>
      <point x="533" y="700" type="curve"/>
      <point x="412" y="700" type="line"/>
      <point x="391" y="550"/>
      <point x="328" y="270"/>
    </contour>
    <contour>
      <point x="204" y="0" type="curve"/>
      <point x="297" y="0" type="line"/>
      <point x="222" y="296"/>
      <point x="161" y="576"/>
      <point x="144" y="700" type="curve"/>
      <point x="20" y="700" type="line"/>
      <point x="101" y="443"/>
      <point x="174" y="163"/>
    </contour>
  </outline>
</glyph>
<glyph name="W" format="2">
  <advance width="743"/>
  <unicode hex="0057"/>
  <guideline x="239" y="-100" angle="90"/>
  <anchor x="416" y="0" name="bottom"/>
  <anchor x="416" y="700" name="top"/>
  <outline>
    <contour>
      <point x="194" y="0" type="curve"/>
      <point x="292" y="0" type="line"/>
      <point x="216" y="323"/>
      <point x="157" y="603"/>
      <point x="144" y="700" type="curve"/>
      <point x="20" y="700" type="line"/>
      <point x="95" y="443"/>
      <point x="165" y="163"/>
    </contour>
    <contour>
      <point x="224" y="0" type="curve"/>
      <point x="307" y="0" type="line"/>
      <point x="356" y="273"/>
      <point x="422" y="553"/>
      <point x="465" y="700" type="curve"/>
      <point x="355" y="700" type="line"/>
      <point x="328" y="492"/>
      <point x="274" y="212"/>
    </contour>
    <contour>
      <point x="437" y="0" type="curve"/>
      <point x="520" y="0" type="line"/>
      <point x="460" y="256"/>
      <point x="412" y="481"/>
      <point x="401" y="561" type="curve"/>
      <point x="357" y="415" type="line"/>
      <point x="376" y="326"/>
      <point x="408" y="160"/>
    </contour>
    <contour>
      <point x="455" y="0" type="curve"/>
      <point x="549" y="0" type="line"/>
      <point x="578" y="163"/>
      <point x="648" y="443"/>
      <point x="723" y="700" type="curve"/>
      <point x="603" y="700" type="line"/>
      <point x="590" y="603"/>
      <point x="531" y="323"/>
    </contour>
  </outline>
</glyph>
<glyph name="X" format="2">
  <advance width="584"/>
  <unicode hex="0058"/>
  <anchor x="290" y="0" name="bottom"/>
  <anchor x="290" y="700" name="top"/>
  <outline>
    <contour>
      <point x="431" y="0" type="line"/>
      <point x="559" y="0" type="line"/>
      <point x="320" y="400" type="line"/>
      <point x="154" y="700" type="line"/>
      <point x="25" y="700" type="line"/>
      <point x="279" y="305" type="line"/>
    </contour>
    <contour>
      <point x="25" y="0" type="line"/>
      <point x="153" y="0" type="line"/>
      <point x="291" y="295" type="line"/>
      <point x="258" y="390" type="line"/>
    </contour>
    <contour>
      <point x="311" y="315" type="line"/>
      <point x="559" y="700" type="line"/>
      <point x="430" y="700" type="line"/>
      <point x="278" y="410" type="line"/>
    </contour>
  </outline>
</glyph>
<glyph name="Y" format="2">
  <advance width="512"/>
  <unicode hex="0059"/>
  <anchor x="254" y="0" name="bottom"/>
  <anchor x="254" y="700" name="top"/>
  <anchor x="-22" y="700" name="topleft"/>
  <outline>
    <contour>
      <point x="229" y="211" type="curve"/>
      <point x="287" y="210" type="line"/>
      <point x="328" y="341"/>
      <point x="410" y="537"/>
      <point x="492" y="700" type="curve"/>
      <point x="369" y="700" type="line"/>
      <point x="341" y="597"/>
      <point x="292" y="442"/>
      <point x="247" y="313" type="curve"/>
      <point x="271" y="313" type="line"/>
      <point x="280" y="294"/>
      <point x="231" y="449"/>
      <point x="149" y="700" type="curve"/>
      <point x="20" y="700" type="line"/>
      <point x="113" y="507"/>
      <point x="196" y="311"/>
    </contour>
    <contour>
      <point x="205" y="0" type="curve"/>
      <point x="312" y="0" type="line"/>
      <point x="308" y="104"/>
      <point x="305" y="201"/>
      <point x="304" y="295" type="curve"/>
      <point x="212" y="295" type="line"/>
      <point x="211" y="204"/>
      <point x="209" y="108"/>
    </contour>
  </outline>
</glyph>
<glyph name="Z" format="2">
  <advance width="518"/>
  <unicode hex="005A"/>
  <anchor x="264" y="0" name="bottom"/>
  <anchor x="264" y="350" name="center"/>
  <anchor x="264" y="700" name="top"/>
  <outline>
    <contour>
      <point x="32" y="39" type="curve"/>
      <point x="49" y="0" type="line"/>
      <point x="153" y="0" type="line"/>
      <point x="208" y="128"/>
      <point x="251" y="225"/>
      <point x="299" y="322" type="curve" smooth="yes"/>
      <point x="349" y="423"/>
      <point x="404" y="524"/>
      <point x="483" y="659" type="curve"/>
      <point x="482" y="681" type="line"/>
      <point x="391" y="698" type="line"/>
      <point x="344" y="647" type="line"/>
      <point x="303" y="549"/>
      <point x="263" y="461"/>
      <point x="214" y="365" type="curve" smooth="yes"/>
      <point x="166" y="270"/>
      <point x="108" y="167"/>
    </contour>
    <contour>
      <point x="87" y="0" type="line"/>
      <point x="466" y="0" type="line"/>
      <point x="476" y="17"/>
      <point x="484" y="38"/>
      <point x="488" y="65" type="curve"/>
      <point x="474" y="92" type="line"/>
      <point x="87" y="87" type="line"/>
    </contour>
    <contour>
      <point x="52" y="608" type="curve"/>
      <point x="457" y="618" type="line"/>
      <point x="391" y="698" type="line"/>
      <point x="44" y="700" type="line"/>
      <point x="30" y="673" type="line"/>
      <point x="34" y="646"/>
      <point x="42" y="625"/>
    </contour>
  </outline>
</glyph>
<glyph name="bracketleft" format="2">
  <advance width="298"/>
  <unicode hex="005B"/>
  <outline>
    <contour>
      <point x="243" y="0" type="line"/>
      <point x="258" y="23" type="line"/>
      <point x="258" y="99" type="line"/>
      <point x="144" y="83" type="line"/>
      <point x="127" y="83" type="line"/>
      <point x="127" y="613" type="line"/>
      <point x="144" y="613" type="line"/>
      <point x="248" y="600" type="line"/>
      <point x="264" y="700" type="line"/>
      <point x="37" y="700" type="line"/>
      <point x="37" y="23" type="line"/>
      <point x="57" y="0" type="line"/>
    </contour>
  </outline>
</glyph>
<glyph name="backslash" format="2">
  <advance width="431"/>
  <unicode hex="005C"/>
  <outline>
    <contour>
      <point x="273" y="0" type="curve"/>
      <point x="396" y="0" type="line"/>
      <point x="336" y="150"/>
      <point x="294" y="260"/>
      <point x="255" y="375" type="curve" smooth="yes"/>
      <point x="223" y="471"/>
      <point x="192" y="570"/>
      <point x="154" y="700" type="curve"/>
      <point x="35" y="700" type="line"/>
      <point x="94" y="568"/>
      <point x="138" y="455"/>
      <point x="175" y="346" type="curve" smooth="yes"/>
      <point x="213" y="232"/>
      <point x="242" y="122"/>
    </contour>
  </outline>
</glyph>
<glyph name="bracketright" format="2">
  <advance width="301"/>
  <unicode hex="005D"/>
  <outline>
    <contour>
      <point x="55" y="0" type="line"/>
      <point x="241" y="0" type="line"/>
      <point x="261" y="23" type="line"/>
      <point x="261" y="700" type="line"/>
      <point x="34" y="700" type="line"/>
      <point x="50" y="600" type="line"/>
      <point x="154" y="613" type="line"/>
      <point x="171" y="613" type="line"/>
      <point x="171" y="83" type="line"/>
      <point x="154" y="83" type="line"/>
      <point x="40" y="99" type="line"/>
      <point x="40" y="23" type="line"/>
    </contour>
  </outline>
</glyph>
<glyph name="asciicircum" format="2">
  <advance width="440"/>
  <unicode hex="005E"/>
  <outline>
    <contour>
      <point x="295" y="417" type="curve"/>
      <point x="390" y="443" type="line"/>
      <point x="368" y="533"/>
      <point x="322" y="637"/>
      <point x="277" y="700" type="curve"/>
      <point x="173" y="700" type="line"/>
      <point x="226" y="609"/>
      <point x="255" y="541"/>
    </contour>
    <contour>
      <point x="50" y="443" type="curve"/>
      <point x="145" y="415" type="line"/>
      <point x="185" y="539"/>
      <point x="211" y="609"/>
      <point x="257" y="700" type="curve"/>
      <point x="163" y="700" type="line"/>
      <point x="125" y="647"/>
      <point x="79" y="543"/>
    </contour>
  </outline>
</glyph>
<glyph name="underscore" format="2">
  <advance width="462"/>
  <unicode hex="005F"/>
  <outline>
    <contour>
      <point x="21" y="-25" type="curve"/>
      <point x="230" y="-20" type="line"/>
      <point x="409" y="-25" type="line"/>
      <point x="422" y="-1"/>
      <point x="434" y="23"/>
      <point x="442" y="51" type="curve"/>
      <point x="434" y="67" type="line"/>
      <point x="63" y="64" type="line"/>
      <point x="48" y="52"/>
      <point x="29" y="27"/>
      <point x="22" y="11" type="curve"/>
      <point x="19" y="-1"/>
      <point x="20" y="-14"/>
    </contour>
  </outline>
</glyph>
<glyph name="a" format="2">
  <advance width="422"/>
  <unicode hex="0061"/>
  <anchor x="166" y="0" name="bottom"/>
  <anchor x="319" y="0" name="ogonek"/>
  <anchor x="256" y="470" name="top"/>
  <outline>
    <contour>
      <point x="136" y="0" type="curve"/>
      <point x="214" y="0" type="line"/>
      <point x="242" y="33"/>
      <point x="274" y="90"/>
      <point x="298" y="157" type="curve"/>
      <point x="331" y="273" type="line"/>
      <point x="298" y="273" type="line"/>
      <point x="253" y="184"/>
      <point x="205" y="111"/>
      <point x="149" y="64" type="curve"/>
      <point x="203" y="53" type="line"/>
      <point x="113" y="124" type="line"/>
      <point x="123" y="201"/>
      <point x="153" y="326"/>
      <point x="193" y="383" type="curve"/>
      <point x="229" y="393"/>
      <point x="296" y="393"/>
      <point x="334" y="383" type="curve"/>
      <point x="377" y="470" type="line"/>
      <point x="339" y="472"/>
      <point x="292" y="473"/>
      <point x="267" y="473" type="curve" smooth="yes"/>
      <point x="235" y="473"/>
      <point x="202" y="471"/>
      <point x="174" y="467" type="curve"/>
      <point x="112" y="421" type="line"/>
      <point x="72" y="338"/>
      <point x="40" y="229"/>
      <point x="20" y="102" type="curve"/>
      <point x="51" y="64"/>
      <point x="98" y="23"/>
    </contour>
    <contour>
      <point x="279" y="0" type="curve"/>
      <point x="382" y="0" type="line"/>
      <point x="374" y="110"/>
      <point x="373" y="176"/>
      <point x="373" y="230" type="curve" smooth="yes"/>
      <point x="373" y="283"/>
      <point x="374" y="377"/>
      <point x="377" y="470" type="curve"/>
      <point x="284" y="470" type="line"/>
      <point x="287" y="377"/>
      <point x="288" y="283"/>
      <point x="288" y="230" type="curve" smooth="yes"/>
      <point x="288" y="176"/>
      <point x="287" y="110"/>
    </contour>
  </outline>
</glyph>
<glyph name="c" format="2">
  <advance width="352"/>
  <unicode hex="0063"/>
  <anchor x="193" y="0" name="bottom"/>
  <anchor x="213" y="470" name="top"/>
  <outline>
    <contour>
      <point x="193" y="-10" type="curve" smooth="yes"/>
      <point x="228" y="-10"/>
      <point x="257" y="0"/>
      <point x="280" y="5" type="curve"/>
      <point x="300" y="22"/>
      <point x="323" y="41"/>
      <point x="332" y="70" type="curve"/>
      <point x="332" y="168" type="line"/>
      <point x="247" y="138" type="line"/>
      <point x="247" y="38" type="line"/>
      <point x="282" y="93" type="line"/>
      <point x="245" y="82"/>
      <point x="222" y="75"/>
      <point x="193" y="75" type="curve" smooth="yes"/>
      <point x="164" y="75"/>
      <point x="131" y="84"/>
      <point x="107" y="106" type="curve"/>
      <point x="152" y="63" type="line"/>
      <point x="127" y="102"/>
      <point x="116" y="138"/>
      <point x="107" y="202" type="curve"/>
      <point x="122" y="289"/>
      <point x="150" y="375"/>
      <point x="185" y="416" type="curve"/>
      <point x="138" y="385" type="line"/>
      <point x="162" y="395"/>
      <point x="179" y="400"/>
      <point x="202" y="400" type="curve" smooth="yes"/>
      <point x="219" y="400"/>
      <point x="239" y="397"/>
      <point x="289" y="376" type="curve"/>
      <point x="236" y="440" type="line"/>
      <point x="236" y="319" type="line"/>
      <point x="317" y="347" type="line"/>
      <point x="317" y="465" type="line"/>
      <point x="287" y="474"/>
      <point x="246" y="480"/>
      <point x="213" y="480" type="curve" smooth="yes"/>
      <point x="186" y="480"/>
      <point x="148" y="474"/>
      <point x="119" y="464" type="curve"/>
      <point x="59" y="397"/>
      <point x="41" y="324"/>
      <point x="20" y="202" type="curve"/>
      <point x="22" y="130"/>
      <point x="33" y="85"/>
      <point x="80" y="15" type="curve"/>
      <point x="114" y="1"/>
      <point x="156" y="-10"/>
    </contour>
  </outline>
</glyph>
<glyph name="e" format="2">
  <advance width="390"/>
  <unicode hex="0065"/>
  <guideline x="207" y="75" angle="0"/>
  <anchor x="207" y="0" name="bottom"/>
  <anchor x="236" y="10" name="ogonek"/>
  <anchor x="210" y="470" name="top"/>
  <outline>
    <contour>
      <point x="207" y="-10" type="curve" smooth="yes"/>
      <point x="238" y="-10"/>
      <point x="273" y="-3"/>
      <point x="314" y="18" type="curve"/>
      <point x="340" y="55"/>
      <point x="355" y="109"/>
      <point x="356" y="165" type="curve"/>
      <point x="269" y="147" type="line"/>
      <point x="269" y="110"/>
      <point x="253" y="75"/>
      <point x="240" y="65" type="curve"/>
      <point x="286" y="92" type="line"/>
      <point x="252" y="78"/>
      <point x="235" y="75"/>
      <point x="207" y="75" type="curve" smooth="yes"/>
      <point x="178" y="75"/>
      <point x="157" y="78"/>
      <point x="127" y="91" type="curve"/>
      <point x="174" y="63" type="line"/>
      <point x="140" y="93"/>
      <point x="113" y="150"/>
      <point x="113" y="225" type="curve" smooth="yes"/>
      <point x="113" y="292"/>
      <point x="133" y="356"/>
      <point x="178" y="412" type="curve"/>
      <point x="207" y="406"/>
      <point x="237" y="396"/>
      <point x="262" y="384" type="curve"/>
      <point x="270" y="371"/>
      <point x="277" y="355"/>
      <point x="282" y="336" type="curve"/>
      <point x="279" y="317"/>
      <point x="273" y="301"/>
      <point x="262" y="284" type="curve"/>
      <point x="230" y="280"/>
      <point x="198" y="278"/>
      <point x="166" y="278" type="curve" smooth="yes"/>
      <point x="137" y="278"/>
      <point x="107" y="280"/>
      <point x="78" y="284" type="curve"/>
      <point x="80" y="205" type="line"/>
      <point x="111" y="200"/>
      <point x="141" y="198"/>
      <point x="171" y="198" type="curve" smooth="yes"/>
      <point x="211" y="198"/>
      <point x="251" y="202"/>
      <point x="295" y="210" type="curve"/>
      <point x="328" y="238"/>
      <point x="357" y="276"/>
      <point x="370" y="324" type="curve"/>
      <point x="365" y="365"/>
      <point x="358" y="404"/>
      <point x="340" y="435" type="curve"/>
      <point x="303" y="457"/>
      <point x="224" y="483"/>
      <point x="169" y="490" type="curve"/>
      <point x="99" y="455" type="line"/>
      <point x="48" y="372"/>
      <point x="30" y="306"/>
      <point x="20" y="225" type="curve"/>
      <point x="30" y="135"/>
      <point x="58" y="53"/>
      <point x="112" y="8" type="curve"/>
      <point x="137" y="-3"/>
      <point x="175" y="-10"/>
    </contour>
  </outline>
</glyph>
<glyph name="f" format="2">
  <advance width="354"/>
  <unicode hex="0066"/>
  <outline>
    <contour>
      <point x="98" y="0" type="curve"/>
      <point x="202" y="0" type="line"/>
      <point x="196" y="85"/>
      <point x="191" y="171"/>
      <point x="191" y="261" type="curve" smooth="yes"/>
      <point x="191" y="301"/>
      <point x="194" y="473"/>
      <point x="202" y="554" type="curve"/>
      <point x="237" y="562"/>
      <point x="272" y="566"/>
      <point x="315" y="566" type="curve"/>
      <point x="343" y="583" type="line"/>
      <point x="344" y="670" type="line"/>
      <point x="247" y="657"/>
      <point x="211" y="644"/>
      <point x="135" y="622" type="curve"/>
      <point x="108" y="506"/>
      <point x="97" y="264"/>
      <point x="97" y="95" type="curve" smooth="yes"/>
      <point x="97" y="60"/>
      <point x="97" y="28"/>
    </contour>
    <contour>
      <point x="27" y="379" type="curve"/>
      <point x="111" y="391" type="line"/>
      <point x="184" y="391" type="line"/>
      <point x="301" y="379" type="line"/>
      <point x="331" y="399" type="line"/>
      <point x="330" y="426"/>
      <point x="326" y="449"/>
      <point x="321" y="470" type="curve"/>
      <point x="33" y="470" type="line"/>
      <point x="24" y="450"/>
      <point x="18" y="429"/>
      <point x="15" y="409" type="curve"/>
      <point x="18" y="398"/>
      <point x="22" y="388"/>
    </contour>
  </outline>
</glyph>
<glyph name="g" format="2">
  <advance width="434"/>
  <unicode hex="0067"/>
  <anchor x="217" y="-200" name="bottom"/>
  <anchor x="257" y="470" name="top"/>
  <outline>
    <contour>
      <point x="175" y="-235" type="curve"/>
      <point x="223" y="-228"/>
      <point x="265" y="-210"/>
      <point x="308" y="-160" type="curve" smooth="yes"/>
      <point x="351" y="-110"/>
      <point x="380" y="-56"/>
      <point x="380" y="20" type="curve"/>
      <point x="335" y="19" type="line"/>
      <point x="296" y="0" type="line"/>
      <point x="290" y="-20"/>
      <point x="278" y="-54"/>
      <point x="255" y="-84" type="curve" smooth="yes"/>
      <point x="229" y="-118"/>
      <point x="204" y="-150"/>
      <point x="163" y="-150" type="curve" smooth="yes"/>
      <point x="144" y="-150"/>
      <point x="122" y="-147"/>
      <point x="98" y="-142" type="curve"/>
      <point x="98" y="-212" type="line"/>
      <point x="118" y="-222"/>
      <point x="132" y="-228"/>
    </contour>
    <contour>
      <point x="98" y="-212" type="line"/>
      <point x="142" y="-176" type="line"/>
      <point x="142" y="-52" type="line"/>
      <point x="54" y="-32" type="line"/>
      <point x="50" y="-141" type="line"/>
    </contour>
    <contour>
      <point x="296" y="0" type="curve"/>
      <point x="380" y="20" type="line"/>
      <point x="382" y="166"/>
      <point x="389" y="318"/>
      <point x="394" y="470" type="curve"/>
      <point x="299" y="470" type="line"/>
      <point x="300" y="431"/>
      <point x="300" y="386"/>
      <point x="300" y="340" type="curve" smooth="yes"/>
      <point x="300" y="220"/>
      <point x="298" y="86"/>
    </contour>
    <component base="_part.arcoq"/>
  </outline>
</glyph>
<glyph name="j" format="2">
  <advance width="192"/>
  <unicode hex="006A"/>
  <outline>
    <contour>
      <point x="-65" y="-146" type="curve"/>
      <point x="20" y="-200" type="line"/>
      <point x="73" y="-150"/>
      <point x="123" y="-59"/>
      <point x="151" y="20" type="curve"/>
      <point x="148" y="130"/>
      <point x="147" y="176"/>
      <point x="147" y="230" type="curve" smooth="yes"/>
      <point x="147" y="283"/>
      <point x="148" y="377"/>
      <point x="151" y="470" type="curve"/>
      <point x="58" y="470" type="line"/>
      <point x="61" y="377"/>
      <point x="62" y="283"/>
      <point x="62" y="230" type="curve" smooth="yes"/>
      <point x="62" y="166"/>
      <point x="61" y="100"/>
      <point x="57" y="0" type="curve"/>
      <point x="29" y="-44"/>
      <point x="-21" y="-109"/>
    </contour>
    <component base="uni0307" xOffset="12"/>
  </outline>
</glyph>
<glyph name="k" format="2">
  <advance width="408"/>
  <unicode hex="006B"/>
  <anchor x="200" y="0" name="bottom"/>
  <anchor x="217" y="700" name="top"/>
  <outline>
    <contour>
      <point x="62" y="255" type="curve"/>
      <point x="80" y="158" type="line"/>
      <point x="123" y="167"/>
      <point x="235" y="199"/>
      <point x="299" y="276" type="curve" smooth="yes"/>
      <point x="354" y="343"/>
      <point x="371" y="392"/>
      <point x="383" y="450" type="curve"/>
      <point x="287" y="484" type="line"/>
      <point x="269" y="407"/>
      <point x="254" y="357"/>
      <point x="217" y="296" type="curve"/>
      <point x="176" y="277"/>
      <point x="114" y="260"/>
    </contour>
    <contour>
      <point x="312" y="-12" type="curve"/>
      <point x="376" y="66" type="line"/>
      <point x="333" y="93"/>
      <point x="300" y="120"/>
      <point x="272" y="151" type="curve" smooth="yes"/>
      <point x="242" y="185"/>
      <point x="223" y="218"/>
      <point x="214" y="260" type="curve"/>
      <point x="154" y="234" type="line"/>
      <point x="166" y="181"/>
      <point x="187" y="133"/>
      <point x="219" y="90" type="curve" smooth="yes"/>
      <point x="245" y="53"/>
      <point x="276" y="19"/>
    </contour>
    <component base="_part.barramin"/>
  </outline>
</glyph>
<glyph name="l" format="2">
  <advance width="245"/>
  <unicode hex="006C"/>
  <anchor x="123" y="0" name="bottom"/>
  <anchor x="123" y="400" name="center"/>
  <anchor x="89" y="730" name="top"/>
  <anchor x="190" y="570" name="topright"/>
  <outline>
    <contour>
      <point x="145" y="-10" type="curve" smooth="yes"/>
      <point x="176" y="-10"/>
      <point x="213" y="4"/>
      <point x="240" y="34" type="curve"/>
      <point x="190" y="109" type="line"/>
      <point x="176" y="93"/>
      <point x="161" y="81"/>
      <point x="145" y="74" type="curve"/>
      <point x="98" y="114" type="line"/>
      <point x="133" y="50" type="line"/>
      <point x="132" y="82"/>
      <point x="130" y="225"/>
      <point x="130" y="260" type="curve" smooth="yes"/>
      <point x="130" y="394"/>
      <point x="132" y="602"/>
      <point x="137" y="730" type="curve"/>
      <point x="41" y="730" type="line"/>
      <point x="43" y="592"/>
      <point x="44" y="438"/>
      <point x="45" y="347" type="curve" smooth="yes"/>
      <point x="46" y="278"/>
      <point x="43" y="137"/>
      <point x="40" y="67" type="curve"/>
      <point x="58" y="38"/>
      <point x="123" y="-10"/>
    </contour>
  </outline>
</glyph>
<glyph name="m" format="2">
  <advance width="670"/>
  <unicode hex="006D"/>
  <anchor x="363" y="0" name="bottom"/>
  <anchor x="363" y="470" name="top"/>
  <outline>
    <contour>
      <point x="528" y="0" type="curve"/>
      <point x="630" y="0" type="line"/>
      <point x="625" y="58"/>
      <point x="623" y="131"/>
      <point x="623" y="186" type="curve" smooth="yes"/>
      <point x="623" y="252"/>
      <point x="625" y="321"/>
      <point x="625" y="400" type="curve"/>
      <point x="530" y="480" type="line"/>
      <point x="448" y="470" type="line"/>
      <point x="393" y="389"/>
      <point x="378" y="321"/>
      <point x="329" y="188" type="curve"/>
      <point x="383" y="47" type="line"/>
      <point x="379" y="119"/>
      <point x="381" y="154"/>
      <point x="385" y="192" type="curve"/>
      <point x="406" y="268"/>
      <point x="444" y="338"/>
      <point x="485" y="384" type="curve"/>
      <point x="506" y="376"/>
      <point x="516" y="370"/>
      <point x="531" y="355" type="curve"/>
      <point x="535" y="320"/>
      <point x="536" y="277"/>
      <point x="536" y="233" type="curve" smooth="yes"/>
      <point x="536" y="144"/>
      <point x="531" y="51"/>
    </contour>
    <contour>
      <point x="284" y="0" type="curve"/>
      <point x="386" y="0" type="line"/>
      <point x="381" y="58"/>
      <point x="379" y="131"/>
      <point x="379" y="186" type="curve" smooth="yes"/>
      <point x="379" y="252"/>
      <point x="381" y="331"/>
      <point x="381" y="410" type="curve"/>
      <point x="286" y="480" type="line"/>
      <point x="204" y="470" type="line"/>
      <point x="164" y="411"/>
      <point x="145" y="359"/>
      <point x="119" y="283" type="curve"/>
      <point x="85" y="188" type="line"/>
      <point x="139" y="47" type="line"/>
      <point x="135" y="119"/>
      <point x="137" y="154"/>
      <point x="141" y="192" type="curve"/>
      <point x="162" y="268"/>
      <point x="200" y="338"/>
      <point x="241" y="384" type="curve"/>
      <point x="262" y="376"/>
      <point x="272" y="370"/>
      <point x="287" y="355" type="curve"/>
      <point x="291" y="320"/>
      <point x="292" y="277"/>
      <point x="292" y="233" type="curve" smooth="yes"/>
      <point x="292" y="144"/>
      <point x="287" y="51"/>
    </contour>
    <component base="_part.barrai"/>
  </outline>
</glyph>
<glyph name="o" format="2">
  <advance width="399"/>
  <unicode hex="006F"/>
  <guideline x="108" y="208" angle="0"/>
  <anchor x="205" y="0" name="bottom"/>
  <anchor x="455" y="123" name="center"/>
  <anchor x="226" y="10" name="ogonek"/>
  <anchor x="205" y="470" name="top"/>
  <anchor x="304" y="470" name="topright"/>
  <outline>
    <contour>
      <point x="204" y="-10" type="curve" smooth="yes"/>
      <point x="234" y="-10"/>
      <point x="265" y="-3"/>
      <point x="299" y="10" type="curve"/>
      <point x="333" y="56"/>
      <point x="369" y="118"/>
      <point x="379" y="187" type="curve"/>
      <point x="371" y="278"/>
      <point x="335" y="404"/>
      <point x="299" y="465" type="curve"/>
      <point x="272" y="475"/>
      <point x="234" y="480"/>
      <point x="204" y="480" type="curve" smooth="yes"/>
      <point x="174" y="480"/>
      <point x="132" y="475"/>
      <point x="99" y="465" type="curve"/>
      <point x="48" y="382"/>
      <point x="25" y="271"/>
      <point x="20" y="187" type="curve"/>
      <point x="31" y="119"/>
      <point x="62" y="45"/>
      <point x="99" y="8" type="curve"/>
      <point x="134" y="-3"/>
      <point x="169" y="-10"/>
    </contour>
    <contour>
      <point x="204" y="75" type="curve" smooth="yes"/>
      <point x="186" y="75"/>
      <point x="172" y="78"/>
      <point x="155" y="84" type="curve"/>
      <point x="130" y="109"/>
      <point x="112" y="159"/>
      <point x="110" y="208" type="curve"/>
      <point x="120" y="274"/>
      <point x="134" y="340"/>
      <point x="168" y="395" type="curve"/>
      <point x="178" y="397"/>
      <point x="190" y="398"/>
      <point x="203" y="398" type="curve" smooth="yes"/>
      <point x="217" y="398"/>
      <point x="226" y="397"/>
      <point x="236" y="395" type="curve"/>
      <point x="257" y="354"/>
      <point x="278" y="272"/>
      <point x="288" y="208" type="curve"/>
      <point x="279" y="149"/>
      <point x="261" y="106"/>
      <point x="244" y="84" type="curve"/>
      <point x="228" y="78"/>
      <point x="218" y="75"/>
    </contour>
  </outline>
</glyph>
<glyph name="r" format="2">
  <advance width="328"/>
  <unicode hex="0072"/>
  <anchor x="93" y="0" name="bottom"/>
  <anchor x="177" y="470" name="top"/>
  <outline>
    <contour>
      <point x="76" y="238" type="curve"/>
      <point x="133" y="202" type="line"/>
      <point x="148" y="273"/>
      <point x="188" y="354"/>
      <point x="224" y="385" type="curve"/>
      <point x="247" y="380"/>
      <point x="280" y="365"/>
      <point x="298" y="351" type="curve"/>
      <point x="318" y="450" type="line"/>
      <point x="286" y="470"/>
      <point x="251" y="482"/>
      <point x="207" y="488" type="curve"/>
      <point x="164" y="440"/>
      <point x="93" y="311"/>
    </contour>
    <component base="_part.barrai"/>
  </outline>
</glyph>
<glyph name="s" format="2">
  <advance width="371"/>
  <unicode hex="0073"/>
  <anchor x="179" y="0" name="bottom"/>
  <anchor x="189" y="470" name="top"/>
  <outline>
    <contour>
      <point x="179" y="-10" type="curve" smooth="yes"/>
      <point x="222" y="-10"/>
      <point x="278" y="6"/>
      <point x="303" y="25" type="curve"/>
      <point x="324" y="67"/>
      <point x="335" y="92"/>
      <point x="346" y="151" type="curve"/>
      <point x="335" y="197"/>
      <point x="321" y="226"/>
      <point x="300" y="256" type="curve"/>
      <point x="232" y="269"/>
      <point x="144" y="292"/>
      <point x="82" y="315" type="curve"/>
      <point x="159" y="264" type="line"/>
      <point x="134" y="298"/>
      <point x="123" y="301"/>
      <point x="117" y="322" type="curve"/>
      <point x="129" y="364"/>
      <point x="148" y="399"/>
      <point x="178" y="431" type="curve"/>
      <point x="135" y="408" type="line"/>
      <point x="175" y="411"/>
      <point x="238" y="389"/>
      <point x="265" y="354" type="curve"/>
      <point x="244" y="419" type="line"/>
      <point x="244" y="324" type="line"/>
      <point x="325" y="352" type="line"/>
      <point x="327" y="424" type="line"/>
      <point x="280" y="454"/>
      <point x="236" y="477"/>
      <point x="197" y="489" type="curve"/>
      <point x="167" y="486"/>
      <point x="113" y="471"/>
      <point x="94" y="465" type="curve"/>
      <point x="65" y="428"/>
      <point x="34" y="362"/>
      <point x="28" y="312" type="curve"/>
      <point x="38" y="279"/>
      <point x="59" y="250"/>
      <point x="93" y="219" type="curve"/>
      <point x="164" y="208"/>
      <point x="223" y="192"/>
      <point x="279" y="169" type="curve"/>
      <point x="239" y="221" type="line"/>
      <point x="258" y="144" type="line"/>
      <point x="231" y="47" type="line"/>
      <point x="279" y="94" type="line"/>
      <point x="254" y="83"/>
      <point x="214" y="75"/>
      <point x="179" y="75" type="curve" smooth="yes"/>
      <point x="140" y="75"/>
      <point x="98" y="86"/>
      <point x="75" y="103" type="curve"/>
      <point x="110" y="45" type="line"/>
      <point x="112" y="146" type="line"/>
      <point x="32" y="166" type="line"/>
      <point x="28" y="150"/>
      <point x="25" y="122"/>
      <point x="25" y="94" type="curve" smooth="yes"/>
      <point x="25" y="70"/>
      <point x="32" y="47"/>
      <point x="45" y="25" type="curve"/>
      <point x="75" y="7"/>
      <point x="128" y="-10"/>
    </contour>
  </outline>
</glyph>
<glyph name="t" format="2">
  <advance width="382"/>
  <unicode hex="0074"/>
  <anchor x="205" y="-10" name="bottom"/>
  <anchor x="196" y="245" name="center"/>
  <anchor x="156" y="570" name="top"/>
  <anchor x="277" y="530" name="topright"/>
  <outline>
    <contour>
      <point x="235" y="-10" type="curve" smooth="yes"/>
      <point x="246" y="-10"/>
      <point x="262" y="-4"/>
      <point x="275" y="2" type="curve" smooth="yes"/>
      <point x="306" y="17"/>
      <point x="337" y="45"/>
      <point x="367" y="80" type="curve"/>
      <point x="303" y="131" type="line"/>
      <point x="271" y="87"/>
      <point x="257" y="74"/>
      <point x="235" y="74" type="curve" smooth="yes"/>
      <point x="208" y="74"/>
      <point x="179" y="111"/>
      <point x="163" y="138" type="curve"/>
      <point x="196" y="58" type="line"/>
      <point x="190" y="119"/>
      <point x="190" y="174"/>
      <point x="190" y="210" type="curve" smooth="yes"/>
      <point x="190" y="344"/>
      <point x="192" y="442"/>
      <point x="197" y="570" type="curve"/>
      <point x="102" y="570" type="line"/>
      <point x="104" y="432"/>
      <point x="105" y="388"/>
      <point x="106" y="297" type="curve" smooth="yes"/>
      <point x="106" y="228"/>
      <point x="104" y="137"/>
      <point x="101" y="67" type="curve"/>
      <point x="118" y="39"/>
      <point x="144" y="15"/>
      <point x="179" y="2" type="curve" smooth="yes"/>
      <point x="196" y="-4"/>
      <point x="224" y="-10"/>
    </contour>
    <contour>
      <point x="27" y="379" type="curve"/>
      <point x="111" y="391" type="line"/>
      <point x="184" y="391" type="line"/>
      <point x="321" y="379" type="line"/>
      <point x="351" y="399" type="line"/>
      <point x="350" y="426"/>
      <point x="346" y="449"/>
      <point x="341" y="470" type="curve"/>
      <point x="33" y="470" type="line"/>
      <point x="24" y="450"/>
      <point x="18" y="429"/>
      <point x="15" y="409" type="curve"/>
      <point x="17" y="399"/>
      <point x="21" y="389"/>
    </contour>
  </outline>
</glyph>
<glyph name="u" format="2">
  <advance width="437"/>
  <unicode hex="0075"/>
  <anchor x="203" y="0" name="bottom"/>
  <anchor x="333" y="0" name="ogonek"/>
  <anchor x="223" y="470" name="top"/>
  <anchor x="419" y="470" name="topright"/>
  <outline>
    <contour>
      <point x="45" y="70" type="curve"/>
      <point x="150" y="-10" type="line"/>
      <point x="239" y="0" type="line"/>
      <point x="266" y="52"/>
      <point x="302" y="149"/>
      <point x="316" y="208" type="curve"/>
      <point x="316" y="413" type="line"/>
      <point x="300" y="413" type="line"/>
      <point x="301" y="359"/>
      <point x="297" y="341"/>
      <point x="292" y="305" type="curve"/>
      <point x="281" y="250"/>
      <point x="195" y="63"/>
      <point x="164" y="34" type="curve"/>
      <point x="219" y="63" type="line"/>
      <point x="175" y="78"/>
      <point x="160" y="83"/>
      <point x="139" y="105" type="curve"/>
      <point x="128" y="211"/>
      <point x="138" y="404"/>
      <point x="142" y="470" type="curve"/>
      <point x="40" y="470" type="line"/>
      <point x="45" y="402"/>
      <point x="47" y="339"/>
      <point x="47" y="284" type="curve" smooth="yes"/>
      <point x="47" y="218"/>
      <point x="45" y="149"/>
    </contour>
    <component base="_part.barrai" xOffset="254"/>
  </outline>
</glyph>
<glyph name="v" format="2">
  <advance width="434"/>
  <unicode hex="0076"/>
  <guideline x="387" y="500" angle="0"/>
  <anchor x="217" y="0" name="bottom"/>
  <anchor x="217" y="470" name="top"/>
  <outline>
    <contour>
      <point x="169" y="0" type="curve"/>
      <point x="275" y="0" type="line"/>
      <point x="309" y="128"/>
      <point x="367" y="316"/>
      <point x="419" y="470" type="curve"/>
      <point x="316" y="470" type="line"/>
      <point x="278" y="284"/>
      <point x="219" y="96"/>
    </contour>
    <contour>
      <point x="159" y="0" type="curve"/>
      <point x="265" y="0" type="line"/>
      <point x="215" y="96"/>
      <point x="156" y="284"/>
      <point x="118" y="470" type="curve"/>
      <point x="15" y="470" type="line"/>
      <point x="67" y="316"/>
      <point x="125" y="128"/>
    </contour>
  </outline>
</glyph>
<glyph name="w" format="2">
  <advance width="594"/>
  <unicode hex="0077"/>
  <anchor x="383" y="0" name="bottom"/>
  <anchor x="334" y="470" name="top"/>
  <outline>
    <contour>
      <point x="324" y="0" type="curve"/>
      <point x="440" y="0" type="line"/>
      <point x="476" y="155"/>
      <point x="512" y="303"/>
      <point x="579" y="470" type="curve"/>
      <point x="476" y="470" type="line"/>
      <point x="439" y="338"/>
      <point x="401" y="167"/>
    </contour>
    <contour>
      <point x="144" y="0" type="curve"/>
      <point x="260" y="0" type="line"/>
      <point x="183" y="167"/>
      <point x="145" y="338"/>
      <point x="118" y="470" type="curve"/>
      <point x="15" y="470" type="line"/>
      <point x="72" y="303"/>
      <point x="108" y="155"/>
    </contour>
    <contour>
      <point x="144" y="0" type="curve"/>
      <point x="260" y="0" type="line"/>
      <point x="265" y="82"/>
      <point x="277" y="131"/>
      <point x="290" y="184" type="curve"/>
      <point x="310" y="216" type="line"/>
      <point x="322" y="253"/>
      <point x="351" y="400"/>
      <point x="361" y="470" type="curve"/>
      <point x="263" y="470" type="line"/>
      <point x="244" y="338"/>
      <point x="231" y="167"/>
    </contour>
    <contour>
      <point x="324" y="0" type="curve"/>
      <point x="404" y="75" type="line"/>
      <point x="369" y="148"/>
      <point x="341" y="250"/>
      <point x="332" y="330" type="curve"/>
      <point x="261" y="271" type="line"/>
      <point x="295" y="177"/>
      <point x="320" y="99"/>
    </contour>
  </outline>
</glyph>
<glyph name="x" format="2">
  <advance width="442"/>
  <unicode hex="0078"/>
  <outline>
    <contour>
      <point x="312" y="0" type="curve"/>
      <point x="432" y="0" type="line"/>
      <point x="397" y="47"/>
      <point x="325" y="154"/>
      <point x="252" y="267" type="curve" smooth="yes"/>
      <point x="207" y="337"/>
      <point x="163" y="418"/>
      <point x="135" y="470" type="curve"/>
      <point x="20" y="470" type="line"/>
      <point x="87" y="377"/>
      <point x="154" y="269"/>
      <point x="194" y="203" type="curve" smooth="yes"/>
      <point x="225" y="152"/>
      <point x="272" y="73"/>
    </contour>
    <contour>
      <point x="10" y="0" type="curve"/>
      <point x="130" y="0" type="line"/>
      <point x="153" y="48"/>
      <point x="191" y="118"/>
      <point x="236" y="193" type="curve"/>
      <point x="256" y="219" type="line"/>
      <point x="307" y="299"/>
      <point x="369" y="397"/>
      <point x="422" y="470" type="curve"/>
      <point x="307" y="470" type="line"/>
      <point x="274" y="411"/>
      <point x="233" y="337"/>
      <point x="199" y="281" type="curve"/>
      <point x="181" y="257" type="line"/>
      <point x="114" y="145"/>
      <point x="46" y="48"/>
    </contour>
  </outline>
</glyph>
<glyph name="y" format="2">
  <advance width="434"/>
  <unicode hex="0079"/>
  <anchor x="209" y="0" name="bottom"/>
  <anchor x="209" y="470" name="top"/>
  <outline>
    <contour>
      <point x="61" y="-279" type="curve"/>
      <point x="166" y="-289" type="line"/>
      <point x="195" y="-193"/>
      <point x="225" y="-96"/>
      <point x="257" y="0" type="curve" smooth="yes"/>
      <point x="309" y="155"/>
      <point x="359" y="313"/>
      <point x="419" y="470" type="curve"/>
      <point x="313" y="470" type="line"/>
      <point x="295" y="395"/>
      <point x="247" y="222"/>
      <point x="205" y="99" type="curve"/>
      <point x="166" y="0" type="line"/>
      <point x="139" y="-89"/>
      <point x="101" y="-190"/>
    </contour>
    <contour>
      <point x="172" y="-50" type="curve"/>
      <point x="229" y="-50" type="line"/>
      <point x="257" y="7" type="line"/>
      <point x="187" y="157"/>
      <point x="146" y="352"/>
      <point x="122" y="470" type="curve"/>
      <point x="15" y="470" type="line"/>
      <point x="72" y="303"/>
      <point x="126" y="105"/>
    </contour>
  </outline>
</glyph>
<glyph name="z" format="2">
  <advance width="398"/>
  <unicode hex="007A"/>
  <anchor x="195" y="0" name="bottom"/>
  <anchor x="220" y="232" name="center"/>
  <anchor x="205" y="470" name="top"/>
  <outline>
    <contour>
      <point x="25" y="39" type="curve"/>
      <point x="48" y="0" type="line"/>
      <point x="129" y="0" type="line"/>
      <point x="165" y="74"/>
      <point x="195" y="138"/>
      <point x="240" y="211" type="curve" smooth="yes"/>
      <point x="282" y="279"/>
      <point x="325" y="354"/>
      <point x="378" y="430" type="curve"/>
      <point x="378" y="449" type="line"/>
      <point x="283" y="470" type="line"/>
      <point x="244" y="398"/>
      <point x="213" y="339"/>
      <point x="163" y="260" type="curve" smooth="yes"/>
      <point x="123" y="196"/>
      <point x="81" y="120"/>
    </contour>
    <contour>
      <point x="98" y="0" type="line"/>
      <point x="156" y="0"/>
      <point x="316" y="0"/>
      <point x="353" y="0" type="curve"/>
      <point x="368" y="66" type="line"/>
      <point x="368" y="86" type="line"/>
      <point x="98" y="64" type="line"/>
    </contour>
    <contour>
      <point x="50" y="379" type="line"/>
      <point x="146" y="391"/>
      <point x="246" y="391"/>
      <point x="293" y="391" type="curve"/>
      <point x="283" y="470" type="line"/>
      <point x="25" y="470" type="line"/>
      <point x="25" y="454" type="line"/>
    </contour>
  </outline>
</glyph>
<glyph name="braceleft" format="2">
  <advance width="326"/>
  <unicode hex="007B"/>
  <outline>
    <contour>
      <point x="140" y="-2" type="curve"/>
      <point x="163" y="-1"/>
      <point x="185" y="0"/>
      <point x="208" y="0" type="curve" smooth="yes"/>
      <point x="231" y="0"/>
      <point x="264" y="-1"/>
      <point x="272" y="-2" type="curve"/>
      <point x="301" y="84" type="line"/>
      <point x="157" y="74" type="line"/>
      <point x="225" y="47" type="line"/>
      <point x="199" y="65"/>
      <point x="181" y="82"/>
      <point x="168" y="116" type="curve"/>
      <point x="177" y="179"/>
      <point x="191" y="223"/>
      <point x="224" y="299" type="curve"/>
      <point x="191" y="315"/>
      <point x="168" y="324"/>
      <point x="132" y="338" type="curve"/>
      <point x="132" y="348" type="line"/>
      <point x="224" y="391" type="line"/>
      <point x="188" y="459"/>
      <point x="171" y="510"/>
      <point x="160" y="580" type="curve"/>
      <point x="227" y="648" type="line"/>
      <point x="152" y="623" type="line"/>
      <point x="272" y="615" type="line"/>
      <point x="301" y="700" type="line"/>
      <point x="171" y="700" type="line"/>
      <point x="158" y="691"/>
      <point x="103" y="636"/>
      <point x="71" y="582" type="curve"/>
      <point x="90" y="496"/>
      <point x="100" y="466"/>
      <point x="121" y="415" type="curve"/>
      <point x="25" y="347" type="line"/>
      <point x="25" y="314" type="line"/>
      <point x="130" y="268" type="line"/>
      <point x="106" y="213"/>
      <point x="89" y="158"/>
      <point x="76" y="87" type="curve"/>
      <point x="103" y="45"/>
      <point x="121" y="18"/>
    </contour>
  </outline>
</glyph>
<glyph name="bar" format="2">
  <advance width="248"/>
  <unicode hex="007C"/>
  <outline>
    <contour>
      <point x="71" y="-90" type="curve"/>
      <point x="177" y="-90" type="line"/>
      <point x="172" y="43"/>
      <point x="169" y="232"/>
      <point x="169" y="330" type="curve" smooth="yes"/>
      <point x="169" y="452"/>
      <point x="172" y="582"/>
      <point x="178" y="700" type="curve"/>
      <point x="70" y="700" type="line"/>
      <point x="76" y="582"/>
      <point x="79" y="452"/>
      <point x="79" y="330" type="curve" smooth="yes"/>
      <point x="79" y="232"/>
      <point x="76" y="43"/>
    </contour>
  </outline>
</glyph>
<glyph name="braceright" format="2">
  <advance width="326"/>
  <unicode hex="007D"/>
  <outline>
    <contour>
      <point x="186" y="-2" type="curve"/>
      <point x="205" y="18"/>
      <point x="223" y="45"/>
      <point x="250" y="87" type="curve"/>
      <point x="237" y="158"/>
      <point x="220" y="213"/>
      <point x="196" y="268" type="curve"/>
      <point x="301" y="314" type="line"/>
      <point x="301" y="347" type="line"/>
      <point x="205" y="415" type="line"/>
      <point x="226" y="466"/>
      <point x="236" y="496"/>
      <point x="255" y="582" type="curve"/>
      <point x="223" y="636"/>
      <point x="168" y="691"/>
      <point x="155" y="700" type="curve"/>
      <point x="25" y="700" type="line"/>
      <point x="54" y="615" type="line"/>
      <point x="174" y="623" type="line"/>
      <point x="99" y="648" type="line"/>
      <point x="166" y="580" type="line"/>
      <point x="155" y="510"/>
      <point x="138" y="459"/>
      <point x="102" y="391" type="curve"/>
      <point x="194" y="348" type="line"/>
      <point x="194" y="338" type="line"/>
      <point x="158" y="324"/>
      <point x="135" y="315"/>
      <point x="102" y="299" type="curve"/>
      <point x="135" y="223"/>
      <point x="149" y="179"/>
      <point x="158" y="116" type="curve"/>
      <point x="145" y="82"/>
      <point x="127" y="65"/>
      <point x="101" y="47" type="curve"/>
      <point x="169" y="74" type="line"/>
      <point x="25" y="84" type="line"/>
      <point x="54" y="-2" type="line"/>
      <point x="62" y="-1"/>
      <point x="95" y="0"/>
      <point x="118" y="0" type="curve" smooth="yes"/>
      <point x="141" y="0"/>
      <point x="163" y="-1"/>
    </contour>
  </outline>
</glyph>
<glyph name="asciitilde" format="2">
  <advance width="452"/>
  <unicode hex="007E"/>
  <outline>
    <contour>
      <point x="278" y="192" type="curve"/>
      <point x="319" y="200"/>
      <point x="346" y="218"/>
      <point x="376" y="251" type="curve"/>
      <point x="407" y="333" type="line"/>
      <point x="387" y="353" type="line"/>
      <point x="328" y="352" type="line"/>
      <point x="323" y="325"/>
      <point x="315" y="306"/>
      <point x="301" y="286" type="curve"/>
      <point x="246" y="327"/>
      <point x="212" y="346"/>
      <point x="164" y="363" type="curve"/>
      <point x="85" y="321" type="line"/>
      <point x="45" y="233" type="line"/>
      <point x="52" y="208" type="line"/>
      <point x="120" y="198" type="line"/>
      <point x="151" y="272" type="line"/>
      <point x="194" y="253"/>
      <point x="227" y="232"/>
    </contour>
  </outline>
</glyph>
<glyph name="cent" format="2">
  <advance width="350"/>
  <unicode hex="00A2"/>
  <outline>
    <contour>
      <point x="112" y="110" type="curve"/>
      <point x="294" y="110" type="line"/>
      <point x="311" y="137"/>
      <point x="322" y="163"/>
      <point x="330" y="199" type="curve"/>
      <point x="330" y="278" type="line"/>
      <point x="244" y="255" type="line"/>
      <point x="244" y="195" type="line"/>
      <point x="165" y="195" type="line"/>
      <point x="139" y="216"/>
      <point x="125" y="235"/>
      <point x="109" y="261" type="curve"/>
      <point x="118" y="342"/>
      <point x="125" y="416"/>
      <point x="164" y="503" type="curve"/>
      <point x="241" y="503" type="line"/>
      <point x="241" y="429" type="line"/>
      <point x="322" y="457" type="line"/>
      <point x="322" y="543" type="line"/>
      <point x="278" y="580" type="line"/>
      <point x="97" y="580" type="line"/>
      <point x="51" y="475"/>
      <point x="36" y="383"/>
      <point x="20" y="284" type="curve"/>
      <point x="20" y="222" type="line"/>
      <point x="46" y="181"/>
      <point x="72" y="143"/>
    </contour>
    <contour>
      <point x="144" y="0" type="curve"/>
      <point x="251" y="0" type="line"/>
      <point x="245" y="104"/>
      <point x="242" y="77"/>
      <point x="242" y="182" type="curve"/>
      <point x="152" y="182" type="line"/>
      <point x="152" y="78"/>
      <point x="150" y="110"/>
    </contour>
    <contour>
      <point x="152" y="518" type="curve"/>
      <point x="242" y="518" type="line"/>
      <point x="242" y="623"/>
      <point x="245" y="596"/>
      <point x="251" y="700" type="curve"/>
      <point x="144" y="700" type="line"/>
      <point x="150" y="590"/>
      <point x="152" y="622"/>
    </contour>
  </outline>
</glyph>
<glyph name="sterling" format="2">
  <advance width="499"/>
  <unicode hex="00A3"/>
  <guideline x="463" y="512" angle="90"/>
  <outline>
    <contour>
      <point x="41" y="25" type="curve"/>
      <point x="52" y="0" type="line"/>
      <point x="175" y="0" type="line"/>
      <point x="175" y="39" type="line"/>
      <point x="159" y="55" type="line"/>
      <point x="181" y="111"/>
      <point x="201" y="170"/>
      <point x="215" y="239" type="curve"/>
      <point x="188" y="364"/>
      <point x="178" y="412"/>
      <point x="165" y="505" type="curve"/>
      <point x="179" y="544"/>
      <point x="232" y="595"/>
      <point x="271" y="616" type="curve"/>
      <point x="308" y="599"/>
      <point x="355" y="565"/>
      <point x="377" y="540" type="curve"/>
      <point x="366" y="428" type="line"/>
      <point x="463" y="458" type="line"/>
      <point x="463" y="565" type="line"/>
      <point x="438" y="604"/>
      <point x="370" y="661"/>
      <point x="304" y="700" type="curve"/>
      <point x="239" y="700" type="line"/>
      <point x="183" y="667"/>
      <point x="103" y="588"/>
      <point x="65" y="535" type="curve"/>
      <point x="65" y="517" type="line"/>
      <point x="85" y="408"/>
      <point x="102" y="354"/>
      <point x="126" y="249" type="curve"/>
      <point x="103" y="169"/>
      <point x="79" y="95"/>
    </contour>
    <contour>
      <point x="112" y="0" type="line"/>
      <point x="447" y="0" type="line"/>
      <point x="457" y="17"/>
      <point x="465" y="38"/>
      <point x="469" y="65" type="curve"/>
      <point x="455" y="92" type="line"/>
      <point x="112" y="82" type="line"/>
    </contour>
    <contour>
      <point x="321" y="212" type="line"/>
      <point x="332" y="217"/>
      <point x="342" y="224"/>
      <point x="351" y="233" type="curve"/>
      <point x="356" y="248"/>
      <point x="356" y="285"/>
      <point x="351" y="304" type="curve"/>
      <point x="43" y="304" type="line"/>
      <point x="35" y="286"/>
      <point x="29" y="265"/>
      <point x="25" y="243" type="curve"/>
      <point x="28" y="235"/>
      <point x="32" y="227"/>
      <point x="37" y="220" type="curve"/>
      <point x="177" y="227" type="line"/>
    </contour>
  </outline>
</glyph>
<glyph name="yen" format="2">
  <advance width="512"/>
  <unicode hex="00A5"/>
  <outline>
    <contour>
      <point x="229" y="231" type="curve"/>
      <point x="287" y="230" type="line"/>
      <point x="328" y="361"/>
      <point x="410" y="537"/>
      <point x="492" y="700" type="curve"/>
      <point x="369" y="700" type="line"/>
      <point x="341" y="597"/>
      <point x="292" y="462"/>
      <point x="247" y="333" type="curve"/>
      <point x="271" y="333" type="line"/>
      <point x="280" y="314"/>
      <point x="231" y="449"/>
      <point x="149" y="700" type="curve"/>
      <point x="20" y="700" type="line"/>
      <point x="113" y="507"/>
      <point x="196" y="331"/>
    </contour>
    <contour>
      <point x="397" y="58" type="line"/>
      <point x="410" y="65"/>
      <point x="419" y="71"/>
      <point x="427" y="79" type="curve"/>
      <point x="432" y="94"/>
      <point x="432" y="131"/>
      <point x="427" y="150" type="curve"/>
      <point x="99" y="150" type="line"/>
      <point x="91" y="132"/>
      <point x="84" y="109"/>
      <point x="81" y="89" type="curve"/>
      <point x="84" y="81"/>
      <point x="88" y="73"/>
      <point x="93" y="66" type="curve"/>
      <point x="227" y="71" type="line"/>
      <point x="280" y="71" type="line"/>
    </contour>
    <contour>
      <point x="205" y="0" type="curve"/>
      <point x="312" y="0" type="line"/>
      <point x="308" y="104"/>
      <point x="305" y="201"/>
      <point x="304" y="295" type="curve"/>
      <point x="212" y="295" type="line"/>
      <point x="211" y="204"/>
      <point x="209" y="108"/>
    </contour>
    <contour>
      <point x="397" y="188" type="line"/>
      <point x="410" y="195"/>
      <point x="419" y="201"/>
      <point x="427" y="209" type="curve"/>
      <point x="432" y="224"/>
      <point x="432" y="261"/>
      <point x="427" y="280" type="curve"/>
      <point x="99" y="280" type="line"/>
      <point x="91" y="262"/>
      <point x="84" y="239"/>
      <point x="81" y="219" type="curve"/>
      <point x="84" y="211"/>
      <point x="88" y="203"/>
      <point x="93" y="196" type="curve"/>
      <point x="227" y="201" type="line"/>
      <point x="280" y="201" type="line"/>
    </contour>
  </outline>
</glyph>
<glyph name="brokenbar" format="2">
  <advance width="250"/>
  <unicode hex="00A6"/>
  <outline>
    <contour>
      <point x="81" y="433" type="line"/>
      <point x="168" y="433" type="line"/>
      <point x="180" y="700" type="line"/>
      <point x="70" y="700" type="line"/>
    </contour>
    <contour>
      <point x="70" y="-90" type="line"/>
      <point x="180" y="-90" type="line"/>
      <point x="168" y="187" type="line"/>
      <point x="81" y="187" type="line"/>
    </contour>
  </outline>
</glyph>
<glyph name="section" format="2">
  <advance width="438"/>
  <unicode hex="00A7"/>
  <guideline x="250" y="484" angle="0"/>
  <outline>
    <contour>
      <point x="281" y="206" type="line"/>
      <point x="311" y="207"/>
      <point x="377" y="245"/>
      <point x="393" y="305" type="curve"/>
      <point x="393" y="364"/>
      <point x="374" y="414"/>
      <point x="358" y="443" type="curve"/>
      <point x="320" y="470"/>
      <point x="263" y="495"/>
      <point x="230" y="508" type="curve" smooth="yes"/>
      <point x="199" y="520"/>
      <point x="170" y="531"/>
      <point x="152" y="547" type="curve"/>
      <point x="145" y="556"/>
      <point x="141" y="569"/>
      <point x="141" y="583" type="curve"/>
      <point x="149" y="606"/>
      <point x="158" y="617"/>
      <point x="182" y="635" type="curve"/>
      <point x="195" y="639"/>
      <point x="219" y="641"/>
      <point x="233" y="641" type="curve" smooth="yes"/>
      <point x="255" y="641"/>
      <point x="277" y="632"/>
      <point x="292" y="618" type="curve"/>
      <point x="291" y="528" type="line"/>
      <point x="388" y="558" type="line"/>
      <point x="378" y="684" type="line"/>
      <point x="343" y="704"/>
      <point x="306" y="718"/>
      <point x="250" y="725" type="curve"/>
      <point x="192" y="725"/>
      <point x="156" y="719"/>
      <point x="107" y="700" type="curve"/>
      <point x="66" y="665"/>
      <point x="54" y="625"/>
      <point x="45" y="585" type="curve"/>
      <point x="49" y="536"/>
      <point x="57" y="506"/>
      <point x="80" y="467" type="curve"/>
      <point x="118" y="440"/>
      <point x="156" y="434"/>
      <point x="189" y="421" type="curve" smooth="yes"/>
      <point x="220" y="409"/>
      <point x="278" y="379"/>
      <point x="296" y="363" type="curve"/>
      <point x="303" y="349"/>
      <point x="307" y="326"/>
      <point x="307" y="310" type="curve"/>
      <point x="291" y="279"/>
      <point x="250" y="259"/>
      <point x="205" y="259" type="curve" smooth="yes"/>
      <point x="186" y="259"/>
      <point x="150" y="285"/>
      <point x="142" y="301" type="curve"/>
      <point x="106" y="284" type="line"/>
    </contour>
    <contour>
      <point x="188" y="-25" type="curve"/>
      <point x="246" y="-25"/>
      <point x="282" y="-19"/>
      <point x="331" y="0" type="curve"/>
      <point x="372" y="35"/>
      <point x="384" y="75"/>
      <point x="393" y="115" type="curve"/>
      <point x="389" y="164"/>
      <point x="381" y="194"/>
      <point x="358" y="233" type="curve"/>
      <point x="320" y="260"/>
      <point x="282" y="266"/>
      <point x="249" y="279" type="curve" smooth="yes"/>
      <point x="218" y="291"/>
      <point x="160" y="321"/>
      <point x="142" y="337" type="curve"/>
      <point x="135" y="351"/>
      <point x="131" y="374"/>
      <point x="131" y="390" type="curve"/>
      <point x="147" y="421"/>
      <point x="188" y="441"/>
      <point x="233" y="441" type="curve" smooth="yes"/>
      <point x="252" y="441"/>
      <point x="288" y="415"/>
      <point x="296" y="399" type="curve"/>
      <point x="332" y="416" type="line"/>
      <point x="157" y="494" type="line"/>
      <point x="127" y="493"/>
      <point x="61" y="455"/>
      <point x="45" y="395" type="curve"/>
      <point x="45" y="336"/>
      <point x="64" y="286"/>
      <point x="80" y="257" type="curve"/>
      <point x="118" y="230"/>
      <point x="175" y="205"/>
      <point x="208" y="192" type="curve" smooth="yes"/>
      <point x="239" y="180"/>
      <point x="268" y="169"/>
      <point x="286" y="153" type="curve"/>
      <point x="293" y="144"/>
      <point x="297" y="131"/>
      <point x="297" y="117" type="curve"/>
      <point x="289" y="94"/>
      <point x="280" y="83"/>
      <point x="256" y="65" type="curve"/>
      <point x="243" y="61"/>
      <point x="219" y="59"/>
      <point x="205" y="59" type="curve" smooth="yes"/>
      <point x="183" y="59"/>
      <point x="161" y="68"/>
      <point x="146" y="82" type="curve"/>
      <point x="147" y="172" type="line"/>
      <point x="50" y="142" type="line"/>
      <point x="60" y="16" type="line"/>
      <point x="95" y="-4"/>
      <point x="132" y="-18"/>
    </contour>
  </outline>
</glyph>
<glyph name="copyright" format="2">
  <advance width="785"/>
  <unicode hex="00A9"/>
  <outline>
    <contour>
      <point x="399" y="-10" type="curve" smooth="yes"/>
      <point x="624" y="-10"/>
      <point x="755" y="145"/>
      <point x="755" y="360" type="curve" smooth="yes"/>
      <point x="755" y="545"/>
      <point x="607" y="711"/>
      <point x="399" y="711" type="curve" smooth="yes"/>
      <point x="187" y="711"/>
      <point x="30" y="545"/>
      <point x="30" y="360" type="curve"/>
      <point x="30" y="155"/>
      <point x="165" y="-10"/>
    </contour>
    <contour>
      <point x="399" y="70" type="curve" smooth="yes"/>
      <point x="333" y="70"/>
      <point x="298" y="80"/>
      <point x="268" y="90" type="curve"/>
      <point x="182" y="151"/>
      <point x="134" y="262"/>
      <point x="134" y="390" type="curve" smooth="yes"/>
      <point x="134" y="462"/>
      <point x="167" y="512"/>
      <point x="202" y="555" type="curve"/>
      <point x="274" y="605"/>
      <point x="332" y="621"/>
      <point x="399" y="621" type="curve" smooth="yes"/>
      <point x="475" y="621"/>
      <point x="523" y="605"/>
      <point x="590" y="555" type="curve"/>
      <point x="629" y="492"/>
      <point x="650" y="411"/>
      <point x="650" y="339" type="curve" smooth="yes"/>
      <point x="650" y="211"/>
      <point x="598" y="150"/>
      <point x="570" y="117" type="curve"/>
      <point x="509" y="83"/>
      <point x="461" y="70"/>
    </contour>
    <contour>
      <point x="401" y="140" type="line"/>
      <point x="499" y="140" type="line"/>
      <point x="516" y="167"/>
      <point x="527" y="193"/>
      <point x="535" y="229" type="curve"/>
      <point x="535" y="308" type="line"/>
      <point x="449" y="285" type="line"/>
      <point x="449" y="209" type="line"/>
      <point x="401" y="209" type="line"/>
    </contour>
    <contour>
      <point x="317" y="140" type="curve"/>
      <point x="473" y="140" type="line"/>
      <point x="473" y="225" type="line"/>
      <point x="370" y="225" type="line"/>
      <point x="344" y="246"/>
      <point x="330" y="265"/>
      <point x="314" y="291" type="curve"/>
      <point x="323" y="372"/>
      <point x="330" y="396"/>
      <point x="369" y="483" type="curve"/>
      <point x="483" y="483" type="line"/>
      <point x="527" y="523" type="line"/>
      <point x="483" y="560" type="line"/>
      <point x="302" y="560" type="line"/>
      <point x="256" y="455"/>
      <point x="241" y="413"/>
      <point x="225" y="314" type="curve"/>
      <point x="225" y="252" type="line"/>
      <point x="251" y="211"/>
      <point x="277" y="173"/>
    </contour>
    <contour>
      <point x="446" y="409" type="line"/>
      <point x="527" y="437" type="line"/>
      <point x="527" y="523" type="line"/>
      <point x="446" y="523" type="line"/>
    </contour>
  </outline>
</glyph>
<glyph name="guillemotleft" format="2">
  <advance width="413"/>
  <unicode hex="00AB"/>
  <outline>
    <contour>
      <point x="342" y="86" type="curve"/>
      <point x="388" y="145" type="line"/>
      <point x="347" y="172"/>
      <point x="301" y="204"/>
      <point x="283" y="235" type="curve"/>
      <point x="301" y="275"/>
      <point x="330" y="306"/>
      <point x="378" y="357" type="curve"/>
      <point x="308" y="391" type="line"/>
      <point x="255" y="332"/>
      <point x="235" y="306"/>
      <point x="205" y="252" type="curve"/>
      <point x="205" y="227" type="line"/>
      <point x="235" y="185"/>
      <point x="286" y="127"/>
    </contour>
    <contour>
      <point x="152" y="86" type="curve"/>
      <point x="198" y="145" type="line"/>
      <point x="167" y="172"/>
      <point x="131" y="204"/>
      <point x="113" y="235" type="curve"/>
      <point x="126" y="275"/>
      <point x="149" y="309"/>
      <point x="198" y="367" type="curve"/>
      <point x="128" y="401" type="line"/>
      <point x="74" y="335"/>
      <point x="62" y="306"/>
      <point x="35" y="242" type="curve"/>
      <point x="35" y="217" type="line"/>
      <point x="65" y="175"/>
      <point x="106" y="127"/>
    </contour>
  </outline>
</glyph>
<glyph name="logicalnot" format="2">
  <advance width="454"/>
  <unicode hex="00AC"/>
  <guideline x="321" y="290" angle="0"/>
  <outline>
    <contour>
      <point x="55" y="191" type="curve"/>
      <point x="227" y="201" type="line"/>
      <point x="371" y="191" type="line"/>
      <point x="409" y="250" type="line"/>
      <point x="409" y="266"/>
      <point x="404" y="278"/>
      <point x="399" y="290" type="curve"/>
      <point x="83" y="290" type="line"/>
      <point x="45" y="231" type="line"/>
      <point x="45" y="215"/>
      <point x="50" y="203"/>
    </contour>
    <contour>
      <point x="313" y="95" type="line"/>
      <point x="409" y="115" type="line"/>
      <point x="409" y="250" type="line"/>
      <point x="321" y="237" type="line"/>
      <point x="313" y="113" type="line"/>
    </contour>
  </outline>
</glyph>
<glyph name="registered" format="2">
  <advance width="513"/>
  <unicode hex="00AE"/>
  <outline>
    <contour>
      <point x="261" y="275" type="curve" smooth="yes"/>
      <point x="401" y="275"/>
      <point x="483" y="372"/>
      <point x="483" y="506" type="curve" smooth="yes"/>
      <point x="483" y="622"/>
      <point x="391" y="725"/>
      <point x="261" y="725" type="curve" smooth="yes"/>
      <point x="128" y="725"/>
      <point x="30" y="622"/>
      <point x="30" y="506" type="curve"/>
      <point x="30" y="378"/>
      <point x="114" y="275"/>
    </contour>
    <contour>
      <point x="173" y="372" type="curve"/>
      <point x="221" y="372" type="line"/>
      <point x="219" y="420"/>
      <point x="218" y="453"/>
      <point x="218" y="486" type="curve" smooth="yes"/>
      <point x="218" y="531"/>
      <point x="219" y="576"/>
      <point x="222" y="618" type="curve"/>
      <point x="173" y="618" type="line"/>
      <point x="175" y="576"/>
      <point x="176" y="531"/>
      <point x="176" y="488" type="curve" smooth="yes"/>
      <point x="176" y="454"/>
      <point x="175" y="419"/>
    </contour>
    <contour>
      <point x="307" y="365" type="curve"/>
      <point x="348" y="393" type="line"/>
      <point x="337" y="401"/>
      <point x="307" y="424"/>
      <point x="300" y="432" type="curve" smooth="yes"/>
      <point x="292" y="441"/>
      <point x="277" y="463"/>
      <point x="269" y="481" type="curve"/>
      <point x="235" y="474" type="line"/>
      <point x="243" y="452"/>
      <point x="256" y="424"/>
      <point x="261" y="417" type="curve" smooth="yes"/>
      <point x="269" y="406"/>
      <point x="291" y="380"/>
    </contour>
    <contour>
      <point x="261" y="325" type="curve" smooth="yes"/>
      <point x="219" y="325"/>
      <point x="197" y="331"/>
      <point x="179" y="337" type="curve"/>
      <point x="125" y="375"/>
      <point x="95" y="445"/>
      <point x="95" y="525" type="curve" smooth="yes"/>
      <point x="95" y="570"/>
      <point x="116" y="601"/>
      <point x="137" y="628" type="curve"/>
      <point x="182" y="659"/>
      <point x="219" y="669"/>
      <point x="261" y="669" type="curve" smooth="yes"/>
      <point x="308" y="669"/>
      <point x="338" y="659"/>
      <point x="380" y="628" type="curve"/>
      <point x="404" y="589"/>
      <point x="417" y="538"/>
      <point x="417" y="493" type="curve" smooth="yes"/>
      <point x="417" y="413"/>
      <point x="385" y="375"/>
      <point x="367" y="354" type="curve"/>
      <point x="329" y="333"/>
      <point x="299" y="325"/>
    </contour>
    <contour>
      <point x="256" y="450" type="curve"/>
      <point x="291" y="461"/>
      <point x="316" y="474"/>
      <point x="344" y="501" type="curve"/>
      <point x="346" y="511"/>
      <point x="348" y="524"/>
      <point x="348" y="538" type="curve" smooth="yes"/>
      <point x="348" y="550"/>
      <point x="346" y="570"/>
      <point x="342" y="582" type="curve"/>
      <point x="325" y="602"/>
      <point x="288" y="631"/>
      <point x="258" y="634" type="curve"/>
      <point x="227" y="633"/>
      <point x="206" y="629"/>
      <point x="173" y="618" type="curve"/>
      <point x="189" y="584" type="line"/>
      <point x="204" y="589"/>
      <point x="234" y="595"/>
      <point x="253" y="595" type="curve"/>
      <point x="268" y="592"/>
      <point x="286" y="576"/>
      <point x="301" y="559" type="curve"/>
      <point x="301" y="522" type="line"/>
      <point x="287" y="506"/>
      <point x="272" y="495"/>
      <point x="256" y="488" type="curve"/>
      <point x="243" y="486"/>
      <point x="221" y="489"/>
      <point x="207" y="491" type="curve"/>
      <point x="207" y="457" type="line"/>
      <point x="220" y="453"/>
      <point x="240" y="449"/>
    </contour>
  </outline>
</glyph>
<glyph name="plusminus" format="2">
  <advance width="454"/>
  <unicode hex="00B1"/>
  <outline>
    <contour>
      <point x="55" y="324" type="curve"/>
      <point x="237" y="334" type="line"/>
      <point x="339" y="324" type="line"/>
      <point x="371" y="324" type="line"/>
      <point x="409" y="383" type="line"/>
      <point x="409" y="399"/>
      <point x="404" y="411"/>
      <point x="399" y="423" type="curve"/>
      <point x="237" y="413" type="line"/>
      <point x="83" y="423" type="line"/>
      <point x="45" y="364" type="line"/>
      <point x="45" y="348"/>
      <point x="50" y="336"/>
    </contour>
    <contour>
      <point x="45" y="64" type="curve"/>
      <point x="197" y="74" type="line"/>
      <point x="361" y="64" type="line"/>
      <point x="399" y="123" type="line"/>
      <point x="399" y="139"/>
      <point x="394" y="151"/>
      <point x="389" y="163" type="curve"/>
      <point x="73" y="163" type="line"/>
      <point x="35" y="104" type="line"/>
      <point x="35" y="88"/>
      <point x="40" y="76"/>
    </contour>
    <contour>
      <point x="186" y="211" type="line"/>
      <point x="284" y="211" type="line"/>
      <point x="271" y="376" type="line"/>
      <point x="284" y="540" type="line"/>
      <point x="186" y="540" type="line"/>
      <point x="197" y="376" type="line"/>
    </contour>
  </outline>
</glyph>
<glyph name="paragraph" format="2">
  <advance width="537"/>
  <unicode hex="00B6"/>
  <outline>
    <contour>
      <point x="390" y="0" type="curve"/>
      <point x="491" y="0" type="line"/>
      <point x="486" y="125"/>
      <point x="483" y="241"/>
      <point x="483" y="360" type="curve" smooth="yes"/>
      <point x="483" y="469"/>
      <point x="486" y="579"/>
      <point x="492" y="700" type="curve"/>
      <point x="389" y="700" type="line"/>
      <point x="395" y="579"/>
      <point x="398" y="469"/>
      <point x="398" y="360" type="curve" smooth="yes"/>
      <point x="398" y="241"/>
      <point x="395" y="125"/>
    </contour>
    <contour>
      <point x="210" y="0" type="curve"/>
      <point x="311" y="0" type="line"/>
      <point x="306" y="125"/>
      <point x="303" y="241"/>
      <point x="303" y="360" type="curve" smooth="yes"/>
      <point x="303" y="469"/>
      <point x="306" y="579"/>
      <point x="312" y="700" type="curve"/>
      <point x="209" y="700" type="line"/>
      <point x="215" y="579"/>
      <point x="218" y="469"/>
      <point x="218" y="360" type="curve" smooth="yes"/>
      <point x="218" y="241"/>
      <point x="215" y="125"/>
    </contour>
    <contour>
      <point x="189" y="402" type="curve"/>
      <point x="259" y="403" type="line"/>
      <point x="259" y="499" type="line"/>
      <point x="209" y="700" type="line"/>
      <point x="154" y="700"/>
      <point x="95" y="678"/>
      <point x="61" y="654" type="curve"/>
      <point x="37" y="601"/>
      <point x="29" y="576"/>
      <point x="25" y="534" type="curve"/>
      <point x="40" y="480"/>
      <point x="63" y="449"/>
      <point x="97" y="421" type="curve"/>
      <point x="131" y="409"/>
      <point x="159" y="405"/>
    </contour>
    <contour>
      <point x="282" y="597" type="line"/>
      <point x="306" y="600"/>
      <point x="330" y="602"/>
      <point x="354" y="602" type="curve" smooth="yes"/>
      <point x="380" y="602"/>
      <point x="405" y="600"/>
      <point x="431" y="597" type="curve"/>
      <point x="431" y="700" type="line"/>
      <point x="282" y="700" type="line"/>
    </contour>
  </outline>
</glyph>
<glyph name="AE" format="2">
  <advance width="735"/>
  <unicode hex="00C6"/>
  <guideline x="447" y="0" angle="90"/>
  <anchor x="368" y="0" name="bottom"/>
  <anchor x="368" y="700" name="top"/>
  <outline>
    <contour>
      <point x="25" y="0" type="curve"/>
      <point x="146" y="0" type="line"/>
      <point x="161" y="109"/>
      <point x="174" y="186"/>
      <point x="203" y="307" type="curve" smooth="yes"/>
      <point x="228" y="411"/>
      <point x="275" y="589"/>
      <point x="305" y="700" type="curve"/>
      <point x="209" y="700" type="line"/>
      <point x="195" y="609"/>
      <point x="166" y="503"/>
      <point x="136" y="384" type="curve" smooth="yes"/>
      <point x="91" y="207"/>
      <point x="67" y="133"/>
    </contour>
    <contour>
      <point x="398" y="190" type="line"/>
      <point x="398" y="273" type="line"/>
      <point x="154" y="273" type="line"/>
      <point x="154" y="197" type="line"/>
    </contour>
    <contour>
      <point x="388" y="0" type="line"/>
      <point x="683" y="0" type="line"/>
      <point x="693" y="17"/>
      <point x="701" y="38"/>
      <point x="705" y="65" type="curve"/>
      <point x="702" y="75"/>
      <point x="697" y="84"/>
      <point x="691" y="92" type="curve"/>
      <point x="388" y="82" type="line"/>
    </contour>
    <contour>
      <point x="575" y="294" type="line"/>
      <point x="594" y="319"/>
      <point x="606" y="340"/>
      <point x="613" y="363" type="curve"/>
      <point x="603" y="393" type="line"/>
      <point x="388" y="383" type="line"/>
      <point x="388" y="304" type="line"/>
    </contour>
    <contour>
      <point x="237" y="609" type="line"/>
      <point x="416" y="617" type="line"/>
      <point x="416" y="700" type="line"/>
      <point x="232" y="700" type="line"/>
    </contour>
    <contour>
      <point x="678" y="608" type="line"/>
      <point x="688" y="625"/>
      <point x="696" y="646"/>
      <point x="700" y="673" type="curve"/>
      <point x="686" y="700" type="line"/>
      <point x="388" y="700" type="line"/>
      <point x="388" y="618" type="line"/>
    </contour>
    <component base="_part.barra" xOffset="280"/>
  </outline>
</glyph>
<glyph name="multiply" format="2">
  <advance width="422"/>
  <unicode hex="00D7"/>
  <outline>
    <contour>
      <point x="123" y="65" type="curve"/>
      <point x="152" y="104"/>
      <point x="187" y="154"/>
      <point x="234" y="200" type="curve"/>
      <point x="283" y="253"/>
      <point x="324" y="281"/>
      <point x="382" y="328" type="curve"/>
      <point x="358" y="360" type="line"/>
      <point x="341" y="373"/>
      <point x="324" y="382"/>
      <point x="299" y="388" type="curve"/>
      <point x="270" y="349"/>
      <point x="235" y="299"/>
      <point x="188" y="253" type="curve"/>
      <point x="139" y="200"/>
      <point x="98" y="172"/>
      <point x="40" y="125" type="curve"/>
      <point x="64" y="93" type="line"/>
      <point x="81" y="80"/>
      <point x="98" y="71"/>
    </contour>
    <contour>
      <point x="299" y="65" type="curve"/>
      <point x="324" y="71"/>
      <point x="341" y="80"/>
      <point x="358" y="93" type="curve"/>
      <point x="382" y="125" type="line"/>
      <point x="324" y="172"/>
      <point x="273" y="210"/>
      <point x="234" y="253" type="curve"/>
      <point x="197" y="289"/>
      <point x="161" y="349"/>
      <point x="132" y="388" type="curve"/>
      <point x="107" y="382"/>
      <point x="90" y="373"/>
      <point x="73" y="360" type="curve"/>
      <point x="49" y="328" type="line"/>
      <point x="107" y="281"/>
      <point x="149" y="243"/>
      <point x="188" y="200" type="curve"/>
      <point x="225" y="164"/>
      <point x="270" y="104"/>
    </contour>
  </outline>
</glyph>
<glyph name="Oslash" format="2">
  <advance width="528"/>
  <unicode hex="00D8"/>
  <anchor x="264" y="0" name="bottom"/>
  <anchor x="264" y="700" name="top"/>
  <outline>
    <contour>
      <point x="5" y="24" type="curve"/>
      <point x="99" y="-38" type="line"/>
      <point x="134" y="47"/>
      <point x="239" y="238"/>
      <point x="290" y="321" type="curve" smooth="yes"/>
      <point x="351" y="421"/>
      <point x="457" y="588"/>
      <point x="523" y="668" type="curve"/>
      <point x="425" y="727" type="line"/>
      <point x="389" y="643"/>
      <point x="280" y="460"/>
      <point x="222" y="365" type="curve" smooth="yes"/>
      <point x="171" y="281"/>
      <point x="70" y="104"/>
    </contour>
    <contour>
      <point x="261" y="-5" type="curve" smooth="yes"/>
      <point x="300" y="-5"/>
      <point x="342" y="-2"/>
      <point x="378" y="5" type="curve"/>
      <point x="431" y="76"/>
      <point x="489" y="197"/>
      <point x="501" y="308" type="curve"/>
      <point x="492" y="432"/>
      <point x="438" y="582"/>
      <point x="387" y="683" type="curve"/>
      <point x="334" y="700"/>
      <point x="302" y="710"/>
      <point x="264" y="710" type="curve" smooth="yes"/>
      <point x="206" y="710"/>
      <point x="183" y="703"/>
      <point x="145" y="683" type="curve"/>
      <point x="81" y="594"/>
      <point x="24" y="444"/>
      <point x="17" y="308" type="curve"/>
      <point x="29" y="194"/>
      <point x="85" y="73"/>
      <point x="142" y="5" type="curve"/>
      <point x="167" y="-1"/>
      <point x="212" y="-5"/>
    </contour>
    <contour>
      <point x="265" y="72" type="curve" smooth="yes"/>
      <point x="240" y="72"/>
      <point x="214" y="74"/>
      <point x="190" y="82" type="curve"/>
      <point x="152" y="149"/>
      <point x="116" y="233"/>
      <point x="105" y="306" type="curve"/>
      <point x="121" y="432"/>
      <point x="168" y="559"/>
      <point x="204" y="624" type="curve"/>
      <point x="220" y="631"/>
      <point x="245" y="636"/>
      <point x="265" y="636" type="curve" smooth="yes"/>
      <point x="278" y="636"/>
      <point x="297" y="633"/>
      <point x="316" y="627" type="curve"/>
      <point x="349" y="557"/>
      <point x="398" y="424"/>
      <point x="413" y="306" type="curve"/>
      <point x="403" y="217"/>
      <point x="361" y="126"/>
      <point x="327" y="75" type="curve"/>
      <point x="303" y="72"/>
      <point x="283" y="72"/>
    </contour>
  </outline>
</glyph>
<glyph name="Thorn" format="2">
  <advance width="466"/>
  <unicode hex="00DE"/>
  <outline>
    <contour>
      <point x="116" y="236" type="curve"/>
      <point x="116" y="138" type="line"/>
      <point x="177" y="138"/>
      <point x="291" y="145"/>
      <point x="348" y="165" type="curve"/>
      <point x="377" y="186"/>
      <point x="409" y="239"/>
      <point x="416" y="254" type="curve" smooth="yes"/>
      <point x="427" y="276"/>
      <point x="446" y="372"/>
      <point x="446" y="397" type="curve" smooth="yes"/>
      <point x="446" y="422"/>
      <point x="407" y="535"/>
      <point x="359" y="578" type="curve"/>
      <point x="294" y="592"/>
      <point x="179" y="595"/>
      <point x="97" y="599" type="curve"/>
      <point x="97" y="502" type="line"/>
      <point x="182" y="506"/>
      <point x="324" y="512"/>
      <point x="353" y="502" type="curve"/>
      <point x="286" y="535" type="line"/>
      <point x="325" y="489"/>
      <point x="344" y="447"/>
      <point x="354" y="409" type="curve"/>
      <point x="348" y="339"/>
      <point x="337" y="293"/>
      <point x="325" y="263" type="curve"/>
      <point x="314" y="250"/>
      <point x="303" y="242"/>
      <point x="290" y="234" type="curve"/>
      <point x="244" y="227"/>
      <point x="161" y="232"/>
    </contour>
    <component base="_part.barra" xOffset="-15"/>
  </outline>
</glyph>
<glyph name="germandbls" format="2">
  <advance width="411"/>
  <unicode hex="00DF"/>
  <outline>
    <contour>
      <point x="172" y="0" type="line"/>
      <point x="325" y="0" type="line"/>
      <point x="364" y="55"/>
      <point x="382" y="95"/>
      <point x="393" y="143" type="curve"/>
      <point x="393" y="230"/>
      <point x="380" y="297"/>
      <point x="363" y="346" type="curve"/>
      <point x="231" y="370" type="line"/>
      <point x="242" y="306" type="line"/>
      <point x="278" y="369"/>
      <point x="330" y="452"/>
      <point x="348" y="514" type="curve"/>
      <point x="303" y="600"/>
      <point x="272" y="644"/>
      <point x="233" y="690" type="curve"/>
      <point x="144" y="655" type="line"/>
      <point x="196" y="606"/>
      <point x="229" y="556"/>
      <point x="249" y="505" type="curve"/>
      <point x="232" y="443"/>
      <point x="214" y="414"/>
      <point x="172" y="337" type="curve"/>
      <point x="192" y="290" type="line"/>
      <point x="232" y="290"/>
      <point x="261" y="285"/>
      <point x="291" y="272" type="curve"/>
      <point x="300" y="232"/>
      <point x="303" y="206"/>
      <point x="303" y="147" type="curve"/>
      <point x="297" y="122"/>
      <point x="285" y="93"/>
      <point x="272" y="74" type="curve"/>
      <point x="192" y="84" type="line"/>
    </contour>
    <contour>
      <point x="41" y="0" type="curve"/>
      <point x="145" y="0" type="line"/>
      <point x="139" y="85"/>
      <point x="134" y="171"/>
      <point x="134" y="261" type="curve" smooth="yes"/>
      <point x="134" y="301"/>
      <point x="127" y="473"/>
      <point x="135" y="554" type="curve"/>
      <point x="164" y="571"/>
      <point x="200" y="586"/>
      <point x="233" y="594" type="curve"/>
      <point x="233" y="690" type="line"/>
      <point x="170" y="676"/>
      <point x="118" y="655"/>
      <point x="58" y="622" type="curve"/>
      <point x="41" y="506"/>
      <point x="40" y="264"/>
      <point x="40" y="95" type="curve" smooth="yes"/>
      <point x="40" y="60"/>
      <point x="40" y="28"/>
    </contour>
  </outline>
</glyph>
<glyph name="ae" format="2">
  <advance width="612"/>
  <unicode hex="00E6"/>
  <guideline x="411" y="490" angle="0"/>
  <outline>
    <contour>
      <point x="429" y="-13" type="curve" smooth="yes"/>
      <point x="460" y="-13"/>
      <point x="495" y="-6"/>
      <point x="536" y="18" type="curve"/>
      <point x="562" y="55"/>
      <point x="577" y="109"/>
      <point x="578" y="165" type="curve"/>
      <point x="491" y="147" type="line"/>
      <point x="491" y="120"/>
      <point x="482" y="94"/>
      <point x="473" y="78" type="curve"/>
      <point x="465" y="71"/>
      <point x="448" y="67"/>
      <point x="432" y="67" type="curve" smooth="yes"/>
      <point x="420" y="67"/>
      <point x="404" y="71"/>
      <point x="394" y="78" type="curve"/>
      <point x="359" y="109"/>
      <point x="346" y="165"/>
      <point x="346" y="230" type="curve" smooth="yes"/>
      <point x="346" y="297"/>
      <point x="366" y="356"/>
      <point x="411" y="412" type="curve"/>
      <point x="430" y="406"/>
      <point x="449" y="401"/>
      <point x="484" y="384" type="curve"/>
      <point x="492" y="371"/>
      <point x="499" y="355"/>
      <point x="504" y="336" type="curve"/>
      <point x="499" y="315"/>
      <point x="492" y="291"/>
      <point x="476" y="270" type="curve"/>
      <point x="310" y="277" type="line"/>
      <point x="312" y="200" type="line"/>
      <point x="347" y="198"/>
      <point x="372" y="197"/>
      <point x="404" y="197" type="curve" smooth="yes"/>
      <point x="422" y="197"/>
      <point x="459" y="198"/>
      <point x="523" y="208" type="curve"/>
      <point x="556" y="236"/>
      <point x="579" y="276"/>
      <point x="592" y="324" type="curve"/>
      <point x="587" y="365"/>
      <point x="580" y="404"/>
      <point x="562" y="435" type="curve"/>
      <point x="525" y="457"/>
      <point x="456" y="483"/>
      <point x="411" y="490" type="curve"/>
      <point x="341" y="455" type="line"/>
      <point x="316" y="415"/>
      <point x="302" y="379"/>
      <point x="292" y="343" type="curve" smooth="yes"/>
      <point x="282" y="305"/>
      <point x="267" y="267"/>
      <point x="262" y="225" type="curve"/>
      <point x="272" y="135"/>
      <point x="290" y="65"/>
      <point x="344" y="0" type="curve"/>
      <point x="369" y="-8"/>
      <point x="397" y="-13"/>
    </contour>
    <contour>
      <point x="201" y="-13" type="curve"/>
      <point x="271" y="22" type="line"/>
      <point x="294" y="59"/>
      <point x="318" y="93"/>
      <point x="328" y="127" type="curve" smooth="yes"/>
      <point x="340" y="168"/>
      <point x="345" y="208"/>
      <point x="350" y="252" type="curve"/>
      <point x="340" y="342"/>
      <point x="322" y="412"/>
      <point x="268" y="477" type="curve"/>
      <point x="243" y="485"/>
      <point x="215" y="490"/>
      <point x="183" y="490" type="curve" smooth="yes"/>
      <point x="162" y="490"/>
      <point x="127" y="483"/>
      <point x="86" y="459" type="curve"/>
      <point x="60" y="422"/>
      <point x="45" y="368"/>
      <point x="44" y="321" type="curve"/>
      <point x="131" y="321" type="line"/>
      <point x="131" y="370"/>
      <point x="145" y="399"/>
      <point x="159" y="422" type="curve"/>
      <point x="96" y="373" type="line"/>
      <point x="132" y="396"/>
      <point x="155" y="410"/>
      <point x="180" y="410" type="curve" smooth="yes"/>
      <point x="198" y="410"/>
      <point x="226" y="398"/>
      <point x="251" y="380" type="curve"/>
      <point x="205" y="422" type="line"/>
      <point x="242" y="383"/>
      <point x="266" y="313"/>
      <point x="266" y="247" type="curve" smooth="yes"/>
      <point x="266" y="180"/>
      <point x="246" y="121"/>
      <point x="201" y="65" type="curve"/>
      <point x="175" y="73"/>
      <point x="145" y="85"/>
      <point x="128" y="93" type="curve"/>
      <point x="120" y="106"/>
      <point x="113" y="122"/>
      <point x="108" y="141" type="curve"/>
      <point x="113" y="162"/>
      <point x="120" y="186"/>
      <point x="136" y="207" type="curve"/>
      <point x="302" y="200" type="line"/>
      <point x="300" y="277" type="line"/>
      <point x="259" y="279"/>
      <point x="240" y="280"/>
      <point x="208" y="280" type="curve" smooth="yes"/>
      <point x="190" y="280"/>
      <point x="153" y="279"/>
      <point x="89" y="269" type="curve"/>
      <point x="56" y="241"/>
      <point x="33" y="201"/>
      <point x="20" y="153" type="curve"/>
      <point x="25" y="112"/>
      <point x="35" y="73"/>
      <point x="50" y="42" type="curve"/>
      <point x="87" y="20"/>
      <point x="156" y="-6"/>
    </contour>
  </outline>
</glyph>
<glyph name="eth" format="2">
  <advance width="430"/>
  <unicode hex="00F0"/>
  <outline>
    <contour>
      <point x="207" y="0" type="curve"/>
      <point x="306" y="0" type="line"/>
      <point x="351" y="99"/>
      <point x="377" y="184"/>
      <point x="384" y="253" type="curve"/>
      <point x="361" y="399"/>
      <point x="318" y="584"/>
      <point x="266" y="726" type="curve"/>
      <point x="169" y="700" type="line"/>
      <point x="217" y="586"/>
      <point x="268" y="383"/>
      <point x="285" y="258" type="curve"/>
      <point x="279" y="197"/>
      <point x="253" y="110"/>
    </contour>
    <contour>
      <point x="105" y="0" type="curve"/>
      <point x="222" y="0" type="line"/>
      <point x="167" y="76"/>
      <point x="147" y="112"/>
      <point x="112" y="191" type="curve"/>
      <point x="122" y="277"/>
      <point x="135" y="338"/>
      <point x="156" y="393" type="curve"/>
      <point x="302" y="393" type="line"/>
      <point x="302" y="470" type="line"/>
      <point x="117" y="470" type="line"/>
      <point x="83" y="443" type="line"/>
      <point x="58" y="398"/>
      <point x="32" y="330"/>
      <point x="20" y="214" type="curve"/>
      <point x="20" y="152" type="line"/>
      <point x="46" y="84"/>
      <point x="65" y="47"/>
    </contour>
    <contour>
      <point x="129" y="0" type="line"/>
      <point x="187" y="0"/>
      <point x="201" y="0"/>
      <point x="238" y="0" type="curve"/>
      <point x="253" y="66" type="line"/>
      <point x="253" y="86" type="line"/>
      <point x="103" y="64" type="line"/>
    </contour>
    <contour>
      <point x="106" y="538" type="line"/>
      <point x="261" y="556" type="line"/>
      <point x="380" y="538" type="line"/>
      <point x="393" y="545"/>
      <point x="402" y="551"/>
      <point x="410" y="559" type="curve"/>
      <point x="410" y="630" type="line"/>
      <point x="112" y="630" type="line"/>
      <point x="94" y="569" type="line"/>
    </contour>
  </outline>
</glyph>
<glyph name="divide" format="2">
  <advance width="554"/>
  <unicode hex="00F7"/>
  <outline>
    <contour>
      <point x="55" y="224" type="curve"/>
      <point x="257" y="234" type="line"/>
      <point x="471" y="224" type="line"/>
      <point x="509" y="283" type="line"/>
      <point x="509" y="299"/>
      <point x="504" y="311"/>
      <point x="499" y="323" type="curve"/>
      <point x="83" y="323" type="line"/>
      <point x="45" y="264" type="line"/>
      <point x="45" y="248"/>
      <point x="50" y="236"/>
    </contour>
    <component base="_part.dot" xOffset="187" yOffset="-497"/>
    <component base="_part.dot" xOffset="187" yOffset="-147"/>
  </outline>
</glyph>
<glyph name="oslash" format="2">
  <advance width="409"/>
  <unicode hex="00F8"/>
  <outline>
    <contour>
      <point x="0" y="-1" type="curve"/>
      <point x="81" y="-58" type="line"/>
      <point x="120" y="25"/>
      <point x="174" y="121"/>
      <point x="229" y="201" type="curve" smooth="yes"/>
      <point x="295" y="298"/>
      <point x="339" y="364"/>
      <point x="409" y="441" type="curve"/>
      <point x="324" y="495" type="line"/>
      <point x="284" y="413"/>
      <point x="236" y="330"/>
      <point x="174" y="238" type="curve" smooth="yes"/>
      <point x="119" y="156"/>
      <point x="69" y="75"/>
    </contour>
    <contour>
      <point x="204" y="-10" type="curve" smooth="yes"/>
      <point x="234" y="-10"/>
      <point x="260" y="-3"/>
      <point x="294" y="10" type="curve"/>
      <point x="328" y="56"/>
      <point x="369" y="118"/>
      <point x="379" y="187" type="curve"/>
      <point x="371" y="278"/>
      <point x="335" y="392"/>
      <point x="299" y="453" type="curve"/>
      <point x="283" y="469"/>
      <point x="247" y="480"/>
      <point x="204" y="480" type="curve" smooth="yes"/>
      <point x="161" y="480"/>
      <point x="120" y="469"/>
      <point x="99" y="453" type="curve"/>
      <point x="48" y="370"/>
      <point x="25" y="271"/>
      <point x="20" y="187" type="curve"/>
      <point x="31" y="119"/>
      <point x="62" y="45"/>
      <point x="99" y="8" type="curve"/>
      <point x="134" y="-3"/>
      <point x="169" y="-10"/>
    </contour>
    <contour>
      <point x="204" y="67" type="curve" smooth="yes"/>
      <point x="185" y="67"/>
      <point x="169" y="70"/>
      <point x="151" y="76" type="curve"/>
      <point x="124" y="103"/>
      <point x="106" y="155"/>
      <point x="103" y="207" type="curve"/>
      <point x="114" y="276"/>
      <point x="129" y="342"/>
      <point x="164" y="400" type="curve"/>
      <point x="172" y="402"/>
      <point x="191" y="403"/>
      <point x="204" y="403" type="curve" smooth="yes"/>
      <point x="219" y="403"/>
      <point x="236" y="402"/>
      <point x="242" y="400" type="curve"/>
      <point x="264" y="357"/>
      <point x="286" y="274"/>
      <point x="297" y="207" type="curve"/>
      <point x="287" y="145"/>
      <point x="263" y="100"/>
      <point x="245" y="76" type="curve"/>
      <point x="228" y="70"/>
      <point x="219" y="67"/>
    </contour>
  </outline>
</glyph>
<glyph name="thorn" format="2">
  <advance width="409"/>
  <unicode hex="00FE"/>
  <outline>
    <contour>
      <point x="42" y="-240" type="curve"/>
      <point x="146" y="-240" type="line"/>
      <point x="140" y="79"/>
      <point x="137" y="159"/>
      <point x="137" y="236" type="curve" smooth="yes"/>
      <point x="137" y="310"/>
      <point x="141" y="368"/>
      <point x="149" y="730" type="curve"/>
      <point x="39" y="730" type="line"/>
      <point x="48" y="373"/>
      <point x="52" y="310"/>
      <point x="52" y="238" type="curve" smooth="yes"/>
      <point x="52" y="160"/>
      <point x="48" y="83"/>
    </contour>
    <component base="_part.arcobp"/>
  </outline>
</glyph>
<glyph name="dcaron" format="2">
  <advance width="434"/>
  <unicode hex="010F"/>
  <outline>
    <contour>
      <point x="480" y="501" type="line"/>
      <point x="517" y="608" type="line"/>
      <point x="519" y="693" type="line"/>
      <point x="500" y="693" type="line"/>
      <point x="431" y="670" type="line"/>
      <point x="437" y="584" type="line"/>
      <point x="410" y="507" type="line"/>
    </contour>
    <component base="d"/>
  </outline>
</glyph>
<glyph name="dcroat" format="2">
  <advance width="434"/>
  <unicode hex="0111"/>
  <outline>
    <contour>
      <point x="183" y="513" type="curve"/>
      <point x="310" y="526" type="line"/>
      <point x="363" y="526" type="line"/>
      <point x="417" y="521" type="line"/>
      <point x="422" y="528"/>
      <point x="426" y="536"/>
      <point x="429" y="544" type="curve"/>
      <point x="426" y="564"/>
      <point x="419" y="587"/>
      <point x="411" y="605" type="curve"/>
      <point x="153" y="605" type="line"/>
      <point x="148" y="586"/>
      <point x="148" y="549"/>
      <point x="153" y="534" type="curve"/>
      <point x="161" y="526"/>
      <point x="170" y="520"/>
    </contour>
    <component base="d"/>
  </outline>
</glyph>
<glyph name="Hbar" format="2">
  <advance width="632"/>
  <unicode hex="0126"/>
  <outline>
    <contour>
      <point x="15" y="519" type="curve"/>
      <point x="29" y="505" type="line"/>
      <point x="284" y="511" type="line"/>
      <point x="568" y="505" type="line"/>
      <point x="591" y="527"/>
      <point x="603" y="557"/>
      <point x="617" y="586" type="curve"/>
      <point x="602" y="600" type="line"/>
      <point x="320" y="596" type="line"/>
      <point x="58" y="600" type="line"/>
      <point x="36" y="579"/>
      <point x="25" y="545"/>
    </contour>
    <component base="H" xOffset="36"/>
  </outline>
</glyph>
<glyph name="hbar" format="2">
  <advance width="441"/>
  <unicode hex="0127"/>
  <outline>
    <contour>
      <point x="251" y="513" type="line"/>
      <point x="264" y="520"/>
      <point x="273" y="526"/>
      <point x="281" y="534" type="curve"/>
      <point x="286" y="549"/>
      <point x="286" y="586"/>
      <point x="281" y="605" type="curve"/>
      <point x="23" y="605" type="line"/>
      <point x="15" y="587"/>
      <point x="8" y="564"/>
      <point x="5" y="544" type="curve"/>
      <point x="8" y="536"/>
      <point x="12" y="528"/>
      <point x="17" y="521" type="curve"/>
      <point x="71" y="526" type="line"/>
      <point x="124" y="526" type="line"/>
    </contour>
    <component base="h" xOffset="5"/>
  </outline>
</glyph>
<glyph name="ij" format="2">
  <advance width="371"/>
  <unicode hex="0133"/>
  <outline>
    <contour>
      <point x="40" y="-121" type="curve"/>
      <point x="40" y="-230" type="line"/>
      <point x="144" y="-214"/>
      <point x="278" y="-159"/>
      <point x="324" y="-121" type="curve"/>
      <point x="322" y="-40"/>
      <point x="319" y="53"/>
      <point x="319" y="121" type="curve" smooth="yes"/>
      <point x="319" y="245"/>
      <point x="322" y="327"/>
      <point x="328" y="470" type="curve"/>
      <point x="233" y="470" type="line"/>
      <point x="235" y="407"/>
      <point x="237" y="189"/>
      <point x="237" y="121" type="curve" smooth="yes"/>
      <point x="237" y="1"/>
      <point x="237" y="-43"/>
      <point x="235" y="-69" type="curve"/>
      <point x="205" y="-88"/>
      <point x="114" y="-114"/>
    </contour>
    <component base="i"/>
    <component base="uni0307" xOffset="191"/>
  </outline>
</glyph>
<glyph name="Lslash" format="2">
  <advance width="439"/>
  <unicode hex="0141"/>
  <outline>
    <contour>
      <point x="0" y="269" type="curve"/>
      <point x="38" y="208" type="line"/>
      <point x="64" y="208" type="line"/>
      <point x="112" y="233"/>
      <point x="207" y="308"/>
      <point x="260" y="351" type="curve"/>
      <point x="207" y="420" type="line"/>
      <point x="142" y="369"/>
      <point x="73" y="318"/>
    </contour>
    <component base="L" xOffset="10"/>
  </outline>
</glyph>
<glyph name="lslash" format="2">
  <advance width="245"/>
  <unicode hex="0142"/>
  <outline>
    <contour>
      <point x="-30" y="286" type="curve"/>
      <point x="-2" y="235" type="line"/>
      <point x="24" y="235" type="line"/>
      <point x="72" y="260"/>
      <point x="167" y="335"/>
      <point x="220" y="378" type="curve"/>
      <point x="177" y="437" type="line"/>
      <point x="112" y="386"/>
      <point x="43" y="335"/>
    </contour>
    <component base="l"/>
  </outline>
</glyph>
<glyph name="Eng" format="2">
  <advance width="572"/>
  <unicode hex="014A"/>
  <anchor x="299" y="0" name="bottom"/>
  <anchor x="299" y="700" name="top"/>
  <outline>
    <contour>
      <point x="426" y="-39" type="line"/>
      <point x="523" y="0" type="line"/>
      <point x="309" y="382" type="line"/>
      <point x="152" y="700" type="line"/>
      <point x="53" y="662" type="line"/>
      <point x="256" y="293" type="line"/>
    </contour>
    <contour>
      <point x="328" y="-149" type="curve"/>
      <point x="394" y="-222" type="line"/>
      <point x="435" y="-195"/>
      <point x="504" y="-136"/>
      <point x="525" y="-109" type="curve"/>
      <point x="466" y="-70" type="line"/>
      <point x="440" y="-89"/>
      <point x="400" y="-116"/>
    </contour>
    <contour>
      <point x="419" y="-116" type="curve"/>
      <point x="525" y="-109" type="line"/>
      <point x="521" y="26"/>
      <point x="518" y="230"/>
      <point x="518" y="324" type="curve" smooth="yes"/>
      <point x="518" y="454"/>
      <point x="521" y="574"/>
      <point x="528" y="700" type="curve"/>
      <point x="418" y="700" type="line"/>
      <point x="424" y="574"/>
      <point x="427" y="452"/>
      <point x="427" y="330" type="curve" smooth="yes"/>
      <point x="427" y="232"/>
      <point x="424" y="17"/>
    </contour>
    <component base="_part.barra" xOffset="-16"/>
  </outline>
</glyph>
<glyph name="eng" format="2">
  <advance width="434"/>
  <unicode hex="014B"/>
  <outline>
    <contour>
      <point x="295" y="-89" type="curve"/>
      <point x="394" y="-20" type="line"/>
      <point x="389" y="68"/>
      <point x="389" y="131"/>
      <point x="389" y="186" type="curve" smooth="yes"/>
      <point x="389" y="252"/>
      <point x="391" y="321"/>
      <point x="391" y="400" type="curve"/>
      <point x="286" y="480" type="line"/>
      <point x="199" y="471" type="line"/>
      <point x="152" y="390"/>
      <point x="119" y="321"/>
      <point x="70" y="188" type="curve"/>
      <point x="139" y="47" type="line"/>
      <point x="135" y="119"/>
      <point x="136" y="154"/>
      <point x="140" y="192" type="curve"/>
      <point x="163" y="261"/>
      <point x="202" y="339"/>
      <point x="233" y="386" type="curve"/>
      <point x="257" y="379"/>
      <point x="280" y="367"/>
      <point x="297" y="355" type="curve"/>
      <point x="301" y="320"/>
      <point x="302" y="272"/>
      <point x="302" y="222" type="curve" smooth="yes"/>
      <point x="302" y="152"/>
      <point x="302" y="68"/>
    </contour>
    <contour>
      <point x="208" y="-49" type="curve"/>
      <point x="274" y="-122" type="line"/>
      <point x="315" y="-95"/>
      <point x="373" y="-47"/>
      <point x="394" y="-20" type="curve"/>
      <point x="346" y="30" type="line"/>
      <point x="320" y="11"/>
      <point x="280" y="-16"/>
    </contour>
    <contour>
      <point x="40" y="0" type="curve"/>
      <point x="143" y="0" type="line"/>
      <point x="135" y="110"/>
      <point x="134" y="176"/>
      <point x="134" y="230" type="curve" smooth="yes"/>
      <point x="134" y="283"/>
      <point x="135" y="377"/>
      <point x="138" y="470" type="curve"/>
      <point x="45" y="470" type="line"/>
      <point x="48" y="377"/>
      <point x="49" y="283"/>
      <point x="49" y="230" type="curve" smooth="yes"/>
      <point x="49" y="176"/>
      <point x="48" y="110"/>
    </contour>
  </outline>
</glyph>
<glyph name="OE" format="2">
  <advance width="717"/>
  <unicode hex="0152"/>
  <outline>
    <contour>
      <point x="660" y="608" type="line"/>
      <point x="670" y="625"/>
      <point x="678" y="646"/>
      <point x="682" y="673" type="curve"/>
      <point x="668" y="700" type="line"/>
      <point x="332" y="700" type="line"/>
      <point x="380" y="618" type="line"/>
    </contour>
    <contour>
      <point x="380" y="0" type="line"/>
      <point x="665" y="0" type="line"/>
      <point x="675" y="17"/>
      <point x="683" y="38"/>
      <point x="687" y="65" type="curve"/>
      <point x="673" y="92" type="line"/>
      <point x="380" y="87" type="line"/>
    </contour>
    <contour>
      <point x="567" y="294" type="line"/>
      <point x="585" y="311"/>
      <point x="597" y="330"/>
      <point x="605" y="353" type="curve"/>
      <point x="595" y="393" type="line"/>
      <point x="380" y="383" type="line"/>
      <point x="380" y="304" type="line"/>
    </contour>
    <component base="_part.cg" xOffset="-6"/>
    <component base="_part.barra" xOffset="264"/>
  </outline>
</glyph>
<glyph name="oe" format="2">
  <advance width="635"/>
  <unicode hex="0153"/>
  <outline>
    <contour>
      <point x="457" y="-10" type="curve" smooth="yes"/>
      <point x="483" y="-10"/>
      <point x="518" y="-3"/>
      <point x="559" y="18" type="curve"/>
      <point x="585" y="55"/>
      <point x="600" y="109"/>
      <point x="601" y="165" type="curve"/>
      <point x="514" y="147" type="line"/>
      <point x="514" y="121"/>
      <point x="506" y="96"/>
      <point x="497" y="80" type="curve"/>
      <point x="482" y="76"/>
      <point x="469" y="75"/>
      <point x="457" y="75" type="curve" smooth="yes"/>
      <point x="439" y="75"/>
      <point x="424" y="76"/>
      <point x="408" y="80" type="curve"/>
      <point x="385" y="112"/>
      <point x="371" y="142"/>
      <point x="358" y="228" type="curve" smooth="yes"/>
      <point x="348" y="295"/>
      <point x="383" y="356"/>
      <point x="428" y="412" type="curve"/>
      <point x="457" y="406"/>
      <point x="482" y="396"/>
      <point x="507" y="384" type="curve"/>
      <point x="515" y="371"/>
      <point x="522" y="355"/>
      <point x="527" y="336" type="curve"/>
      <point x="524" y="317"/>
      <point x="518" y="301"/>
      <point x="507" y="284" type="curve"/>
      <point x="475" y="280"/>
      <point x="448" y="278"/>
      <point x="416" y="278" type="curve" smooth="yes"/>
      <point x="387" y="278"/>
      <point x="357" y="280"/>
      <point x="328" y="284" type="curve"/>
      <point x="330" y="205" type="line"/>
      <point x="361" y="200"/>
      <point x="391" y="198"/>
      <point x="421" y="198" type="curve" smooth="yes"/>
      <point x="461" y="198"/>
      <point x="496" y="202"/>
      <point x="540" y="210" type="curve"/>
      <point x="573" y="238"/>
      <point x="602" y="276"/>
      <point x="615" y="324" type="curve"/>
      <point x="610" y="365"/>
      <point x="603" y="404"/>
      <point x="585" y="435" type="curve"/>
      <point x="548" y="457"/>
      <point x="474" y="483"/>
      <point x="419" y="490" type="curve"/>
      <point x="349" y="454" type="line"/>
      <point x="298" y="351"/>
      <point x="280" y="306"/>
      <point x="270" y="225" type="curve"/>
      <point x="280" y="135"/>
      <point x="312" y="82"/>
      <point x="362" y="8" type="curve"/>
      <point x="387" y="-3"/>
      <point x="425" y="-10"/>
    </contour>
    <contour>
      <point x="202" y="-10" type="curve" smooth="yes"/>
      <point x="231" y="-10"/>
      <point x="272" y="-3"/>
      <point x="300" y="10" type="curve"/>
      <point x="359" y="82"/>
      <point x="362" y="103"/>
      <point x="370" y="142" type="curve"/>
      <point x="365" y="205"/>
      <point x="344" y="353"/>
      <point x="293" y="454" type="curve"/>
      <point x="267" y="474"/>
      <point x="236" y="480"/>
      <point x="202" y="480" type="curve" smooth="yes"/>
      <point x="171" y="480"/>
      <point x="141" y="473"/>
      <point x="115" y="453" type="curve"/>
      <point x="64" y="370"/>
      <point x="25" y="231"/>
      <point x="20" y="152" type="curve"/>
      <point x="42" y="81"/>
      <point x="56" y="53"/>
      <point x="101" y="8" type="curve"/>
      <point x="136" y="-3"/>
      <point x="171" y="-10"/>
    </contour>
    <contour>
      <point x="202" y="75" type="curve" smooth="yes"/>
      <point x="190" y="75"/>
      <point x="176" y="78"/>
      <point x="155" y="84" type="curve"/>
      <point x="134" y="105"/>
      <point x="120" y="128"/>
      <point x="110" y="168" type="curve"/>
      <point x="120" y="234"/>
      <point x="148" y="337"/>
      <point x="182" y="392" type="curve"/>
      <point x="186" y="394"/>
      <point x="193" y="395"/>
      <point x="201" y="395" type="curve" smooth="yes"/>
      <point x="208" y="395"/>
      <point x="220" y="394"/>
      <point x="224" y="392" type="curve"/>
      <point x="259" y="327"/>
      <point x="269" y="234"/>
      <point x="279" y="168" type="curve"/>
      <point x="271" y="128"/>
      <point x="268" y="106"/>
      <point x="246" y="84" type="curve"/>
      <point x="227" y="78"/>
      <point x="218" y="75"/>
    </contour>
  </outline>
</glyph>
<glyph name="Tbar" format="2">
  <advance width="600"/>
  <unicode hex="0166"/>
  <outline>
    <contour>
      <point x="119" y="294" type="line"/>
      <point x="176" y="296"/>
      <point x="235" y="305"/>
      <point x="273" y="305" type="curve" smooth="yes"/>
      <point x="307" y="305"/>
      <point x="362" y="296"/>
      <point x="405" y="294" type="curve"/>
      <point x="437" y="359" type="line"/>
      <point x="428" y="395" type="line"/>
      <point x="377" y="393"/>
      <point x="306" y="388"/>
      <point x="273" y="388" type="curve"/>
      <point x="235" y="388"/>
      <point x="190" y="394"/>
      <point x="145" y="398" type="curve"/>
      <point x="113" y="341" type="line"/>
    </contour>
    <component base="T"/>
  </outline>
</glyph>
<glyph name="uni018F" format="2">
  <advance width="524"/>
  <unicode hex="018F"/>
  <outline>
    <contour>
      <point x="267" y="-10" type="curve" smooth="yes"/>
      <point x="303" y="-10"/>
      <point x="344" y="-9"/>
      <point x="381" y="0" type="curve"/>
      <point x="434" y="71"/>
      <point x="492" y="177"/>
      <point x="504" y="288" type="curve"/>
      <point x="495" y="412"/>
      <point x="433" y="599"/>
      <point x="382" y="700" type="curve"/>
      <point x="318" y="629" type="line"/>
      <point x="349" y="562"/>
      <point x="393" y="402"/>
      <point x="408" y="288" type="curve"/>
      <point x="398" y="200"/>
      <point x="355" y="129"/>
      <point x="322" y="83" type="curve"/>
      <point x="301" y="81"/>
      <point x="283" y="80"/>
      <point x="267" y="80" type="curve" smooth="yes"/>
      <point x="242" y="80"/>
      <point x="217" y="83"/>
      <point x="194" y="90" type="curve"/>
      <point x="163" y="141"/>
      <point x="134" y="200"/>
      <point x="120" y="260" type="curve"/>
      <point x="24" y="260" type="line"/>
      <point x="41" y="157"/>
      <point x="93" y="62"/>
      <point x="145" y="0" type="curve"/>
      <point x="173" y="-6"/>
      <point x="227" y="-10"/>
    </contour>
    <contour>
      <point x="24" y="345" type="curve"/>
      <point x="416" y="345" type="line"/>
      <point x="421" y="357"/>
      <point x="426" y="369"/>
      <point x="426" y="385" type="curve"/>
      <point x="408" y="431" type="line"/>
      <point x="59" y="426" type="line"/>
      <point x="118" y="375" type="line"/>
      <point x="125" y="458"/>
      <point x="159" y="556"/>
      <point x="197" y="621" type="curve"/>
      <point x="365" y="621" type="line"/>
      <point x="382" y="700" type="line"/>
      <point x="191" y="700" type="line"/>
      <point x="159" y="679"/>
      <point x="122" y="649"/>
      <point x="100" y="624" type="curve"/>
      <point x="72" y="560"/>
      <point x="12" y="431"/>
    </contour>
  </outline>
</glyph>
<glyph name="uni0190" format="2">
  <advance width="508"/>
  <unicode hex="0190"/>
  <outline>
    <contour>
      <point x="144" y="343" type="curve"/>
      <point x="207" y="386" type="line"/>
      <point x="153" y="426"/>
      <point x="123" y="488"/>
      <point x="118" y="558" type="curve"/>
      <point x="138" y="612"/>
      <point x="194" y="625"/>
      <point x="241" y="625" type="curve" smooth="yes"/>
      <point x="288" y="625"/>
      <point x="330" y="612"/>
      <point x="370" y="573" type="curve"/>
      <point x="446" y="649" type="line"/>
      <point x="385" y="695"/>
      <point x="328" y="710"/>
      <point x="244" y="710" type="curve"/>
      <point x="157" y="710"/>
      <point x="60" y="669"/>
      <point x="25" y="583" type="curve"/>
      <point x="25" y="445"/>
      <point x="98" y="366"/>
    </contour>
    <contour>
      <point x="227" y="-10" type="curve" smooth="yes"/>
      <point x="289" y="-10"/>
      <point x="362" y="-2"/>
      <point x="398" y="5" type="curve"/>
      <point x="379" y="92" type="line"/>
      <point x="318" y="82"/>
      <point x="284" y="79"/>
      <point x="245" y="79" type="curve" smooth="yes"/>
      <point x="202" y="79"/>
      <point x="157" y="83"/>
      <point x="125" y="93" type="curve"/>
      <point x="194" y="61" type="line"/>
      <point x="147" y="107"/>
      <point x="122" y="138"/>
      <point x="122" y="199" type="curve" smooth="yes"/>
      <point x="122" y="240"/>
      <point x="152" y="289"/>
      <point x="198" y="321" type="curve"/>
      <point x="147" y="378" type="line"/>
      <point x="111" y="342"/>
      <point x="29" y="288"/>
      <point x="29" y="183" type="curve" smooth="yes"/>
      <point x="29" y="126"/>
      <point x="52" y="53"/>
      <point x="94" y="18" type="curve"/>
      <point x="120" y="5"/>
      <point x="180" y="-10"/>
    </contour>
    <contour>
      <point x="370" y="72" type="curve"/>
      <point x="398" y="5" type="line"/>
      <point x="430" y="36"/>
      <point x="467" y="95"/>
      <point x="473" y="135" type="curve"/>
      <point x="472" y="162"/>
      <point x="469" y="205"/>
      <point x="466" y="226" type="curve"/>
      <point x="365" y="200" type="line"/>
      <point x="377" y="162"/>
      <point x="383" y="114"/>
    </contour>
    <contour>
      <point x="349" y="304" type="line"/>
      <point x="368" y="329"/>
      <point x="380" y="350"/>
      <point x="387" y="403" type="curve"/>
      <point x="142" y="393" type="line"/>
      <point x="142" y="324" type="line"/>
    </contour>
    <contour>
      <point x="359" y="503" type="line"/>
      <point x="456" y="533" type="line"/>
      <point x="446" y="649" type="line"/>
      <point x="360" y="593" type="line"/>
    </contour>
  </outline>
</glyph>
<glyph name="uni0194" format="2">
  <advance width="639"/>
  <unicode hex="0194"/>
  <outline>
    <contour>
      <point x="314" y="-77" type="curve" smooth="yes"/>
      <point x="336" y="-77"/>
      <point x="358" y="-72"/>
      <point x="382" y="-61" type="curve"/>
      <point x="411" y="-36"/>
      <point x="431" y="-9"/>
      <point x="440" y="19" type="curve"/>
      <point x="442" y="46"/>
      <point x="441" y="64"/>
      <point x="439" y="91" type="curve"/>
      <point x="375" y="230"/>
      <point x="347" y="311"/>
      <point x="297" y="410" type="curve" smooth="yes"/>
      <point x="251" y="501"/>
      <point x="210" y="586"/>
      <point x="151" y="700" type="curve"/>
      <point x="25" y="699" type="line"/>
      <point x="98" y="573"/>
      <point x="171" y="448"/>
      <point x="218" y="355" type="curve" smooth="yes"/>
      <point x="286" y="221"/>
      <point x="327" y="114"/>
      <point x="345" y="67" type="curve" smooth="yes"/>
      <point x="348" y="59"/>
      <point x="349" y="55"/>
      <point x="351" y="45" type="curve"/>
      <point x="349" y="37"/>
      <point x="342" y="22"/>
      <point x="333" y="10" type="curve"/>
      <point x="311" y="10"/>
      <point x="301" y="15"/>
      <point x="285" y="22" type="curve"/>
      <point x="285" y="72"/>
      <point x="367" y="244"/>
      <point x="424" y="355" type="curve" smooth="yes"/>
      <point x="493" y="489"/>
      <point x="542" y="587"/>
      <point x="614" y="700" type="curve"/>
      <point x="507" y="700" type="line"/>
      <point x="451" y="613"/>
      <point x="408" y="517"/>
      <point x="351" y="410" type="curve" smooth="yes"/>
      <point x="285" y="286"/>
      <point x="234" y="165"/>
      <point x="206" y="89" type="curve" smooth="yes"/>
      <point x="195" y="59"/>
      <point x="192" y="37"/>
      <point x="192" y="20" type="curve"/>
      <point x="198" y="2"/>
      <point x="213" y="-30"/>
      <point x="239" y="-61" type="curve"/>
      <point x="265" y="-72"/>
      <point x="292" y="-77"/>
    </contour>
  </outline>
</glyph>
<glyph name="uni0259" format="2">
  <advance width="390"/>
  <unicode hex="0259"/>
  <guideline x="207" y="75" angle="0"/>
  <outline>
    <contour>
      <point x="189" y="-10" type="curve"/>
      <point x="241" y="-6"/>
      <point x="292" y="8"/>
      <point x="322" y="30" type="curve"/>
      <point x="355" y="87"/>
      <point x="368" y="159"/>
      <point x="370" y="255" type="curve"/>
      <point x="360" y="345"/>
      <point x="342" y="427"/>
      <point x="288" y="472" type="curve"/>
      <point x="263" y="483"/>
      <point x="225" y="490"/>
      <point x="193" y="490" type="curve" smooth="yes"/>
      <point x="162" y="490"/>
      <point x="127" y="483"/>
      <point x="86" y="462" type="curve"/>
      <point x="60" y="425"/>
      <point x="45" y="371"/>
      <point x="34" y="315" type="curve"/>
      <point x="131" y="333" type="line"/>
      <point x="131" y="370"/>
      <point x="147" y="405"/>
      <point x="150" y="415" type="curve"/>
      <point x="114" y="388" type="line"/>
      <point x="148" y="402"/>
      <point x="165" y="405"/>
      <point x="193" y="405" type="curve" smooth="yes"/>
      <point x="222" y="405"/>
      <point x="243" y="402"/>
      <point x="273" y="389" type="curve"/>
      <point x="226" y="417" type="line"/>
      <point x="260" y="387"/>
      <point x="277" y="330"/>
      <point x="277" y="255" type="curve" smooth="yes"/>
      <point x="277" y="188"/>
      <point x="288" y="141"/>
      <point x="243" y="85" type="curve"/>
      <point x="228" y="78"/>
      <point x="199" y="74"/>
      <point x="181" y="75" type="curve" smooth="yes"/>
      <point x="165" y="75"/>
      <point x="150" y="79"/>
      <point x="138" y="85" type="curve"/>
      <point x="130" y="98"/>
      <point x="113" y="125"/>
      <point x="108" y="144" type="curve"/>
      <point x="111" y="163"/>
      <point x="117" y="179"/>
      <point x="128" y="196" type="curve"/>
      <point x="160" y="200"/>
      <point x="170" y="202"/>
      <point x="202" y="202" type="curve" smooth="yes"/>
      <point x="231" y="202"/>
      <point x="275" y="196"/>
      <point x="312" y="186" type="curve"/>
      <point x="310" y="265" type="line"/>
      <point x="272" y="275"/>
      <point x="229" y="282"/>
      <point x="202" y="282" type="curve" smooth="yes"/>
      <point x="162" y="282"/>
      <point x="139" y="278"/>
      <point x="95" y="270" type="curve"/>
      <point x="62" y="242"/>
      <point x="33" y="204"/>
      <point x="20" y="156" type="curve"/>
      <point x="25" y="115"/>
      <point x="42" y="61"/>
      <point x="60" y="30" type="curve"/>
      <point x="95" y="0"/>
      <point x="128" y="-7"/>
    </contour>
  </outline>
</glyph>
<glyph name="uni025B" format="2">
  <advance width="376"/>
  <unicode hex="025B"/>
  <outline>
    <contour>
      <point x="234" y="-13" type="curve" smooth="yes"/>
      <point x="281" y="-13"/>
      <point x="325" y="16"/>
      <point x="335" y="41" type="curve"/>
      <point x="351" y="158" type="line"/>
      <point x="253" y="128" type="line"/>
      <point x="266" y="18" type="line"/>
      <point x="310" y="82" type="line"/>
      <point x="290" y="70"/>
      <point x="266" y="62"/>
      <point x="249" y="62" type="curve" smooth="yes"/>
      <point x="180" y="62"/>
      <point x="106" y="99"/>
      <point x="66" y="154" type="curve"/>
      <point x="91" y="51" type="line"/>
      <point x="88" y="130"/>
      <point x="122" y="188"/>
      <point x="160" y="210" type="curve"/>
      <point x="121" y="198" type="line"/>
      <point x="152" y="193"/>
      <point x="209" y="187"/>
      <point x="277" y="193" type="curve"/>
      <point x="313" y="272" type="line"/>
      <point x="295" y="276"/>
      <point x="218" y="290"/>
      <point x="99" y="253" type="curve"/>
      <point x="178" y="257" type="line"/>
      <point x="120" y="267"/>
      <point x="102" y="334"/>
      <point x="113" y="398" type="curve"/>
      <point x="91" y="336" type="line"/>
      <point x="114" y="374"/>
      <point x="160" y="399"/>
      <point x="206" y="399" type="curve" smooth="yes"/>
      <point x="248" y="399"/>
      <point x="279" y="383"/>
      <point x="310" y="359" type="curve"/>
      <point x="270" y="429" type="line"/>
      <point x="270" y="314" type="line"/>
      <point x="351" y="342" type="line"/>
      <point x="351" y="460" type="line"/>
      <point x="321" y="469"/>
      <point x="293" y="475"/>
      <point x="255" y="475" type="curve" smooth="yes"/>
      <point x="144" y="477"/>
      <point x="20" y="431"/>
      <point x="20" y="343" type="curve" smooth="yes"/>
      <point x="20" y="302"/>
      <point x="69" y="244"/>
      <point x="113" y="211" type="curve"/>
      <point x="113" y="241" type="line"/>
      <point x="81" y="231"/>
      <point x="20" y="188"/>
      <point x="20" y="122" type="curve" smooth="yes"/>
      <point x="20" y="49"/>
      <point x="136" y="-13"/>
    </contour>
  </outline>
</glyph>
<glyph name="uni0263" format="2">
  <advance width="490"/>
  <unicode hex="0263"/>
  <guideline x="343" y="73" angle="0"/>
  <outline>
    <contour>
      <point x="243" y="-88" type="curve" smooth="yes"/>
      <point x="295" y="-88"/>
      <point x="334" y="-42"/>
      <point x="354" y="22" type="curve"/>
      <point x="302" y="163"/>
      <point x="208" y="350"/>
      <point x="125" y="470" type="curve"/>
      <point x="15" y="470" type="line"/>
      <point x="134" y="298"/>
      <point x="242" y="115"/>
      <point x="279" y="16" type="curve"/>
      <point x="251" y="-16" type="line"/>
      <point x="238" y="-16" type="line"/>
      <point x="222" y="-7"/>
      <point x="215" y="-1"/>
      <point x="206" y="12" type="curve"/>
      <point x="213" y="71"/>
      <point x="317" y="255"/>
      <point x="475" y="470" type="curve"/>
      <point x="362" y="470" type="line"/>
      <point x="280" y="351"/>
      <point x="185" y="172"/>
      <point x="124" y="22" type="curve"/>
      <point x="124" y="-17"/>
      <point x="177" y="-88"/>
    </contour>
  </outline>
</glyph>
<glyph name="uni02BB" format="2">
  <advance width="177"/>
  <unicode hex="02BB"/>
  <outline>
    <contour>
      <point x="43" y="508" type="line"/>
      <point x="62" y="508" type="line"/>
      <point x="131" y="531" type="line"/>
      <point x="105" y="617" type="line"/>
      <point x="152" y="694" type="line"/>
      <point x="82" y="700" type="line"/>
      <point x="25" y="593" type="line"/>
    </contour>
  </outline>
</glyph>
<glyph name="gravecomb" format="2">
  <advance width="0"/>
  <unicode hex="0300"/>
  <anchor x="172" y="470" name="_top"/>
  <anchor x="172" y="680" name="top"/>
  <outline>
    <contour>
      <point x="196" y="529" type="curve"/>
      <point x="222" y="529" type="line"/>
      <point x="250" y="580" type="line"/>
      <point x="201" y="607"/>
      <point x="156" y="638"/>
      <point x="113" y="671" type="curve"/>
      <point x="70" y="612" type="line"/>
      <point x="123" y="569"/>
      <point x="148" y="554"/>
    </contour>
  </outline>
</glyph>
<glyph name="acutecomb" format="2">
  <advance width="0"/>
  <unicode hex="0301"/>
  <anchor x="157" y="470" name="_top"/>
  <anchor x="157" y="680" name="top"/>
  <outline>
    <contour>
      <point x="70" y="580" type="curve"/>
      <point x="98" y="529" type="line"/>
      <point x="124" y="529" type="line"/>
      <point x="172" y="554"/>
      <point x="197" y="569"/>
      <point x="250" y="612" type="curve"/>
      <point x="207" y="671" type="line"/>
      <point x="164" y="638"/>
      <point x="119" y="607"/>
    </contour>
  </outline>
</glyph>
<glyph name="uni0302" format="2">
  <advance width="0"/>
  <unicode hex="0302"/>
  <anchor x="185" y="470" name="_top"/>
  <outline>
    <contour>
      <point x="232" y="537" type="curve"/>
      <point x="256" y="527" type="line"/>
      <point x="300" y="563" type="line"/>
      <point x="268" y="600"/>
      <point x="238" y="638"/>
      <point x="210" y="679" type="curve"/>
      <point x="158" y="662" type="line"/>
      <point x="190" y="602"/>
      <point x="197" y="579"/>
    </contour>
    <contour>
      <point x="70" y="563" type="curve"/>
      <point x="114" y="527" type="line"/>
      <point x="138" y="537" type="line"/>
      <point x="173" y="579"/>
      <point x="180" y="602"/>
      <point x="212" y="662" type="curve"/>
      <point x="210" y="679" type="line"/>
      <point x="160" y="679" type="line"/>
      <point x="132" y="638"/>
      <point x="102" y="600"/>
    </contour>
  </outline>
</glyph>
<glyph name="tildecomb" format="2">
  <advance width="0"/>
  <unicode hex="0303"/>
  <anchor x="216" y="470" name="_top"/>
  <anchor x="216" y="673" name="top"/>
  <outline>
    <contour>
      <point x="258" y="522" type="curve"/>
      <point x="299" y="530"/>
      <point x="316" y="538"/>
      <point x="346" y="571" type="curve"/>
      <point x="387" y="643" type="line"/>
      <point x="367" y="663" type="line"/>
      <point x="308" y="662" type="line"/>
      <point x="303" y="635"/>
      <point x="295" y="616"/>
      <point x="281" y="596" type="curve"/>
      <point x="236" y="637"/>
      <point x="212" y="656"/>
      <point x="164" y="673" type="curve"/>
      <point x="85" y="631" type="line"/>
      <point x="45" y="543" type="line"/>
      <point x="120" y="528" type="line"/>
      <point x="151" y="602" type="line"/>
      <point x="186" y="584"/>
      <point x="219" y="560"/>
    </contour>
  </outline>
</glyph>
<glyph name="uni0304" format="2">
  <advance width="0"/>
  <unicode hex="0304"/>
  <anchor x="186" y="470" name="_top"/>
  <anchor x="186" y="646" name="top"/>
  <outline>
    <contour>
      <point x="30" y="579" type="curve"/>
      <point x="44" y="565" type="line"/>
      <point x="169" y="571" type="line"/>
      <point x="313" y="565" type="line"/>
      <point x="336" y="587"/>
      <point x="348" y="603"/>
      <point x="362" y="632" type="curve"/>
      <point x="347" y="646" type="line"/>
      <point x="205" y="642" type="line"/>
      <point x="73" y="646" type="line"/>
      <point x="51" y="625"/>
      <point x="40" y="605"/>
    </contour>
  </outline>
</glyph>
<glyph name="uni0306" format="2">
  <advance width="0"/>
  <unicode hex="0306"/>
  <anchor x="167" y="470" name="_top"/>
  <anchor x="167" y="679" name="top"/>
  <outline>
    <contour>
      <point x="157" y="526" type="curve" smooth="yes"/>
      <point x="184" y="526"/>
      <point x="261" y="563"/>
      <point x="261" y="617" type="curve" smooth="yes"/>
      <point x="261" y="655" type="line"/>
      <point x="200" y="655" type="line"/>
      <point x="190" y="603" type="line"/>
      <point x="177" y="603"/>
      <point x="160" y="604"/>
      <point x="150" y="614" type="curve" smooth="yes"/>
      <point x="142" y="622"/>
      <point x="138" y="635"/>
      <point x="138" y="658" type="curve"/>
      <point x="70" y="635" type="line"/>
      <point x="70" y="609"/>
      <point x="79" y="578"/>
      <point x="86" y="569" type="curve" smooth="yes"/>
      <point x="97" y="555"/>
      <point x="130" y="526"/>
    </contour>
  </outline>
</glyph>
<glyph name="uni0308" format="2">
  <advance width="0"/>
  <unicode hex="0308"/>
  <anchor x="195" y="470" name="_top"/>
  <anchor x="195" y="655" name="top"/>
  <outline>
    <contour>
      <point x="240" y="530" type="line"/>
      <point x="319" y="530" type="line"/>
      <point x="319" y="613" type="line"/>
      <point x="245" y="605" type="line"/>
    </contour>
    <contour>
      <point x="70" y="530" type="line"/>
      <point x="149" y="530" type="line"/>
      <point x="149" y="613" type="line"/>
      <point x="75" y="605" type="line"/>
    </contour>
  </outline>
</glyph>
<glyph name="uni030A" format="2">
  <advance width="0"/>
  <unicode hex="030A"/>
  <anchor x="173" y="470" name="_top"/>
  <anchor x="173" y="705" name="top"/>
  <outline>
    <contour>
      <point x="167" y="512" type="curve" smooth="yes"/>
      <point x="230" y="512"/>
      <point x="295" y="562"/>
      <point x="295" y="630" type="curve" smooth="yes"/>
      <point x="295" y="675"/>
      <point x="241" y="707"/>
      <point x="191" y="707" type="curve" smooth="yes"/>
      <point x="122" y="707"/>
      <point x="50" y="667"/>
      <point x="50" y="594" type="curve" smooth="yes"/>
      <point x="50" y="547"/>
      <point x="104" y="512"/>
    </contour>
    <contour>
      <point x="178" y="561" type="curve" smooth="yes"/>
      <point x="154" y="561"/>
      <point x="133" y="589"/>
      <point x="133" y="614" type="curve" smooth="yes"/>
      <point x="133" y="642"/>
      <point x="154" y="668"/>
      <point x="169" y="668" type="curve" smooth="yes"/>
      <point x="190" y="668"/>
      <point x="214" y="642"/>
      <point x="214" y="614" type="curve" smooth="yes"/>
      <point x="214" y="586"/>
      <point x="198" y="561"/>
    </contour>
  </outline>
</glyph>
<glyph name="uni030B" format="2">
  <advance width="0"/>
  <unicode hex="030B"/>
  <anchor x="167" y="470" name="_top"/>
  <anchor x="167" y="680" name="top"/>
  <outline>
    <contour>
      <point x="200" y="547" type="curve"/>
      <point x="213" y="540" type="line"/>
      <point x="250" y="544" type="line"/>
      <point x="278" y="573"/>
      <point x="287" y="582"/>
      <point x="300" y="644" type="curve"/>
      <point x="287" y="661" type="line"/>
      <point x="230" y="661" type="line"/>
      <point x="225" y="651" type="line"/>
      <point x="225" y="648"/>
      <point x="225" y="624"/>
      <point x="221" y="604" type="curve" smooth="yes"/>
      <point x="217" y="584"/>
      <point x="213" y="574"/>
    </contour>
    <contour>
      <point x="70" y="547" type="curve"/>
      <point x="83" y="540" type="line"/>
      <point x="120" y="544" type="line"/>
      <point x="148" y="573"/>
      <point x="157" y="582"/>
      <point x="170" y="644" type="curve"/>
      <point x="157" y="661" type="line"/>
      <point x="100" y="661" type="line"/>
      <point x="95" y="651" type="line"/>
      <point x="95" y="648"/>
      <point x="95" y="624"/>
      <point x="91" y="604" type="curve" smooth="yes"/>
      <point x="87" y="584"/>
      <point x="83" y="574"/>
    </contour>
  </outline>
</glyph>
<glyph name="uni0312" format="2">
  <advance width="0"/>
  <unicode hex="0312"/>
  <anchor x="89" y="470" name="_top"/>
  <anchor x="89" y="700" name="top"/>
  <outline>
    <contour>
      <point x="43" y="508" type="line"/>
      <point x="62" y="508" type="line"/>
      <point x="131" y="531" type="line"/>
      <point x="105" y="617" type="line"/>
      <point x="152" y="694" type="line"/>
      <point x="82" y="700" type="line"/>
      <point x="25" y="593" type="line"/>
    </contour>
  </outline>
</glyph>
<glyph name="uni0326" format="2">
  <advance width="0"/>
  <unicode hex="0326"/>
  <guideline x="133" y="-45" angle="0"/>
  <anchor x="99" y="0" name="_bottom"/>
  <anchor x="99" y="-200" name="bottom"/>
  <outline>
    <contour>
      <point x="103" y="-221" type="line"/>
      <point x="157" y="-130" type="line"/>
      <point x="139" y="-45" type="line"/>
      <point x="120" y="-45" type="line"/>
      <point x="51" y="-68" type="line"/>
      <point x="77" y="-154" type="line"/>
      <point x="39" y="-210" type="line"/>
    </contour>
  </outline>
</glyph>
